<?xml version="1.0" encoding="UTF-8"?>
<svg xmlns:svg="http://www.w3.org/2000/svg" xmlns="http://www.w3.org/2000/svg" version="2.0" width="18.5mm" height="17.660254037844386mm" viewBox="-9.25 -8.830127018922193 18.5 17.660254037844386">
<defs />
<g>
<path transform="translate(-3.7500 -4.0000) " stroke="#ffff00" fill="#0000ff" stroke-width="1.0000" d="M 2.5000,4.3301 L 2.5000,-4.3301 L -5.0000,-0.0000 L 2.5000,4.3301 z" />
<path transform="translate(-5.0000 4.8301) " stroke="None" fill="#ffc0cb" stroke-width="0.0000" d="M 3.5355,3.5355 L 3.5355,-3.5355 L -3.5355,-3.5355 L -3.5355,3.5355 L 3.5355,3.5355 z" />
<path transform="translate(4.7500 -4.0000) " stroke="#ffff00" fill="#0000ff" stroke-width="1.0000" d="M 2.5000,4.3301 L 4.0000,0.0000 L 2.5000,-4.3301 L -2.0000,-3.4641 L -5.0000,-0.0000 L -2.0000,3.4641 L 2.5000,4.3301 z" />
<path transform="translate(4.2500 4.8301) " stroke="None" fill="#ffc0cb" stroke-width="0.0000" d="M 3.5355,3.5355 L 4.0000,0.0000 L 3.5355,-3.5355 L 0.0000,-4.0000 L -3.5355,-3.5355 L -4.0000,-0.0000 L -3.5355,3.5355 L -0.0000,4.0000 L 3.5355,3.5355 z" />
</g>
</svg>