<?xml version="1.0" encoding="UTF-8"?>
<svg xmlns:svg="http://www.w3.org/2000/svg" xmlns="http://www.w3.org/2000/svg" version="2.0" width="240mm" height="283.9826989236377mm" viewBox="-120 -141.99134946181886 240 283.9826989236377">
<defs>
<marker id="arrow" viewBox="0 0 10 10" refX="5" refY="5" markerWidth="6" markerHeight="6" markerUnits="strokeWidth" orient="auto">
<path fill="context-stroke" d="M 0 0 L 10 5 L 0 10 z" />
</marker>
<marker id="dot" viewBox="0 0 10 10" refX="5" refY="5" markerWidth="5" markerHeight="5" markerUnits="strokeWidth">
<circle cx="5" cy="5" r="5" fill="context-stroke" />
</marker>
</defs>
<g>
<g id="row1" transform="translate(-14.9516 -98.9942) ">
<g id="1_1" transform="translate(-84.0388 -21.4986) ">
<path id="g1_1.medium.medium.blob.blob" transform="translate(-10.0097 -10.7493) " stroke="#800080" fill="#ffff00" stroke-width="0.0000" d="M 9.0097,4.3388 L 5.0000,0.0000 L 9.0097,-4.3388 L 3.1174,-3.9092 L 2.2252,-9.7493 L -1.1126,-4.8746 L -6.2349,-7.8183 L -4.5048,-2.1694 L -10.0000,-0.0000 L -4.5048,2.1694 L -6.2349,7.8183 L -1.1126,4.8746 L 2.2252,9.7493 L 3.1174,3.9092 L 9.0097,4.3388 z" />
<path stroke="#008000" stroke-width="1.0000" fill="None" d="M -0.5000,-0.5000 L -0.5000,-20.9986 L -20.5097,-20.9986 L -20.5097,-0.5000 L -0.5000,-0.5000 z" />
<path id="g2_1.medium.medium.blob.blob" transform="translate(11.0000 -10.7493) " stroke="#800080" fill="#ffff00" stroke-width="0.0000" d="M 9.0097,4.3388 L 5.0000,0.0000 L 9.0097,-4.3388 L 3.1174,-3.9092 L 2.2252,-9.7493 L -1.1126,-4.8746 L -6.2349,-7.8183 L -4.5048,-2.1694 L -10.0000,-0.0000 L -4.5048,2.1694 L -6.2349,7.8183 L -1.1126,4.8746 L 2.2252,9.7493 L 3.1174,3.9092 L 9.0097,4.3388 z" />
<path stroke="#008000" stroke-width="1.0000" fill="None" d="M 20.5097,-0.5000 L 20.5097,-20.9986 L 0.5000,-20.9986 L 0.5000,-0.5000 L 20.5097,-0.5000 z" />
<path id="g1_2.medium.medium.blob.blob" transform="translate(-10.0097 10.7493) " stroke="#800080" fill="#ffff00" stroke-width="0.0000" d="M 9.0097,4.3388 L 5.0000,0.0000 L 9.0097,-4.3388 L 3.1174,-3.9092 L 2.2252,-9.7493 L -1.1126,-4.8746 L -6.2349,-7.8183 L -4.5048,-2.1694 L -10.0000,-0.0000 L -4.5048,2.1694 L -6.2349,7.8183 L -1.1126,4.8746 L 2.2252,9.7493 L 3.1174,3.9092 L 9.0097,4.3388 z" />
<path stroke="#008000" stroke-width="1.0000" fill="None" d="M -0.5000,20.9986 L -0.5000,0.5000 L -20.5097,0.5000 L -20.5097,20.9986 L -0.5000,20.9986 z" />
<path id="g2_2.medium.medium.blob.blob" transform="translate(11.0000 10.7493) " stroke="#800080" fill="#ffff00" stroke-width="0.0000" d="M 9.0097,4.3388 L 5.0000,0.0000 L 9.0097,-4.3388 L 3.1174,-3.9092 L 2.2252,-9.7493 L -1.1126,-4.8746 L -6.2349,-7.8183 L -4.5048,-2.1694 L -10.0000,-0.0000 L -4.5048,2.1694 L -6.2349,7.8183 L -1.1126,4.8746 L 2.2252,9.7493 L 3.1174,3.9092 L 9.0097,4.3388 z" />
<path stroke="#008000" stroke-width="1.0000" fill="None" d="M 20.5097,20.9986 L 20.5097,0.5000 L 0.5000,0.5000 L 0.5000,20.9986 L 20.5097,20.9986 z" />
</g>
<g id="1_2" transform="translate(-21.0097 0.0000) ">
<path id="big.big.big.blob.blob" transform="translate(-1.9806 0.0000) " stroke="#800080" fill="#ff0000" stroke-width="0.0000" d="M 22.5242,10.8471 L 40.0000,0.0000 L 22.5242,-10.8471 L 24.9396,-31.2733 L 5.5630,-24.3732 L -8.9008,-38.9971 L -15.5872,-19.5458 L -36.0388,-17.3553 L -25.0000,-0.0000 L -36.0388,17.3553 L -15.5872,19.5458 L -8.9008,38.9971 L 5.5630,24.3732 L 24.9396,31.2733 L 22.5242,10.8471 z" />
<path stroke="#0000ff" stroke-width="4.0000" fill="None" d="M 40.0194,40.9971 L 40.0194,-40.9971 L -40.0194,-40.9971 L -40.0194,40.9971 L 40.0194,40.9971 z" />
<path stroke="#0000ff" stroke-width="4.0000" fill="None" d="M 40.0194,40.9971 L 40.0194,-40.9971 L -40.0194,-40.9971 L -40.0194,40.9971 L 40.0194,40.9971 z" />
<path stroke="#0000ff" stroke-width="4.0000" fill="None" d="M 40.0194,40.9971 L 40.0194,-40.9971 L -40.0194,-40.9971 L -40.0194,40.9971 L 40.0194,40.9971 z" />
<path id="g1_1.medium.medium.blob.blob" transform="translate(-31.0194 -32.2478) " stroke="#800080" fill="#ffff00" stroke-width="0.0000" d="M 9.0097,4.3388 L 5.0000,0.0000 L 9.0097,-4.3388 L 3.1174,-3.9092 L 2.2252,-9.7493 L -1.1126,-4.8746 L -6.2349,-7.8183 L -4.5048,-2.1694 L -10.0000,-0.0000 L -4.5048,2.1694 L -6.2349,7.8183 L -1.1126,4.8746 L 2.2252,9.7493 L 3.1174,3.9092 L 9.0097,4.3388 z" />
<path stroke="#008000" stroke-width="1.0000" fill="None" d="M -21.5097,-21.9986 L -21.5097,-42.4971 L -41.5194,-42.4971 L -41.5194,-21.9986 L -21.5097,-21.9986 z" />
<path id="g2_1.medium.medium.blob.blob" transform="translate(11.0000 -32.2478) " stroke="#800080" fill="#ffff00" stroke-width="0.0000" d="M 9.0097,4.3388 L 5.0000,0.0000 L 9.0097,-4.3388 L 3.1174,-3.9092 L 2.2252,-9.7493 L -1.1126,-4.8746 L -6.2349,-7.8183 L -4.5048,-2.1694 L -10.0000,-0.0000 L -4.5048,2.1694 L -6.2349,7.8183 L -1.1126,4.8746 L 2.2252,9.7493 L 3.1174,3.9092 L 9.0097,4.3388 z" />
<path stroke="#008000" stroke-width="1.0000" fill="None" d="M 41.5194,-21.9986 L 41.5194,-42.4971 L -20.5097,-42.4971 L -20.5097,-21.9986 L 41.5194,-21.9986 z" />
<path id="g1_2.medium.medium.blob.blob" transform="translate(-31.0194 10.7493) " stroke="#800080" fill="#ffff00" stroke-width="0.0000" d="M 9.0097,4.3388 L 5.0000,0.0000 L 9.0097,-4.3388 L 3.1174,-3.9092 L 2.2252,-9.7493 L -1.1126,-4.8746 L -6.2349,-7.8183 L -4.5048,-2.1694 L -10.0000,-0.0000 L -4.5048,2.1694 L -6.2349,7.8183 L -1.1126,4.8746 L 2.2252,9.7493 L 3.1174,3.9092 L 9.0097,4.3388 z" />
<path stroke="#008000" stroke-width="1.0000" fill="None" d="M -21.5097,42.4971 L -21.5097,-20.9986 L -41.5194,-20.9986 L -41.5194,42.4971 L -21.5097,42.4971 z" />
<path id="g2_2.medium.medium.blob.blob" transform="translate(11.0000 10.7493) " stroke="#800080" fill="#ffff00" stroke-width="0.0000" d="M 9.0097,4.3388 L 5.0000,0.0000 L 9.0097,-4.3388 L 3.1174,-3.9092 L 2.2252,-9.7493 L -1.1126,-4.8746 L -6.2349,-7.8183 L -4.5048,-2.1694 L -10.0000,-0.0000 L -4.5048,2.1694 L -6.2349,7.8183 L -1.1126,4.8746 L 2.2252,9.7493 L 3.1174,3.9092 L 9.0097,4.3388 z" />
<path stroke="#008000" stroke-width="1.0000" fill="None" d="M 41.5194,42.4971 L 41.5194,-20.9986 L -20.5097,-20.9986 L -20.5097,42.4971 L 41.5194,42.4971 z" />
</g>
<g id="1_3" transform="translate(63.0291 0.0000) ">
<path id="big.big.big.blob.blob" transform="translate(-1.9806 0.0000) " stroke="#800080" fill="#ff0000" stroke-width="0.0000" d="M 22.5242,10.8471 L 40.0000,0.0000 L 22.5242,-10.8471 L 24.9396,-31.2733 L 5.5630,-24.3732 L -8.9008,-38.9971 L -15.5872,-19.5458 L -36.0388,-17.3553 L -25.0000,-0.0000 L -36.0388,17.3553 L -15.5872,19.5458 L -8.9008,38.9971 L 5.5630,24.3732 L 24.9396,31.2733 L 22.5242,10.8471 z" />
<path stroke="#0000ff" stroke-width="4.0000" fill="None" d="M 40.0194,40.9971 L 40.0194,-40.9971 L -40.0194,-40.9971 L -40.0194,40.9971 L 40.0194,40.9971 z" />
<path stroke="#0000ff" stroke-width="4.0000" fill="None" d="M 40.0194,40.9971 L 40.0194,-40.9971 L -40.0194,-40.9971 L -40.0194,40.9971 L 40.0194,40.9971 z" />
<path stroke="#0000ff" stroke-width="4.0000" fill="None" d="M 40.0194,40.9971 L 40.0194,-40.9971 L -40.0194,-40.9971 L -40.0194,40.9971 L 40.0194,40.9971 z" />
<path id="g1_1.medium.medium.blob.blob" transform="translate(-31.0194 -32.2478) " stroke="#800080" fill="#ffff00" stroke-width="0.0000" d="M 9.0097,4.3388 L 5.0000,0.0000 L 9.0097,-4.3388 L 3.1174,-3.9092 L 2.2252,-9.7493 L -1.1126,-4.8746 L -6.2349,-7.8183 L -4.5048,-2.1694 L -10.0000,-0.0000 L -4.5048,2.1694 L -6.2349,7.8183 L -1.1126,4.8746 L 2.2252,9.7493 L 3.1174,3.9092 L 9.0097,4.3388 z" />
<path stroke="#008000" stroke-width="1.0000" fill="None" d="M -21.5097,-21.9986 L -21.5097,-42.4971 L -41.5194,-42.4971 L -41.5194,-21.9986 L -21.5097,-21.9986 z" />
<path id="g2_1.medium.medium.blob.blob" transform="translate(-10.0097 -32.2478) " stroke="#800080" fill="#ffff00" stroke-width="0.0000" d="M 9.0097,4.3388 L 5.0000,0.0000 L 9.0097,-4.3388 L 3.1174,-3.9092 L 2.2252,-9.7493 L -1.1126,-4.8746 L -6.2349,-7.8183 L -4.5048,-2.1694 L -10.0000,-0.0000 L -4.5048,2.1694 L -6.2349,7.8183 L -1.1126,4.8746 L 2.2252,9.7493 L 3.1174,3.9092 L 9.0097,4.3388 z" />
<path stroke="#008000" stroke-width="1.0000" fill="None" d="M -0.5000,-21.9986 L -0.5000,-42.4971 L -20.5097,-42.4971 L -20.5097,-21.9986 L -0.5000,-21.9986 z" />
<path id="g1_2.medium.medium.blob.blob" transform="translate(-31.0194 -10.7493) " stroke="#800080" fill="#ffff00" stroke-width="0.0000" d="M 9.0097,4.3388 L 5.0000,0.0000 L 9.0097,-4.3388 L 3.1174,-3.9092 L 2.2252,-9.7493 L -1.1126,-4.8746 L -6.2349,-7.8183 L -4.5048,-2.1694 L -10.0000,-0.0000 L -4.5048,2.1694 L -6.2349,7.8183 L -1.1126,4.8746 L 2.2252,9.7493 L 3.1174,3.9092 L 9.0097,4.3388 z" />
<path stroke="#008000" stroke-width="1.0000" fill="None" d="M -21.5097,-0.5000 L -21.5097,-20.9986 L -41.5194,-20.9986 L -41.5194,-0.5000 L -21.5097,-0.5000 z" />
<path id="g2_2.medium.medium.blob.blob" transform="translate(-10.0097 -10.7493) " stroke="#800080" fill="#ffff00" stroke-width="0.0000" d="M 9.0097,4.3388 L 5.0000,0.0000 L 9.0097,-4.3388 L 3.1174,-3.9092 L 2.2252,-9.7493 L -1.1126,-4.8746 L -6.2349,-7.8183 L -4.5048,-2.1694 L -10.0000,-0.0000 L -4.5048,2.1694 L -6.2349,7.8183 L -1.1126,4.8746 L 2.2252,9.7493 L 3.1174,3.9092 L 9.0097,4.3388 z" />
<path stroke="#008000" stroke-width="1.0000" fill="None" d="M -0.5000,-0.5000 L -0.5000,-20.9986 L -20.5097,-20.9986 L -20.5097,-0.5000 L -0.5000,-0.5000 z" />
</g>
</g>
<g id="row2" transform="translate(0.0000 0.0000) ">
<g id="2_1" transform="translate(-60.0000 0.0000) ">
<path id="big.big.big.blob.blob" transform="translate(-1.9806 0.0000) " stroke="#800080" fill="#ff0000" stroke-width="26.0000" d="M 22.5242,10.8471 L 40.0000,0.0000 L 22.5242,-10.8471 L 24.9396,-31.2733 L 5.5630,-24.3732 L -8.9008,-38.9971 L -15.5872,-19.5458 L -36.0388,-17.3553 L -25.0000,-0.0000 L -36.0388,17.3553 L -15.5872,19.5458 L -8.9008,38.9971 L 5.5630,24.3732 L 24.9396,31.2733 L 22.5242,10.8471 z" />
<path stroke="#0000ff" stroke-width="4.0000" fill="None" d="M 58.0000,53.9971 L 58.0000,-53.9971 L -58.0000,-53.9971 L -58.0000,53.9971 L 58.0000,53.9971 z" />
<path stroke="#0000ff" stroke-width="4.0000" fill="None" d="M 58.0000,53.9971 L 58.0000,-53.9971 L -58.0000,-53.9971 L -58.0000,53.9971 L 58.0000,53.9971 z" />
<path stroke="#0000ff" stroke-width="4.0000" fill="None" d="M 58.0000,53.9971 L 58.0000,-53.9971 L -58.0000,-53.9971 L -58.0000,53.9971 L 58.0000,53.9971 z" />
<path id="g1_1.medium.medium.blob.blob" transform="translate(-29.5048 -20.9971) " stroke="#800080" fill="#ffa500" stroke-width="0.0000" d="M 9.0097,4.3388 L 5.0000,0.0000 L 9.0097,-4.3388 L 3.1174,-3.9092 L 2.2252,-9.7493 L -1.1126,-4.8746 L -6.2349,-7.8183 L -4.5048,-2.1694 L -10.0000,-0.0000 L -4.5048,2.1694 L -6.2349,7.8183 L -1.1126,4.8746 L 2.2252,9.7493 L 3.1174,3.9092 L 9.0097,4.3388 z" />
<path stroke="#008000" stroke-width="1.0000" fill="None" d="M -0.5000,13.5029 L -0.5000,-55.4971 L -59.5000,-55.4971 L -59.5000,13.5029 L -0.5000,13.5029 z" />
<path id="g2_1.medium.medium.blob.blob" transform="translate(30.4952 -20.9971) " stroke="#800080" fill="#ffa500" stroke-width="0.0000" d="M 9.0097,4.3388 L 5.0000,0.0000 L 9.0097,-4.3388 L 3.1174,-3.9092 L 2.2252,-9.7493 L -1.1126,-4.8746 L -6.2349,-7.8183 L -4.5048,-2.1694 L -10.0000,-0.0000 L -4.5048,2.1694 L -6.2349,7.8183 L -1.1126,4.8746 L 2.2252,9.7493 L 3.1174,3.9092 L 9.0097,4.3388 z" />
<path stroke="#008000" stroke-width="1.0000" fill="None" d="M 59.5000,13.5029 L 59.5000,-55.4971 L 0.5000,-55.4971 L 0.5000,13.5029 L 59.5000,13.5029 z" />
<path id="g1_2.medium.medium.blob.blob" transform="translate(-29.5048 35.0000) " stroke="#800080" fill="#ffa500" stroke-width="0.0000" d="M 9.0097,4.3388 L 5.0000,0.0000 L 9.0097,-4.3388 L 3.1174,-3.9092 L 2.2252,-9.7493 L -1.1126,-4.8746 L -6.2349,-7.8183 L -4.5048,-2.1694 L -10.0000,-0.0000 L -4.5048,2.1694 L -6.2349,7.8183 L -1.1126,4.8746 L 2.2252,9.7493 L 3.1174,3.9092 L 9.0097,4.3388 z" />
<path stroke="#008000" stroke-width="1.0000" fill="None" d="M -0.5000,55.4971 L -0.5000,14.5029 L -59.5000,14.5029 L -59.5000,55.4971 L -0.5000,55.4971 z" />
<path id="g2_2.medium.medium.blob.blob" transform="translate(30.4952 35.0000) " stroke="#800080" fill="#ffa500" stroke-width="0.0000" d="M 9.0097,4.3388 L 5.0000,0.0000 L 9.0097,-4.3388 L 3.1174,-3.9092 L 2.2252,-9.7493 L -1.1126,-4.8746 L -6.2349,-7.8183 L -4.5048,-2.1694 L -10.0000,-0.0000 L -4.5048,2.1694 L -6.2349,7.8183 L -1.1126,4.8746 L 2.2252,9.7493 L 3.1174,3.9092 L 9.0097,4.3388 z" />
<path stroke="#008000" stroke-width="1.0000" fill="None" d="M 59.5000,55.4971 L 59.5000,14.5029 L 0.5000,14.5029 L 0.5000,55.4971 L 59.5000,55.4971 z" />
</g>
<g id="2_2" transform="translate(60.0000 0.0000) ">
<path id="big.big.big.blob.blob" transform="translate(-1.9806 0.0000) " stroke="#800080" fill="#ff0000" stroke-width="26.0000" d="M 22.5242,10.8471 L 40.0000,0.0000 L 22.5242,-10.8471 L 24.9396,-31.2733 L 5.5630,-24.3732 L -8.9008,-38.9971 L -15.5872,-19.5458 L -36.0388,-17.3553 L -25.0000,-0.0000 L -36.0388,17.3553 L -15.5872,19.5458 L -8.9008,38.9971 L 5.5630,24.3732 L 24.9396,31.2733 L 22.5242,10.8471 z" />
<path stroke="#0000ff" stroke-width="4.0000" fill="None" d="M 58.0000,53.9971 L 58.0000,-53.9971 L -58.0000,-53.9971 L -58.0000,53.9971 L 58.0000,53.9971 z" />
<path stroke="#0000ff" stroke-width="4.0000" fill="None" d="M 58.0000,53.9971 L 58.0000,-53.9971 L -58.0000,-53.9971 L -58.0000,53.9971 L 58.0000,53.9971 z" />
<path stroke="#0000ff" stroke-width="4.0000" fill="None" d="M 58.0000,53.9971 L 58.0000,-53.9971 L -58.0000,-53.9971 L -58.0000,53.9971 L 58.0000,53.9971 z" />
<path id="g1_1.medium.medium.blob.blob" transform="translate(-29.5048 -30.9971) " stroke="#800080" fill="#ffa500" stroke-width="0.0000" d="M 9.0097,4.3388 L 5.0000,0.0000 L 9.0097,-4.3388 L 3.1174,-3.9092 L 2.2252,-9.7493 L -1.1126,-4.8746 L -6.2349,-7.8183 L -4.5048,-2.1694 L -10.0000,-0.0000 L -4.5048,2.1694 L -6.2349,7.8183 L -1.1126,4.8746 L 2.2252,9.7493 L 3.1174,3.9092 L 9.0097,4.3388 z" />
<path stroke="#008000" stroke-width="1.0000" fill="None" d="M -0.5000,-6.4971 L -0.5000,-55.4971 L -59.5000,-55.4971 L -59.5000,-6.4971 L -0.5000,-6.4971 z" />
<path id="g2_1.medium.medium.blob.blob" transform="translate(30.4952 -30.9971) " stroke="#800080" fill="#ffa500" stroke-width="0.0000" d="M 9.0097,4.3388 L 5.0000,0.0000 L 9.0097,-4.3388 L 3.1174,-3.9092 L 2.2252,-9.7493 L -1.1126,-4.8746 L -6.2349,-7.8183 L -4.5048,-2.1694 L -10.0000,-0.0000 L -4.5048,2.1694 L -6.2349,7.8183 L -1.1126,4.8746 L 2.2252,9.7493 L 3.1174,3.9092 L 9.0097,4.3388 z" />
<path stroke="#008000" stroke-width="1.0000" fill="None" d="M 59.5000,-6.4971 L 59.5000,-55.4971 L 0.5000,-55.4971 L 0.5000,-6.4971 L 59.5000,-6.4971 z" />
<path id="g1_2.medium.medium.blob.blob" transform="translate(-29.5048 25.0000) " stroke="#800080" fill="#ffa500" stroke-width="0.0000" d="M 9.0097,4.3388 L 5.0000,0.0000 L 9.0097,-4.3388 L 3.1174,-3.9092 L 2.2252,-9.7493 L -1.1126,-4.8746 L -6.2349,-7.8183 L -4.5048,-2.1694 L -10.0000,-0.0000 L -4.5048,2.1694 L -6.2349,7.8183 L -1.1126,4.8746 L 2.2252,9.7493 L 3.1174,3.9092 L 9.0097,4.3388 z" />
<path stroke="#008000" stroke-width="1.0000" fill="None" d="M -0.5000,55.4971 L -0.5000,-5.4971 L -59.5000,-5.4971 L -59.5000,55.4971 L -0.5000,55.4971 z" />
<path id="g2_2.medium.medium.blob.blob" transform="translate(30.4952 25.0000) " stroke="#800080" fill="#ffa500" stroke-width="0.0000" d="M 9.0097,4.3388 L 5.0000,0.0000 L 9.0097,-4.3388 L 3.1174,-3.9092 L 2.2252,-9.7493 L -1.1126,-4.8746 L -6.2349,-7.8183 L -4.5048,-2.1694 L -10.0000,-0.0000 L -4.5048,2.1694 L -6.2349,7.8183 L -1.1126,4.8746 L 2.2252,9.7493 L 3.1174,3.9092 L 9.0097,4.3388 z" />
<path stroke="#008000" stroke-width="1.0000" fill="None" d="M 59.5000,55.4971 L 59.5000,-5.4971 L 0.5000,-5.4971 L 0.5000,55.4971 L 59.5000,55.4971 z" />
</g>
</g>
<g id="row3" transform="translate(-98.9903 77.4957) ">
<g id="3_1">
<path id="g1_1.medium.medium.blob.blob" transform="translate(-10.0097 -10.7493) " stroke="#800080" fill="#ffff00" stroke-width="0.0000" d="M 9.0097,4.3388 L 5.0000,0.0000 L 9.0097,-4.3388 L 3.1174,-3.9092 L 2.2252,-9.7493 L -1.1126,-4.8746 L -6.2349,-7.8183 L -4.5048,-2.1694 L -10.0000,-0.0000 L -4.5048,2.1694 L -6.2349,7.8183 L -1.1126,4.8746 L 2.2252,9.7493 L 3.1174,3.9092 L 9.0097,4.3388 z" />
<path stroke="#008000" stroke-width="1.0000" fill="None" d="M -0.5000,-0.5000 L -0.5000,-20.9986 L -20.5097,-20.9986 L -20.5097,-0.5000 L -0.5000,-0.5000 z" />
<path id="g2_1.medium.medium.blob.blob" transform="translate(11.0000 -10.7493) " stroke="#800080" fill="#ffff00" stroke-width="0.0000" d="M 9.0097,4.3388 L 5.0000,0.0000 L 9.0097,-4.3388 L 3.1174,-3.9092 L 2.2252,-9.7493 L -1.1126,-4.8746 L -6.2349,-7.8183 L -4.5048,-2.1694 L -10.0000,-0.0000 L -4.5048,2.1694 L -6.2349,7.8183 L -1.1126,4.8746 L 2.2252,9.7493 L 3.1174,3.9092 L 9.0097,4.3388 z" />
<path stroke="#008000" stroke-width="1.0000" fill="None" d="M 20.5097,-0.5000 L 20.5097,-20.9986 L 0.5000,-20.9986 L 0.5000,-0.5000 L 20.5097,-0.5000 z" />
<path id="g1_2.medium.medium.blob.blob" transform="translate(-10.0097 10.7493) " stroke="#800080" fill="#ffff00" stroke-width="0.0000" d="M 9.0097,4.3388 L 5.0000,0.0000 L 9.0097,-4.3388 L 3.1174,-3.9092 L 2.2252,-9.7493 L -1.1126,-4.8746 L -6.2349,-7.8183 L -4.5048,-2.1694 L -10.0000,-0.0000 L -4.5048,2.1694 L -6.2349,7.8183 L -1.1126,4.8746 L 2.2252,9.7493 L 3.1174,3.9092 L 9.0097,4.3388 z" />
<path stroke="#008000" stroke-width="1.0000" fill="None" d="M -0.5000,20.9986 L -0.5000,0.5000 L -20.5097,0.5000 L -20.5097,20.9986 L -0.5000,20.9986 z" />
<path id="g2_2.medium.medium.blob.blob" transform="translate(11.0000 10.7493) " stroke="#800080" fill="#ffff00" stroke-width="0.0000" d="M 9.0097,4.3388 L 5.0000,0.0000 L 9.0097,-4.3388 L 3.1174,-3.9092 L 2.2252,-9.7493 L -1.1126,-4.8746 L -6.2349,-7.8183 L -4.5048,-2.1694 L -10.0000,-0.0000 L -4.5048,2.1694 L -6.2349,7.8183 L -1.1126,4.8746 L 2.2252,9.7493 L 3.1174,3.9092 L 9.0097,4.3388 z" />
<path stroke="#008000" stroke-width="1.0000" fill="None" d="M 20.5097,20.9986 L 20.5097,0.5000 L 0.5000,0.5000 L 0.5000,20.9986 L 20.5097,20.9986 z" />
</g>
</g>
<g id="row4" transform="translate(0.0000 120.4928) ">
<g id="4_1">
<path id="g1_1.medium.medium.blob.blob" transform="translate(-109.0000 -10.7493) " stroke="#800080" fill="#ffff00" stroke-width="0.0000" d="M 9.0097,4.3388 L 5.0000,0.0000 L 9.0097,-4.3388 L 3.1174,-3.9092 L 2.2252,-9.7493 L -1.1126,-4.8746 L -6.2349,-7.8183 L -4.5048,-2.1694 L -10.0000,-0.0000 L -4.5048,2.1694 L -6.2349,7.8183 L -1.1126,4.8746 L 2.2252,9.7493 L 3.1174,3.9092 L 9.0097,4.3388 z" />
<path stroke="#008000" stroke-width="1.0000" fill="None" d="M -33.4968,-0.5000 L -33.4968,-20.9986 L -119.5000,-20.9986 L -119.5000,-0.5000 L -33.4968,-0.5000 z" />
<path id="g2_1.medium.medium.blob.blob" transform="translate(-21.9968 -10.7493) " stroke="#800080" fill="#ffff00" stroke-width="0.0000" d="M 9.0097,4.3388 L 5.0000,0.0000 L 9.0097,-4.3388 L 3.1174,-3.9092 L 2.2252,-9.7493 L -1.1126,-4.8746 L -6.2349,-7.8183 L -4.5048,-2.1694 L -10.0000,-0.0000 L -4.5048,2.1694 L -6.2349,7.8183 L -1.1126,4.8746 L 2.2252,9.7493 L 3.1174,3.9092 L 9.0097,4.3388 z" />
<path stroke="#008000" stroke-width="1.0000" fill="None" d="M 119.5000,-0.5000 L 119.5000,-20.9986 L -32.4968,-20.9986 L -32.4968,-0.5000 L 119.5000,-0.5000 z" />
<path id="g1_2.medium.medium.blob.blob" transform="translate(-43.0065 10.7493) " stroke="#800080" fill="#ffff00" stroke-width="0.0000" d="M 9.0097,4.3388 L 5.0000,0.0000 L 9.0097,-4.3388 L 3.1174,-3.9092 L 2.2252,-9.7493 L -1.1126,-4.8746 L -6.2349,-7.8183 L -4.5048,-2.1694 L -10.0000,-0.0000 L -4.5048,2.1694 L -6.2349,7.8183 L -1.1126,4.8746 L 2.2252,9.7493 L 3.1174,3.9092 L 9.0097,4.3388 z" />
<path stroke="#008000" stroke-width="1.0000" fill="None" d="M -33.4968,20.9986 L -33.4968,0.5000 L -119.5000,0.5000 L -119.5000,20.9986 L -33.4968,20.9986 z" />
<path id="g2_2.medium.medium.blob.blob" transform="translate(109.9903 10.7493) " stroke="#800080" fill="#ffff00" stroke-width="0.0000" d="M 9.0097,4.3388 L 5.0000,0.0000 L 9.0097,-4.3388 L 3.1174,-3.9092 L 2.2252,-9.7493 L -1.1126,-4.8746 L -6.2349,-7.8183 L -4.5048,-2.1694 L -10.0000,-0.0000 L -4.5048,2.1694 L -6.2349,7.8183 L -1.1126,4.8746 L 2.2252,9.7493 L 3.1174,3.9092 L 9.0097,4.3388 z" />
<path stroke="#008000" stroke-width="1.0000" fill="None" d="M 119.5000,20.9986 L 119.5000,0.5000 L -32.4968,0.5000 L -32.4968,20.9986 L 119.5000,20.9986 z" />
</g>
</g>
</g>
</svg>