<?xml version="1.0" encoding="UTF-8"?>
<svg xmlns:svg="http://www.w3.org/2000/svg" xmlns="http://www.w3.org/2000/svg" version="2.0" width="166.04444444444442mm" height="107.71681095024675mm" viewBox="-83.02222222222221 -53.85840547512338 166.04444444444442 107.71681095024675">
<defs />
<g>
<g>
<path stroke="None" fill="#e0ecff" d="M 53.0222,23.5028 L 53.0222,13.4602 L -83.0222,13.4602 L -83.0222,23.5028 L 53.0222,23.5028 z" />
<text transform="translate(-82.7222 -48.0195) " fill="#000000" x="0.0000" y="3.8806" font-size="3.5278" stroke="None">CPU Core</text>
<path stroke="#000000" stroke-width="0.3000" fill="None" d="M -68.4611,-43.9306 L -68.4611,-47.1695 C -68.4611,-47.7218 -68.9088,-48.1695 -69.4611,-48.1695 L -81.8722,-48.1695 C -82.4245,-48.1695 -82.8722,-47.7218 -82.8722,-47.1695 L -82.8722,-43.9306 C -82.8722,-43.3783 -82.4245,-42.9306 -81.8722,-42.9306 L -69.4611,-42.9306 C -68.9088,-42.9306 -68.4611,-43.3783 -68.4611,-43.9306 z" />
<text transform="translate(-78.3125 -26.9417) " fill="#000000" x="0.0000" y="3.8806" font-size="3.5278" stroke="None">VFS</text>
<path stroke="#000000" stroke-width="0.3000" fill="None" d="M -68.4611,-22.8528 L -68.4611,-26.0917 C -68.4611,-26.6440 -68.9088,-27.0917 -69.4611,-27.0917 L -81.8722,-27.0917 C -82.4245,-27.0917 -82.8722,-26.6440 -82.8722,-26.0917 L -82.8722,-22.8528 C -82.8722,-22.3006 -82.4245,-21.8528 -81.8722,-21.8528 L -69.4611,-21.8528 C -68.9088,-21.8528 -68.4611,-22.3006 -68.4611,-22.8528 z" />
<text transform="translate(-82.7222 -11.5297) " fill="#000000" x="0.0000" y="3.8806" font-size="3.5278" stroke="None">Block</text>
<text transform="translate(-82.7222 -11.5297) " fill="#000000" x="0.0000" y="8.8194" font-size="3.5278" stroke="None">(blk-mq)</text>
<text transform="translate(-82.7222 -11.5297) " fill="#000000" x="0.0000" y="13.7583" font-size="3.5278" stroke="None">&amp; NVME</text>
<path stroke="#000000" stroke-width="0.3000" fill="None" d="M -68.4611,12.3102 L -68.4611,-20.5528 C -68.4611,-21.1051 -68.9088,-21.5528 -69.4611,-21.5528 L -81.8722,-21.5528 C -82.4245,-21.5528 -82.8722,-21.1051 -82.8722,-20.5528 L -82.8722,12.3102 C -82.8722,12.8625 -82.4245,13.3102 -81.8722,13.3102 L -69.4611,13.3102 C -68.9088,13.3102 -68.4611,12.8625 -68.4611,12.3102 z" />
<text transform="translate(-78.3125 16.0121) " fill="#000000" x="0.0000" y="3.8806" font-size="3.5278" stroke="None">i10</text>
<path stroke="#000000" stroke-width="0.3000" fill="None" d="M -68.4611,22.3528 L -68.4611,14.6102 C -68.4611,14.0579 -68.9088,13.6102 -69.4611,13.6102 L -81.8722,13.6102 C -82.4245,13.6102 -82.8722,14.0579 -82.8722,14.6102 L -82.8722,22.3528 C -82.8722,22.9051 -82.4245,23.3528 -81.8722,23.3528 L -69.4611,23.3528 C -68.9088,23.3528 -68.4611,22.9051 -68.4611,22.3528 z" />
<text transform="translate(-80.9583 30.9723) " fill="#000000" x="0.0000" y="3.8806" font-size="3.5278" stroke="None">TCP/IP</text>
<text transform="translate(-80.9583 30.9723) " fill="#000000" x="0.0000" y="8.8194" font-size="3.5278" stroke="None">Stack</text>
<path stroke="#000000" stroke-width="0.3000" fill="None" d="M -68.4611,42.1695 L -68.4611,29.6528 C -68.4611,29.1006 -68.9088,28.6528 -69.4611,28.6528 L -81.8722,28.6528 C -82.4245,28.6528 -82.8722,29.1006 -82.8722,29.6528 L -82.8722,42.1695 C -82.8722,42.7218 -82.4245,43.1695 -81.8722,43.1695 L -69.4611,43.1695 C -68.9088,43.1695 -68.4611,42.7218 -68.4611,42.1695 z" />
<text transform="translate(-80.9583 48.6195) " fill="#000000" x="0.0000" y="3.8806" font-size="3.5278" stroke="None">Device</text>
<path stroke="#000000" stroke-width="0.3000" fill="None" d="M -68.4611,52.7084 L -68.4611,49.4695 C -68.4611,48.9172 -68.9088,48.4695 -69.4611,48.4695 L -81.8722,48.4695 C -82.4245,48.4695 -82.8722,48.9172 -82.8722,49.4695 L -82.8722,52.7084 C -82.8722,53.2607 -82.4245,53.7084 -81.8722,53.7084 L -69.4611,53.7084 C -68.9088,53.7084 -68.4611,53.2607 -68.4611,52.7084 z" />
<text transform="translate(-47.0750 -48.0195) " fill="#000000" x="0.0000" y="3.8806" font-size="3.5278" stroke="None">X1</text>
<path stroke="#000000" stroke-width="0.3000" fill="None" d="M -25.4611,-43.9306 L -25.4611,-47.1695 C -25.4611,-47.7218 -25.9088,-48.1695 -26.4611,-48.1695 L -64.1611,-48.1695 C -64.7134,-48.1695 -65.1611,-47.7218 -65.1611,-47.1695 L -65.1611,-43.9306 C -65.1611,-43.3783 -64.7134,-42.9306 -64.1611,-42.9306 L -26.4611,-42.9306 C -25.9088,-42.9306 -25.4611,-43.3783 -25.4611,-43.9306 z" />
<path stroke="None" fill="#ffc0cb" d="M 19.7056,-49.4695 L 19.7056,-52.7084 C 19.7056,-53.2607 19.2578,-53.7084 18.7056,-53.7084 L -2.9944,-53.7084 C -3.5467,-53.7084 -3.9944,-53.2607 -3.9944,-52.7084 L -3.9944,-49.4695 C -3.9944,-48.9172 -3.5467,-48.4695 -2.9944,-48.4695 L 18.7056,-48.4695 C 19.2578,-48.4695 19.7056,-48.9172 19.7056,-49.4695 z" />
<text transform="translate(4.3278 -53.5584) " fill="#000000" x="0.0000" y="3.8806" font-size="3.5278" stroke="None">App1</text>
<path stroke="#000000" stroke-width="0.3000" fill="None" d="M 19.7056,-49.4695 L 19.7056,-52.7084 C 19.7056,-53.2607 19.2578,-53.7084 18.7056,-53.7084 L -2.9944,-53.7084 C -3.5467,-53.7084 -3.9944,-53.2607 -3.9944,-52.7084 L -3.9944,-49.4695 C -3.9944,-48.9172 -3.5467,-48.4695 -2.9944,-48.4695 L 18.7056,-48.4695 C 19.2578,-48.4695 19.7056,-48.9172 19.7056,-49.4695 z" />
<path stroke="None" fill="#90ee90" d="M 31.7056,-49.4695 L 31.7056,-52.7084 C 31.7056,-53.2607 31.2578,-53.7084 30.7056,-53.7084 L 21.0056,-53.7084 C 20.4533,-53.7084 20.0056,-53.2607 20.0056,-52.7084 L 20.0056,-49.4695 C 20.0056,-48.9172 20.4533,-48.4695 21.0056,-48.4695 L 30.7056,-48.4695 C 31.2578,-48.4695 31.7056,-48.9172 31.7056,-49.4695 z" />
<text transform="translate(22.3278 -53.5584) " fill="#000000" x="0.0000" y="3.8806" font-size="3.5278" stroke="None">App2</text>
<path stroke="#000000" stroke-width="0.3000" fill="None" d="M 31.7056,-49.4695 L 31.7056,-52.7084 C 31.7056,-53.2607 31.2578,-53.7084 30.7056,-53.7084 L 21.0056,-53.7084 C 20.4533,-53.7084 20.0056,-53.2607 20.0056,-52.7084 L 20.0056,-49.4695 C 20.0056,-48.9172 20.4533,-48.4695 21.0056,-48.4695 L 30.7056,-48.4695 C 31.2578,-48.4695 31.7056,-48.9172 31.7056,-49.4695 z" />
<text transform="translate(0.0917 -48.0195) " fill="#000000" x="0.0000" y="3.8806" font-size="3.5278" stroke="None">X2</text>
<path stroke="#000000" stroke-width="0.3000" fill="None" d="M 7.7056,-43.9306 L 7.7056,-47.1695 C 7.7056,-47.7218 7.2578,-48.1695 6.7056,-48.1695 L -2.9944,-48.1695 C -3.5467,-48.1695 -3.9944,-47.7218 -3.9944,-47.1695 L -3.9944,-43.9306 C -3.9944,-43.3783 -3.5467,-42.9306 -2.9944,-42.9306 L 6.7056,-42.9306 C 7.2578,-42.9306 7.7056,-43.3783 7.7056,-43.9306 z" />
<text transform="translate(18.0917 -48.0195) " fill="#000000" x="0.0000" y="3.8806" font-size="3.5278" stroke="None">X3</text>
<path stroke="#000000" stroke-width="0.3000" fill="None" d="M 31.7056,-43.9306 L 31.7056,-47.1695 C 31.7056,-47.7218 31.2578,-48.1695 30.7056,-48.1695 L 9.0056,-48.1695 C 8.4533,-48.1695 8.0056,-47.7218 8.0056,-47.1695 L 8.0056,-43.9306 C 8.0056,-43.3783 8.4533,-42.9306 9.0056,-42.9306 L 30.7056,-42.9306 C 31.2578,-42.9306 31.7056,-43.3783 31.7056,-43.9306 z" />
<text transform="translate(3.2722 -37.4806) " fill="#000000" x="0.0000" y="3.8806" font-size="3.5278" stroke="None">I/O syscalls</text>
<path stroke="#000000" stroke-width="0.3000" fill="None" d="M 31.7056,-33.3917 L 31.7056,-36.6306 C 31.7056,-37.1829 31.2578,-37.6306 30.7056,-37.6306 L -2.9944,-37.6306 C -3.5467,-37.6306 -3.9944,-37.1829 -3.9944,-36.6306 L -3.9944,-33.3917 C -3.9944,-32.8395 -3.5467,-32.3917 -2.9944,-32.3917 L 30.7056,-32.3917 C 31.2578,-32.3917 31.7056,-32.8395 31.7056,-33.3917 z" />
<text transform="translate(66.2583 -48.0195) " fill="#000000" x="0.0000" y="3.8806" font-size="3.5278" stroke="None">X4</text>
<path stroke="#000000" stroke-width="0.3000" fill="None" d="M 82.8722,-43.9306 L 82.8722,-47.1695 C 82.8722,-47.7218 82.4245,-48.1695 81.8722,-48.1695 L 54.1722,-48.1695 C 53.6199,-48.1695 53.1722,-47.7218 53.1722,-47.1695 L 53.1722,-43.9306 C 53.1722,-43.3783 53.6199,-42.9306 54.1722,-42.9306 L 81.8722,-42.9306 C 82.4245,-42.9306 82.8722,-43.3783 82.8722,-43.9306 z" />
<g id="target1" transform="translate(-60.3653 -4.1213) ">
<g id="x.bio_pink.bio_pink" transform="translate(0.0000 -13.8121) ">
<g id="x.bio_pink.">
<path stroke="None" fill="#ffc0cb" d="M 4.7958,2.6194 L 4.7958,-2.6194 C 4.7958,-3.1717 4.3481,-3.6194 3.7958,-3.6194 L -3.7958,-3.6194 C -4.3481,-3.6194 -4.7958,-3.1717 -4.7958,-2.6194 L -4.7958,2.6194 C -4.7958,3.1717 -4.3481,3.6194 -3.7958,3.6194 L 3.7958,3.6194 C 4.3481,3.6194 4.7958,3.1717 4.7958,2.6194 z" />
<text id="x.bio_pink." transform="translate(-2.6458 -2.4694) " fill="#000000" x="0.0000" y="3.8806" font-size="3.5278" stroke="None">bio</text>
<path stroke="#808080" stroke-width="0.3000" fill="None" d="M 4.7958,2.6194 L 4.7958,-2.6194 C 4.7958,-3.1717 4.3481,-3.6194 3.7958,-3.6194 L -3.7958,-3.6194 C -4.3481,-3.6194 -4.7958,-3.1717 -4.7958,-2.6194 L -4.7958,2.6194 C -4.7958,3.1717 -4.3481,3.6194 -3.7958,3.6194 L 3.7958,3.6194 C 4.3481,3.6194 4.7958,3.1717 4.7958,2.6194 z" />
</g>
</g>
<g id="y.req_pink.req_pink" transform="translate(0.0000 -6.2732) ">
<g id="y.req_pink.">
<path stroke="None" fill="#ffc0cb" d="M 4.7958,2.6194 L 4.7958,-2.6194 C 4.7958,-3.1717 4.3481,-3.6194 3.7958,-3.6194 L -3.7958,-3.6194 C -4.3481,-3.6194 -4.7958,-3.1717 -4.7958,-2.6194 L -4.7958,2.6194 C -4.7958,3.1717 -4.3481,3.6194 -3.7958,3.6194 L 3.7958,3.6194 C 4.3481,3.6194 4.7958,3.1717 4.7958,2.6194 z" />
<text id="y.req_pink." transform="translate(-2.6458 -2.4694) " fill="#000000" x="0.0000" y="3.8806" font-size="3.5278" stroke="None">req</text>
<path stroke="#808080" stroke-width="0.3000" fill="None" d="M 4.7958,2.6194 L 4.7958,-2.6194 C 4.7958,-3.1717 4.3481,-3.6194 3.7958,-3.6194 L -3.7958,-3.6194 C -4.3481,-3.6194 -4.7958,-3.1717 -4.7958,-2.6194 L -4.7958,2.6194 C -4.7958,3.1717 -4.3481,3.6194 -3.7958,3.6194 L 3.7958,3.6194 C 4.3481,3.6194 4.7958,3.1717 4.7958,2.6194 z" />
</g>
</g>
<g id="pcbmq.fifo3p.fifo3p" transform="translate(0.0000 2.5176) ">
<g id="pcbmq.fifo3p." transform="translate(0.0000 1.0000) ">
<path stroke="None" fill="#ffc0cb" d="M 2.5749,-2.6071 L 2.5749,-2.2213 C 2.5749,-2.7736 2.1272,-3.2213 1.5749,-3.2213 L -1.5749,-3.2213 C -2.1272,-3.2213 -2.5749,-2.7736 -2.5749,-2.2213 L -2.5749,-2.6071 C -2.5749,-2.0548 -2.1272,-1.6071 -1.5749,-1.6071 L 1.5749,-1.6071 C 2.1272,-1.6071 2.5749,-2.0548 2.5749,-2.6071 z" />
<path id="pcbmq.fifo3p.i0" transform="translate(0.0000 -2.4142) " stroke="None" fill="None" stroke-width="0.0000" d="M 2.4749,0.7071 L 2.4749,-0.7071 L -2.4749,-0.7071 L -2.4749,0.7071 L 2.4749,0.7071 z" />
<path stroke="#808080" stroke-width="0.2000" fill="None" d="M 2.5749,-2.6071 L 2.5749,-2.2213 C 2.5749,-2.7736 2.1272,-3.2213 1.5749,-3.2213 L -1.5749,-3.2213 C -2.1272,-3.2213 -2.5749,-2.7736 -2.5749,-2.2213 L -2.5749,-2.6071 C -2.5749,-2.0548 -2.1272,-1.6071 -1.5749,-1.6071 L 1.5749,-1.6071 C 2.1272,-1.6071 2.5749,-2.0548 2.5749,-2.6071 z" />
<path stroke="None" fill="#ffc0cb" d="M 2.5749,-0.1929 L 2.5749,0.1929 C 2.5749,-0.3594 2.1272,-0.8071 1.5749,-0.8071 L -1.5749,-0.8071 C -2.1272,-0.8071 -2.5749,-0.3594 -2.5749,0.1929 L -2.5749,-0.1929 C -2.5749,0.3594 -2.1272,0.8071 -1.5749,0.8071 L 1.5749,0.8071 C 2.1272,0.8071 2.5749,0.3594 2.5749,-0.1929 z" />
<path id="pcbmq.fifo3p.i2" transform="translate(0.0000 0.0000) " stroke="None" fill="None" stroke-width="0.0000" d="M 2.4749,0.7071 L 2.4749,-0.7071 L -2.4749,-0.7071 L -2.4749,0.7071 L 2.4749,0.7071 z" />
<path stroke="#808080" stroke-width="0.2000" fill="None" d="M 2.5749,-0.1929 L 2.5749,0.1929 C 2.5749,-0.3594 2.1272,-0.8071 1.5749,-0.8071 L -1.5749,-0.8071 C -2.1272,-0.8071 -2.5749,-0.3594 -2.5749,0.1929 L -2.5749,-0.1929 C -2.5749,0.3594 -2.1272,0.8071 -1.5749,0.8071 L 1.5749,0.8071 C 2.1272,0.8071 2.5749,0.3594 2.5749,-0.1929 z" />
<path stroke="None" fill="#ffc0cb" d="M 2.5749,2.2213 L 2.5749,2.6071 C 2.5749,2.0548 2.1272,1.6071 1.5749,1.6071 L -1.5749,1.6071 C -2.1272,1.6071 -2.5749,2.0548 -2.5749,2.6071 L -2.5749,2.2213 C -2.5749,2.7736 -2.1272,3.2213 -1.5749,3.2213 L 1.5749,3.2213 C 2.1272,3.2213 2.5749,2.7736 2.5749,2.2213 z" />
<path id="pcbmq.fifo3p.i3" transform="translate(0.0000 2.4142) " stroke="None" fill="None" stroke-width="0.0000" d="M 2.4749,0.7071 L 2.4749,-0.7071 L -2.4749,-0.7071 L -2.4749,0.7071 L 2.4749,0.7071 z" />
<path stroke="#808080" stroke-width="0.2000" fill="None" d="M 2.5749,2.2213 L 2.5749,2.6071 C 2.5749,2.0548 2.1272,1.6071 1.5749,1.6071 L -1.5749,1.6071 C -2.1272,1.6071 -2.5749,2.0548 -2.5749,2.6071 L -2.5749,2.2213 C -2.5749,2.7736 -2.1272,3.2213 -1.5749,3.2213 L 1.5749,3.2213 C 2.1272,3.2213 2.5749,2.7736 2.5749,2.2213 z" />
</g>
<path stroke="#000000" stroke-width="0.4000" fill="None" d="M 3.7749,4.8213 L 3.7749,-4.8213 L -3.7749,-4.8213 L -3.7749,4.8213 L 3.7749,4.8213 z" />
</g>
<g id="pcnvmq.fifo3p.fifo3p" transform="translate(0.0000 12.5602) ">
<g id="pcnvmq.fifo3p." transform="translate(0.0000 1.0000) ">
<path stroke="None" fill="#ffc0cb" d="M 2.5749,-2.6071 L 2.5749,-2.2213 C 2.5749,-2.7736 2.1272,-3.2213 1.5749,-3.2213 L -1.5749,-3.2213 C -2.1272,-3.2213 -2.5749,-2.7736 -2.5749,-2.2213 L -2.5749,-2.6071 C -2.5749,-2.0548 -2.1272,-1.6071 -1.5749,-1.6071 L 1.5749,-1.6071 C 2.1272,-1.6071 2.5749,-2.0548 2.5749,-2.6071 z" />
<path id="pcnvmq.fifo3p.i0" transform="translate(0.0000 -2.4142) " stroke="None" fill="None" stroke-width="0.0000" d="M 2.4749,0.7071 L 2.4749,-0.7071 L -2.4749,-0.7071 L -2.4749,0.7071 L 2.4749,0.7071 z" />
<path stroke="#808080" stroke-width="0.2000" fill="None" d="M 2.5749,-2.6071 L 2.5749,-2.2213 C 2.5749,-2.7736 2.1272,-3.2213 1.5749,-3.2213 L -1.5749,-3.2213 C -2.1272,-3.2213 -2.5749,-2.7736 -2.5749,-2.2213 L -2.5749,-2.6071 C -2.5749,-2.0548 -2.1272,-1.6071 -1.5749,-1.6071 L 1.5749,-1.6071 C 2.1272,-1.6071 2.5749,-2.0548 2.5749,-2.6071 z" />
<path stroke="None" fill="#ffc0cb" d="M 2.5749,-0.1929 L 2.5749,0.1929 C 2.5749,-0.3594 2.1272,-0.8071 1.5749,-0.8071 L -1.5749,-0.8071 C -2.1272,-0.8071 -2.5749,-0.3594 -2.5749,0.1929 L -2.5749,-0.1929 C -2.5749,0.3594 -2.1272,0.8071 -1.5749,0.8071 L 1.5749,0.8071 C 2.1272,0.8071 2.5749,0.3594 2.5749,-0.1929 z" />
<path id="pcnvmq.fifo3p.i2" transform="translate(0.0000 0.0000) " stroke="None" fill="None" stroke-width="0.0000" d="M 2.4749,0.7071 L 2.4749,-0.7071 L -2.4749,-0.7071 L -2.4749,0.7071 L 2.4749,0.7071 z" />
<path stroke="#808080" stroke-width="0.2000" fill="None" d="M 2.5749,-0.1929 L 2.5749,0.1929 C 2.5749,-0.3594 2.1272,-0.8071 1.5749,-0.8071 L -1.5749,-0.8071 C -2.1272,-0.8071 -2.5749,-0.3594 -2.5749,0.1929 L -2.5749,-0.1929 C -2.5749,0.3594 -2.1272,0.8071 -1.5749,0.8071 L 1.5749,0.8071 C 2.1272,0.8071 2.5749,0.3594 2.5749,-0.1929 z" />
<path stroke="None" fill="#ffc0cb" d="M 2.5749,2.2213 L 2.5749,2.6071 C 2.5749,2.0548 2.1272,1.6071 1.5749,1.6071 L -1.5749,1.6071 C -2.1272,1.6071 -2.5749,2.0548 -2.5749,2.6071 L -2.5749,2.2213 C -2.5749,2.7736 -2.1272,3.2213 -1.5749,3.2213 L 1.5749,3.2213 C 2.1272,3.2213 2.5749,2.7736 2.5749,2.2213 z" />
<path id="pcnvmq.fifo3p.i3" transform="translate(0.0000 2.4142) " stroke="None" fill="None" stroke-width="0.0000" d="M 2.4749,0.7071 L 2.4749,-0.7071 L -2.4749,-0.7071 L -2.4749,0.7071 L 2.4749,0.7071 z" />
<path stroke="#808080" stroke-width="0.2000" fill="None" d="M 2.5749,2.2213 L 2.5749,2.6071 C 2.5749,2.0548 2.1272,1.6071 1.5749,1.6071 L -1.5749,1.6071 C -2.1272,1.6071 -2.5749,2.0548 -2.5749,2.6071 L -2.5749,2.2213 C -2.5749,2.7736 -2.1272,3.2213 -1.5749,3.2213 L 1.5749,3.2213 C 2.1272,3.2213 2.5749,2.7736 2.5749,2.2213 z" />
</g>
<path stroke="#000000" stroke-width="0.4000" fill="None" d="M 3.7749,4.8213 L 3.7749,-4.8213 L -3.7749,-4.8213 L -3.7749,4.8213 L 3.7749,4.8213 z" />
</g>
</g>
<g id="pi10io_0.fifo3p.fifo3p" transform="translate(-51.4446 18.4815) ">
<g id="pi10io_0.fifo3p." transform="translate(0.0000 1.0000) ">
<path stroke="None" fill="#ffc0cb" d="M 2.5749,-2.6071 L 2.5749,-2.2213 C 2.5749,-2.7736 2.1272,-3.2213 1.5749,-3.2213 L -1.5749,-3.2213 C -2.1272,-3.2213 -2.5749,-2.7736 -2.5749,-2.2213 L -2.5749,-2.6071 C -2.5749,-2.0548 -2.1272,-1.6071 -1.5749,-1.6071 L 1.5749,-1.6071 C 2.1272,-1.6071 2.5749,-2.0548 2.5749,-2.6071 z" />
<path id="pi10io_0.fifo3p.i0" transform="translate(0.0000 -2.4142) " stroke="None" fill="None" stroke-width="0.0000" d="M 2.4749,0.7071 L 2.4749,-0.7071 L -2.4749,-0.7071 L -2.4749,0.7071 L 2.4749,0.7071 z" />
<path stroke="#808080" stroke-width="0.2000" fill="None" d="M 2.5749,-2.6071 L 2.5749,-2.2213 C 2.5749,-2.7736 2.1272,-3.2213 1.5749,-3.2213 L -1.5749,-3.2213 C -2.1272,-3.2213 -2.5749,-2.7736 -2.5749,-2.2213 L -2.5749,-2.6071 C -2.5749,-2.0548 -2.1272,-1.6071 -1.5749,-1.6071 L 1.5749,-1.6071 C 2.1272,-1.6071 2.5749,-2.0548 2.5749,-2.6071 z" />
<path stroke="None" fill="#ffc0cb" d="M 2.5749,-0.1929 L 2.5749,0.1929 C 2.5749,-0.3594 2.1272,-0.8071 1.5749,-0.8071 L -1.5749,-0.8071 C -2.1272,-0.8071 -2.5749,-0.3594 -2.5749,0.1929 L -2.5749,-0.1929 C -2.5749,0.3594 -2.1272,0.8071 -1.5749,0.8071 L 1.5749,0.8071 C 2.1272,0.8071 2.5749,0.3594 2.5749,-0.1929 z" />
<path id="pi10io_0.fifo3p.i2" transform="translate(0.0000 0.0000) " stroke="None" fill="None" stroke-width="0.0000" d="M 2.4749,0.7071 L 2.4749,-0.7071 L -2.4749,-0.7071 L -2.4749,0.7071 L 2.4749,0.7071 z" />
<path stroke="#808080" stroke-width="0.2000" fill="None" d="M 2.5749,-0.1929 L 2.5749,0.1929 C 2.5749,-0.3594 2.1272,-0.8071 1.5749,-0.8071 L -1.5749,-0.8071 C -2.1272,-0.8071 -2.5749,-0.3594 -2.5749,0.1929 L -2.5749,-0.1929 C -2.5749,0.3594 -2.1272,0.8071 -1.5749,0.8071 L 1.5749,0.8071 C 2.1272,0.8071 2.5749,0.3594 2.5749,-0.1929 z" />
<path stroke="None" fill="#ffc0cb" d="M 2.5749,2.2213 L 2.5749,2.6071 C 2.5749,2.0548 2.1272,1.6071 1.5749,1.6071 L -1.5749,1.6071 C -2.1272,1.6071 -2.5749,2.0548 -2.5749,2.6071 L -2.5749,2.2213 C -2.5749,2.7736 -2.1272,3.2213 -1.5749,3.2213 L 1.5749,3.2213 C 2.1272,3.2213 2.5749,2.7736 2.5749,2.2213 z" />
<path id="pi10io_0.fifo3p.i3" transform="translate(0.0000 2.4142) " stroke="None" fill="None" stroke-width="0.0000" d="M 2.4749,0.7071 L 2.4749,-0.7071 L -2.4749,-0.7071 L -2.4749,0.7071 L 2.4749,0.7071 z" />
<path stroke="#808080" stroke-width="0.2000" fill="None" d="M 2.5749,2.2213 L 2.5749,2.6071 C 2.5749,2.0548 2.1272,1.6071 1.5749,1.6071 L -1.5749,1.6071 C -2.1272,1.6071 -2.5749,2.0548 -2.5749,2.6071 L -2.5749,2.2213 C -2.5749,2.7736 -2.1272,3.2213 -1.5749,3.2213 L 1.5749,3.2213 C 2.1272,3.2213 2.5749,2.7736 2.5749,2.2213 z" />
</g>
<path stroke="#000000" stroke-width="0.4000" fill="None" d="M 3.7749,4.8213 L 3.7749,-4.8213 L -3.7749,-4.8213 L -3.7749,4.8213 L 3.7749,4.8213 z" />
</g>
<g id="pi10txp_0.fifo3p.fifo3p" transform="translate(-51.4446 35.9112) ">
<g id="pi10txp_0.fifo3p." transform="translate(0.0000 1.0000) ">
<path stroke="None" fill="#ffc0cb" d="M 2.5749,-2.6071 L 2.5749,-2.2213 C 2.5749,-2.7736 2.1272,-3.2213 1.5749,-3.2213 L -1.5749,-3.2213 C -2.1272,-3.2213 -2.5749,-2.7736 -2.5749,-2.2213 L -2.5749,-2.6071 C -2.5749,-2.0548 -2.1272,-1.6071 -1.5749,-1.6071 L 1.5749,-1.6071 C 2.1272,-1.6071 2.5749,-2.0548 2.5749,-2.6071 z" />
<path id="pi10txp_0.fifo3p.i0" transform="translate(0.0000 -2.4142) " stroke="None" fill="None" stroke-width="0.0000" d="M 2.4749,0.7071 L 2.4749,-0.7071 L -2.4749,-0.7071 L -2.4749,0.7071 L 2.4749,0.7071 z" />
<path stroke="#808080" stroke-width="0.2000" fill="None" d="M 2.5749,-2.6071 L 2.5749,-2.2213 C 2.5749,-2.7736 2.1272,-3.2213 1.5749,-3.2213 L -1.5749,-3.2213 C -2.1272,-3.2213 -2.5749,-2.7736 -2.5749,-2.2213 L -2.5749,-2.6071 C -2.5749,-2.0548 -2.1272,-1.6071 -1.5749,-1.6071 L 1.5749,-1.6071 C 2.1272,-1.6071 2.5749,-2.0548 2.5749,-2.6071 z" />
<path stroke="None" fill="#ffc0cb" d="M 2.5749,-0.1929 L 2.5749,0.1929 C 2.5749,-0.3594 2.1272,-0.8071 1.5749,-0.8071 L -1.5749,-0.8071 C -2.1272,-0.8071 -2.5749,-0.3594 -2.5749,0.1929 L -2.5749,-0.1929 C -2.5749,0.3594 -2.1272,0.8071 -1.5749,0.8071 L 1.5749,0.8071 C 2.1272,0.8071 2.5749,0.3594 2.5749,-0.1929 z" />
<path id="pi10txp_0.fifo3p.i2" transform="translate(0.0000 0.0000) " stroke="None" fill="None" stroke-width="0.0000" d="M 2.4749,0.7071 L 2.4749,-0.7071 L -2.4749,-0.7071 L -2.4749,0.7071 L 2.4749,0.7071 z" />
<path stroke="#808080" stroke-width="0.2000" fill="None" d="M 2.5749,-0.1929 L 2.5749,0.1929 C 2.5749,-0.3594 2.1272,-0.8071 1.5749,-0.8071 L -1.5749,-0.8071 C -2.1272,-0.8071 -2.5749,-0.3594 -2.5749,0.1929 L -2.5749,-0.1929 C -2.5749,0.3594 -2.1272,0.8071 -1.5749,0.8071 L 1.5749,0.8071 C 2.1272,0.8071 2.5749,0.3594 2.5749,-0.1929 z" />
<path stroke="None" fill="#ffc0cb" d="M 2.5749,2.2213 L 2.5749,2.6071 C 2.5749,2.0548 2.1272,1.6071 1.5749,1.6071 L -1.5749,1.6071 C -2.1272,1.6071 -2.5749,2.0548 -2.5749,2.6071 L -2.5749,2.2213 C -2.5749,2.7736 -2.1272,3.2213 -1.5749,3.2213 L 1.5749,3.2213 C 2.1272,3.2213 2.5749,2.7736 2.5749,2.2213 z" />
<path id="pi10txp_0.fifo3p.i3" transform="translate(0.0000 2.4142) " stroke="None" fill="None" stroke-width="0.0000" d="M 2.4749,0.7071 L 2.4749,-0.7071 L -2.4749,-0.7071 L -2.4749,0.7071 L 2.4749,0.7071 z" />
<path stroke="#808080" stroke-width="0.2000" fill="None" d="M 2.5749,2.2213 L 2.5749,2.6071 C 2.5749,2.0548 2.1272,1.6071 1.5749,1.6071 L -1.5749,1.6071 C -2.1272,1.6071 -2.5749,2.0548 -2.5749,2.6071 L -2.5749,2.2213 C -2.5749,2.7736 -2.1272,3.2213 -1.5749,3.2213 L 1.5749,3.2213 C 2.1272,3.2213 2.5749,2.7736 2.5749,2.2213 z" />
</g>
<path stroke="#000000" stroke-width="0.4000" fill="None" d="M 3.7749,4.8213 L 3.7749,-4.8213 L -3.7749,-4.8213 L -3.7749,4.8213 L 3.7749,4.8213 z" />
</g>
<g id="pi10io_1.fifo3p.fifo3p" transform="translate(-36.3904 18.4815) ">
<g id="pi10io_1.fifo3p." transform="translate(0.0000 1.0000) ">
<path stroke="None" fill="#ffc0cb" d="M 2.5749,-2.6071 L 2.5749,-2.2213 C 2.5749,-2.7736 2.1272,-3.2213 1.5749,-3.2213 L -1.5749,-3.2213 C -2.1272,-3.2213 -2.5749,-2.7736 -2.5749,-2.2213 L -2.5749,-2.6071 C -2.5749,-2.0548 -2.1272,-1.6071 -1.5749,-1.6071 L 1.5749,-1.6071 C 2.1272,-1.6071 2.5749,-2.0548 2.5749,-2.6071 z" />
<path id="pi10io_1.fifo3p.i0" transform="translate(0.0000 -2.4142) " stroke="None" fill="None" stroke-width="0.0000" d="M 2.4749,0.7071 L 2.4749,-0.7071 L -2.4749,-0.7071 L -2.4749,0.7071 L 2.4749,0.7071 z" />
<path stroke="#808080" stroke-width="0.2000" fill="None" d="M 2.5749,-2.6071 L 2.5749,-2.2213 C 2.5749,-2.7736 2.1272,-3.2213 1.5749,-3.2213 L -1.5749,-3.2213 C -2.1272,-3.2213 -2.5749,-2.7736 -2.5749,-2.2213 L -2.5749,-2.6071 C -2.5749,-2.0548 -2.1272,-1.6071 -1.5749,-1.6071 L 1.5749,-1.6071 C 2.1272,-1.6071 2.5749,-2.0548 2.5749,-2.6071 z" />
<path stroke="None" fill="#ffc0cb" d="M 2.5749,-0.1929 L 2.5749,0.1929 C 2.5749,-0.3594 2.1272,-0.8071 1.5749,-0.8071 L -1.5749,-0.8071 C -2.1272,-0.8071 -2.5749,-0.3594 -2.5749,0.1929 L -2.5749,-0.1929 C -2.5749,0.3594 -2.1272,0.8071 -1.5749,0.8071 L 1.5749,0.8071 C 2.1272,0.8071 2.5749,0.3594 2.5749,-0.1929 z" />
<path id="pi10io_1.fifo3p.i2" transform="translate(0.0000 0.0000) " stroke="None" fill="None" stroke-width="0.0000" d="M 2.4749,0.7071 L 2.4749,-0.7071 L -2.4749,-0.7071 L -2.4749,0.7071 L 2.4749,0.7071 z" />
<path stroke="#808080" stroke-width="0.2000" fill="None" d="M 2.5749,-0.1929 L 2.5749,0.1929 C 2.5749,-0.3594 2.1272,-0.8071 1.5749,-0.8071 L -1.5749,-0.8071 C -2.1272,-0.8071 -2.5749,-0.3594 -2.5749,0.1929 L -2.5749,-0.1929 C -2.5749,0.3594 -2.1272,0.8071 -1.5749,0.8071 L 1.5749,0.8071 C 2.1272,0.8071 2.5749,0.3594 2.5749,-0.1929 z" />
<path stroke="None" fill="#ffc0cb" d="M 2.5749,2.2213 L 2.5749,2.6071 C 2.5749,2.0548 2.1272,1.6071 1.5749,1.6071 L -1.5749,1.6071 C -2.1272,1.6071 -2.5749,2.0548 -2.5749,2.6071 L -2.5749,2.2213 C -2.5749,2.7736 -2.1272,3.2213 -1.5749,3.2213 L 1.5749,3.2213 C 2.1272,3.2213 2.5749,2.7736 2.5749,2.2213 z" />
<path id="pi10io_1.fifo3p.i3" transform="translate(0.0000 2.4142) " stroke="None" fill="None" stroke-width="0.0000" d="M 2.4749,0.7071 L 2.4749,-0.7071 L -2.4749,-0.7071 L -2.4749,0.7071 L 2.4749,0.7071 z" />
<path stroke="#808080" stroke-width="0.2000" fill="None" d="M 2.5749,2.2213 L 2.5749,2.6071 C 2.5749,2.0548 2.1272,1.6071 1.5749,1.6071 L -1.5749,1.6071 C -2.1272,1.6071 -2.5749,2.0548 -2.5749,2.6071 L -2.5749,2.2213 C -2.5749,2.7736 -2.1272,3.2213 -1.5749,3.2213 L 1.5749,3.2213 C 2.1272,3.2213 2.5749,2.7736 2.5749,2.2213 z" />
</g>
<path stroke="#000000" stroke-width="0.4000" fill="None" d="M 3.7749,4.8213 L 3.7749,-4.8213 L -3.7749,-4.8213 L -3.7749,4.8213 L 3.7749,4.8213 z" />
</g>
<g id="pi10txp_1.fifo3p.fifo3p" transform="translate(-36.3904 35.9112) ">
<g id="pi10txp_1.fifo3p." transform="translate(0.0000 1.0000) ">
<path stroke="None" fill="#ffc0cb" d="M 2.5749,-2.6071 L 2.5749,-2.2213 C 2.5749,-2.7736 2.1272,-3.2213 1.5749,-3.2213 L -1.5749,-3.2213 C -2.1272,-3.2213 -2.5749,-2.7736 -2.5749,-2.2213 L -2.5749,-2.6071 C -2.5749,-2.0548 -2.1272,-1.6071 -1.5749,-1.6071 L 1.5749,-1.6071 C 2.1272,-1.6071 2.5749,-2.0548 2.5749,-2.6071 z" />
<path id="pi10txp_1.fifo3p.i0" transform="translate(0.0000 -2.4142) " stroke="None" fill="None" stroke-width="0.0000" d="M 2.4749,0.7071 L 2.4749,-0.7071 L -2.4749,-0.7071 L -2.4749,0.7071 L 2.4749,0.7071 z" />
<path stroke="#808080" stroke-width="0.2000" fill="None" d="M 2.5749,-2.6071 L 2.5749,-2.2213 C 2.5749,-2.7736 2.1272,-3.2213 1.5749,-3.2213 L -1.5749,-3.2213 C -2.1272,-3.2213 -2.5749,-2.7736 -2.5749,-2.2213 L -2.5749,-2.6071 C -2.5749,-2.0548 -2.1272,-1.6071 -1.5749,-1.6071 L 1.5749,-1.6071 C 2.1272,-1.6071 2.5749,-2.0548 2.5749,-2.6071 z" />
<path stroke="None" fill="#ffc0cb" d="M 2.5749,-0.1929 L 2.5749,0.1929 C 2.5749,-0.3594 2.1272,-0.8071 1.5749,-0.8071 L -1.5749,-0.8071 C -2.1272,-0.8071 -2.5749,-0.3594 -2.5749,0.1929 L -2.5749,-0.1929 C -2.5749,0.3594 -2.1272,0.8071 -1.5749,0.8071 L 1.5749,0.8071 C 2.1272,0.8071 2.5749,0.3594 2.5749,-0.1929 z" />
<path id="pi10txp_1.fifo3p.i2" transform="translate(0.0000 0.0000) " stroke="None" fill="None" stroke-width="0.0000" d="M 2.4749,0.7071 L 2.4749,-0.7071 L -2.4749,-0.7071 L -2.4749,0.7071 L 2.4749,0.7071 z" />
<path stroke="#808080" stroke-width="0.2000" fill="None" d="M 2.5749,-0.1929 L 2.5749,0.1929 C 2.5749,-0.3594 2.1272,-0.8071 1.5749,-0.8071 L -1.5749,-0.8071 C -2.1272,-0.8071 -2.5749,-0.3594 -2.5749,0.1929 L -2.5749,-0.1929 C -2.5749,0.3594 -2.1272,0.8071 -1.5749,0.8071 L 1.5749,0.8071 C 2.1272,0.8071 2.5749,0.3594 2.5749,-0.1929 z" />
<path stroke="None" fill="#ffc0cb" d="M 2.5749,2.2213 L 2.5749,2.6071 C 2.5749,2.0548 2.1272,1.6071 1.5749,1.6071 L -1.5749,1.6071 C -2.1272,1.6071 -2.5749,2.0548 -2.5749,2.6071 L -2.5749,2.2213 C -2.5749,2.7736 -2.1272,3.2213 -1.5749,3.2213 L 1.5749,3.2213 C 2.1272,3.2213 2.5749,2.7736 2.5749,2.2213 z" />
<path id="pi10txp_1.fifo3p.i3" transform="translate(0.0000 2.4142) " stroke="None" fill="None" stroke-width="0.0000" d="M 2.4749,0.7071 L 2.4749,-0.7071 L -2.4749,-0.7071 L -2.4749,0.7071 L 2.4749,0.7071 z" />
<path stroke="#808080" stroke-width="0.2000" fill="None" d="M 2.5749,2.2213 L 2.5749,2.6071 C 2.5749,2.0548 2.1272,1.6071 1.5749,1.6071 L -1.5749,1.6071 C -2.1272,1.6071 -2.5749,2.0548 -2.5749,2.6071 L -2.5749,2.2213 C -2.5749,2.7736 -2.1272,3.2213 -1.5749,3.2213 L 1.5749,3.2213 C 2.1272,3.2213 2.5749,2.7736 2.5749,2.2213 z" />
</g>
<path stroke="#000000" stroke-width="0.4000" fill="None" d="M 3.7749,4.8213 L 3.7749,-4.8213 L -3.7749,-4.8213 L -3.7749,4.8213 L 3.7749,4.8213 z" />
</g>
<text transform="translate(-25.3111 13.5426) " fill="#000000" x="0.0000" y="3.8806" font-size="3.5278" stroke="None">per-i10-lane</text>
<text transform="translate(-25.3111 13.5426) " fill="#000000" x="0.0000" y="8.8194" font-size="3.5278" stroke="None">I/O queue</text>
<text transform="translate(-25.3111 28.5028) " fill="#000000" x="0.0000" y="3.8806" font-size="3.5278" stroke="None">per-i10-lane</text>
<text transform="translate(-25.3111 28.5028) " fill="#000000" x="0.0000" y="8.8194" font-size="3.5278" stroke="None">TCP Tx/Rx</text>
<text transform="translate(-25.3111 28.5028) " fill="#000000" x="0.0000" y="13.7583" font-size="3.5278" stroke="None">buffers</text>
<text transform="translate(31.8556 13.5426) " fill="#000000" x="0.0000" y="3.8806" font-size="3.5278" stroke="None">per-i10-lane</text>
<text transform="translate(31.8556 13.5426) " fill="#000000" x="0.0000" y="8.8194" font-size="3.5278" stroke="None">I/O queue</text>
<text transform="translate(31.8556 28.5028) " fill="#000000" x="0.0000" y="3.8806" font-size="3.5278" stroke="None">per-i10-lane</text>
<text transform="translate(31.8556 28.5028) " fill="#000000" x="0.0000" y="8.8194" font-size="3.5278" stroke="None">TCP Tx/Rx</text>
<text transform="translate(31.8556 28.5028) " fill="#000000" x="0.0000" y="13.7583" font-size="3.5278" stroke="None">buffers</text>
<g id="host" transform="translate(13.8556 -4.1213) ">
<g id="host_app1_bio1.bio_pink.bio_pink" transform="translate(-12.0000 -12.3051) ">
<g id="host_app1_bio1.bio_pink.">
<path stroke="None" fill="#ffc0cb" d="M 4.7958,2.6194 L 4.7958,-2.6194 C 4.7958,-3.1717 4.3481,-3.6194 3.7958,-3.6194 L -3.7958,-3.6194 C -4.3481,-3.6194 -4.7958,-3.1717 -4.7958,-2.6194 L -4.7958,2.6194 C -4.7958,3.1717 -4.3481,3.6194 -3.7958,3.6194 L 3.7958,3.6194 C 4.3481,3.6194 4.7958,3.1717 4.7958,2.6194 z" />
<text id="host_app1_bio1.bio_pink." transform="translate(-2.6458 -2.4694) " fill="#000000" x="0.0000" y="3.8806" font-size="3.5278" stroke="None">bio</text>
<path stroke="#808080" stroke-width="0.3000" fill="None" d="M 4.7958,2.6194 L 4.7958,-2.6194 C 4.7958,-3.1717 4.3481,-3.6194 3.7958,-3.6194 L -3.7958,-3.6194 C -4.3481,-3.6194 -4.7958,-3.1717 -4.7958,-2.6194 L -4.7958,2.6194 C -4.7958,3.1717 -4.3481,3.6194 -3.7958,3.6194 L 3.7958,3.6194 C 4.3481,3.6194 4.7958,3.1717 4.7958,2.6194 z" />
</g>
</g>
<g id="host_app1_bio2.bio_pink.bio_pink" transform="translate(0.0000 -12.3051) ">
<g id="host_app1_bio2.bio_pink.">
<path stroke="None" fill="#ffc0cb" d="M 4.7958,2.6194 L 4.7958,-2.6194 C 4.7958,-3.1717 4.3481,-3.6194 3.7958,-3.6194 L -3.7958,-3.6194 C -4.3481,-3.6194 -4.7958,-3.1717 -4.7958,-2.6194 L -4.7958,2.6194 C -4.7958,3.1717 -4.3481,3.6194 -3.7958,3.6194 L 3.7958,3.6194 C 4.3481,3.6194 4.7958,3.1717 4.7958,2.6194 z" />
<text id="host_app1_bio2.bio_pink." transform="translate(-2.6458 -2.4694) " fill="#000000" x="0.0000" y="3.8806" font-size="3.5278" stroke="None">bio</text>
<path stroke="#808080" stroke-width="0.3000" fill="None" d="M 4.7958,2.6194 L 4.7958,-2.6194 C 4.7958,-3.1717 4.3481,-3.6194 3.7958,-3.6194 L -3.7958,-3.6194 C -4.3481,-3.6194 -4.7958,-3.1717 -4.7958,-2.6194 L -4.7958,2.6194 C -4.7958,3.1717 -4.3481,3.6194 -3.7958,3.6194 L 3.7958,3.6194 C 4.3481,3.6194 4.7958,3.1717 4.7958,2.6194 z" />
</g>
</g>
<g id="host_app2_bio.bio_lightgreen.bio_lightgreen" transform="translate(12.0000 -12.3051) ">
<g id="host_app2_bio.bio_lightgreen.">
<path stroke="None" fill="#90ee90" d="M 4.7958,2.6194 L 4.7958,-2.6194 C 4.7958,-3.1717 4.3481,-3.6194 3.7958,-3.6194 L -3.7958,-3.6194 C -4.3481,-3.6194 -4.7958,-3.1717 -4.7958,-2.6194 L -4.7958,2.6194 C -4.7958,3.1717 -4.3481,3.6194 -3.7958,3.6194 L 3.7958,3.6194 C 4.3481,3.6194 4.7958,3.1717 4.7958,2.6194 z" />
<text id="host_app2_bio.bio_lightgreen." transform="translate(-2.6458 -2.4694) " fill="#000000" x="0.0000" y="3.8806" font-size="3.5278" stroke="None">bio</text>
<path stroke="#808080" stroke-width="0.3000" fill="None" d="M 4.7958,2.6194 L 4.7958,-2.6194 C 4.7958,-3.1717 4.3481,-3.6194 3.7958,-3.6194 L -3.7958,-3.6194 C -4.3481,-3.6194 -4.7958,-3.1717 -4.7958,-2.6194 L -4.7958,2.6194 C -4.7958,3.1717 -4.3481,3.6194 -3.7958,3.6194 L 3.7958,3.6194 C 4.3481,3.6194 4.7958,3.1717 4.7958,2.6194 z" />
</g>
</g>
<g id="host_app1_req1.req_pink.req_pink" transform="translate(-12.0000 -1.7524) ">
<g id="host_app1_req1.req_pink.">
<path stroke="None" fill="#ffc0cb" d="M 4.7958,2.6194 L 4.7958,-2.6194 C 4.7958,-3.1717 4.3481,-3.6194 3.7958,-3.6194 L -3.7958,-3.6194 C -4.3481,-3.6194 -4.7958,-3.1717 -4.7958,-2.6194 L -4.7958,2.6194 C -4.7958,3.1717 -4.3481,3.6194 -3.7958,3.6194 L 3.7958,3.6194 C 4.3481,3.6194 4.7958,3.1717 4.7958,2.6194 z" />
<text id="host_app1_req1.req_pink." transform="translate(-2.6458 -2.4694) " fill="#000000" x="0.0000" y="3.8806" font-size="3.5278" stroke="None">req</text>
<path stroke="#808080" stroke-width="0.3000" fill="None" d="M 4.7958,2.6194 L 4.7958,-2.6194 C 4.7958,-3.1717 4.3481,-3.6194 3.7958,-3.6194 L -3.7958,-3.6194 C -4.3481,-3.6194 -4.7958,-3.1717 -4.7958,-2.6194 L -4.7958,2.6194 C -4.7958,3.1717 -4.3481,3.6194 -3.7958,3.6194 L 3.7958,3.6194 C 4.3481,3.6194 4.7958,3.1717 4.7958,2.6194 z" />
</g>
</g>
<g id="host_app1_req2.req_pink.req_pink" transform="translate(0.0000 -1.7524) ">
<g id="host_app1_req2.req_pink.">
<path stroke="None" fill="#ffc0cb" d="M 4.7958,2.6194 L 4.7958,-2.6194 C 4.7958,-3.1717 4.3481,-3.6194 3.7958,-3.6194 L -3.7958,-3.6194 C -4.3481,-3.6194 -4.7958,-3.1717 -4.7958,-2.6194 L -4.7958,2.6194 C -4.7958,3.1717 -4.3481,3.6194 -3.7958,3.6194 L 3.7958,3.6194 C 4.3481,3.6194 4.7958,3.1717 4.7958,2.6194 z" />
<text id="host_app1_req2.req_pink." transform="translate(-2.6458 -2.4694) " fill="#000000" x="0.0000" y="3.8806" font-size="3.5278" stroke="None">req</text>
<path stroke="#808080" stroke-width="0.3000" fill="None" d="M 4.7958,2.6194 L 4.7958,-2.6194 C 4.7958,-3.1717 4.3481,-3.6194 3.7958,-3.6194 L -3.7958,-3.6194 C -4.3481,-3.6194 -4.7958,-3.1717 -4.7958,-2.6194 L -4.7958,2.6194 C -4.7958,3.1717 -4.3481,3.6194 -3.7958,3.6194 L 3.7958,3.6194 C 4.3481,3.6194 4.7958,3.1717 4.7958,2.6194 z" />
</g>
</g>
<g id="host_app2_req.req_lightgreen.req_lightgreen" transform="translate(12.0000 -1.7524) ">
<g id="host_app2_req.req_lightgreen.">
<path stroke="None" fill="#90ee90" d="M 4.7958,2.6194 L 4.7958,-2.6194 C 4.7958,-3.1717 4.3481,-3.6194 3.7958,-3.6194 L -3.7958,-3.6194 C -4.3481,-3.6194 -4.7958,-3.1717 -4.7958,-2.6194 L -4.7958,2.6194 C -4.7958,3.1717 -4.3481,3.6194 -3.7958,3.6194 L 3.7958,3.6194 C 4.3481,3.6194 4.7958,3.1717 4.7958,2.6194 z" />
<text id="host_app2_req.req_lightgreen." transform="translate(-2.6458 -2.4694) " fill="#000000" x="0.0000" y="3.8806" font-size="3.5278" stroke="None">req</text>
<path stroke="#808080" stroke-width="0.3000" fill="None" d="M 4.7958,2.6194 L 4.7958,-2.6194 C 4.7958,-3.1717 4.3481,-3.6194 3.7958,-3.6194 L -3.7958,-3.6194 C -4.3481,-3.6194 -4.7958,-3.1717 -4.7958,-2.6194 L -4.7958,2.6194 C -4.7958,3.1717 -4.3481,3.6194 -3.7958,3.6194 L 3.7958,3.6194 C 4.3481,3.6194 4.7958,3.1717 4.7958,2.6194 z" />
</g>
</g>
<g id="host_pcbmq1.fifo3p.fifo3p" transform="translate(-12.0000 10.5528) ">
<g id="host_pcbmq1.fifo3p." transform="translate(0.0000 1.0000) ">
<path stroke="None" fill="#ffc0cb" d="M 2.5749,-2.6071 L 2.5749,-2.2213 C 2.5749,-2.7736 2.1272,-3.2213 1.5749,-3.2213 L -1.5749,-3.2213 C -2.1272,-3.2213 -2.5749,-2.7736 -2.5749,-2.2213 L -2.5749,-2.6071 C -2.5749,-2.0548 -2.1272,-1.6071 -1.5749,-1.6071 L 1.5749,-1.6071 C 2.1272,-1.6071 2.5749,-2.0548 2.5749,-2.6071 z" />
<path id="host_pcbmq1.fifo3p.i0" transform="translate(0.0000 -2.4142) " stroke="None" fill="None" stroke-width="0.0000" d="M 2.4749,0.7071 L 2.4749,-0.7071 L -2.4749,-0.7071 L -2.4749,0.7071 L 2.4749,0.7071 z" />
<path stroke="#808080" stroke-width="0.2000" fill="None" d="M 2.5749,-2.6071 L 2.5749,-2.2213 C 2.5749,-2.7736 2.1272,-3.2213 1.5749,-3.2213 L -1.5749,-3.2213 C -2.1272,-3.2213 -2.5749,-2.7736 -2.5749,-2.2213 L -2.5749,-2.6071 C -2.5749,-2.0548 -2.1272,-1.6071 -1.5749,-1.6071 L 1.5749,-1.6071 C 2.1272,-1.6071 2.5749,-2.0548 2.5749,-2.6071 z" />
<path stroke="None" fill="#ffc0cb" d="M 2.5749,-0.1929 L 2.5749,0.1929 C 2.5749,-0.3594 2.1272,-0.8071 1.5749,-0.8071 L -1.5749,-0.8071 C -2.1272,-0.8071 -2.5749,-0.3594 -2.5749,0.1929 L -2.5749,-0.1929 C -2.5749,0.3594 -2.1272,0.8071 -1.5749,0.8071 L 1.5749,0.8071 C 2.1272,0.8071 2.5749,0.3594 2.5749,-0.1929 z" />
<path id="host_pcbmq1.fifo3p.i2" transform="translate(0.0000 0.0000) " stroke="None" fill="None" stroke-width="0.0000" d="M 2.4749,0.7071 L 2.4749,-0.7071 L -2.4749,-0.7071 L -2.4749,0.7071 L 2.4749,0.7071 z" />
<path stroke="#808080" stroke-width="0.2000" fill="None" d="M 2.5749,-0.1929 L 2.5749,0.1929 C 2.5749,-0.3594 2.1272,-0.8071 1.5749,-0.8071 L -1.5749,-0.8071 C -2.1272,-0.8071 -2.5749,-0.3594 -2.5749,0.1929 L -2.5749,-0.1929 C -2.5749,0.3594 -2.1272,0.8071 -1.5749,0.8071 L 1.5749,0.8071 C 2.1272,0.8071 2.5749,0.3594 2.5749,-0.1929 z" />
<path stroke="None" fill="#ffc0cb" d="M 2.5749,2.2213 L 2.5749,2.6071 C 2.5749,2.0548 2.1272,1.6071 1.5749,1.6071 L -1.5749,1.6071 C -2.1272,1.6071 -2.5749,2.0548 -2.5749,2.6071 L -2.5749,2.2213 C -2.5749,2.7736 -2.1272,3.2213 -1.5749,3.2213 L 1.5749,3.2213 C 2.1272,3.2213 2.5749,2.7736 2.5749,2.2213 z" />
<path id="host_pcbmq1.fifo3p.i3" transform="translate(0.0000 2.4142) " stroke="None" fill="None" stroke-width="0.0000" d="M 2.4749,0.7071 L 2.4749,-0.7071 L -2.4749,-0.7071 L -2.4749,0.7071 L 2.4749,0.7071 z" />
<path stroke="#808080" stroke-width="0.2000" fill="None" d="M 2.5749,2.2213 L 2.5749,2.6071 C 2.5749,2.0548 2.1272,1.6071 1.5749,1.6071 L -1.5749,1.6071 C -2.1272,1.6071 -2.5749,2.0548 -2.5749,2.6071 L -2.5749,2.2213 C -2.5749,2.7736 -2.1272,3.2213 -1.5749,3.2213 L 1.5749,3.2213 C 2.1272,3.2213 2.5749,2.7736 2.5749,2.2213 z" />
</g>
<path stroke="#000000" stroke-width="0.4000" fill="None" d="M 3.7749,4.8213 L 3.7749,-4.8213 L -3.7749,-4.8213 L -3.7749,4.8213 L 3.7749,4.8213 z" />
</g>
<g id="host_pcbmq2.fifo3mixed.fifo3mixed" transform="translate(6.0000 10.5528) ">
<g id="host_pcbmq2.fifo3mixed." transform="translate(0.0000 1.0000) ">
<path stroke="None" fill="#90ee90" d="M 2.5749,-2.6071 L 2.5749,-2.2213 C 2.5749,-2.7736 2.1272,-3.2213 1.5749,-3.2213 L -1.5749,-3.2213 C -2.1272,-3.2213 -2.5749,-2.7736 -2.5749,-2.2213 L -2.5749,-2.6071 C -2.5749,-2.0548 -2.1272,-1.6071 -1.5749,-1.6071 L 1.5749,-1.6071 C 2.1272,-1.6071 2.5749,-2.0548 2.5749,-2.6071 z" />
<path id="host_pcbmq2.fifo3mixed.i0" transform="translate(0.0000 -2.4142) " stroke="None" fill="None" stroke-width="0.0000" d="M 2.4749,0.7071 L 2.4749,-0.7071 L -2.4749,-0.7071 L -2.4749,0.7071 L 2.4749,0.7071 z" />
<path stroke="#808080" stroke-width="0.2000" fill="None" d="M 2.5749,-2.6071 L 2.5749,-2.2213 C 2.5749,-2.7736 2.1272,-3.2213 1.5749,-3.2213 L -1.5749,-3.2213 C -2.1272,-3.2213 -2.5749,-2.7736 -2.5749,-2.2213 L -2.5749,-2.6071 C -2.5749,-2.0548 -2.1272,-1.6071 -1.5749,-1.6071 L 1.5749,-1.6071 C 2.1272,-1.6071 2.5749,-2.0548 2.5749,-2.6071 z" />
<path stroke="None" fill="#ffc0cb" d="M 2.5749,-0.1929 L 2.5749,0.1929 C 2.5749,-0.3594 2.1272,-0.8071 1.5749,-0.8071 L -1.5749,-0.8071 C -2.1272,-0.8071 -2.5749,-0.3594 -2.5749,0.1929 L -2.5749,-0.1929 C -2.5749,0.3594 -2.1272,0.8071 -1.5749,0.8071 L 1.5749,0.8071 C 2.1272,0.8071 2.5749,0.3594 2.5749,-0.1929 z" />
<path id="host_pcbmq2.fifo3mixed.i2" transform="translate(0.0000 0.0000) " stroke="None" fill="None" stroke-width="0.0000" d="M 2.4749,0.7071 L 2.4749,-0.7071 L -2.4749,-0.7071 L -2.4749,0.7071 L 2.4749,0.7071 z" />
<path stroke="#808080" stroke-width="0.2000" fill="None" d="M 2.5749,-0.1929 L 2.5749,0.1929 C 2.5749,-0.3594 2.1272,-0.8071 1.5749,-0.8071 L -1.5749,-0.8071 C -2.1272,-0.8071 -2.5749,-0.3594 -2.5749,0.1929 L -2.5749,-0.1929 C -2.5749,0.3594 -2.1272,0.8071 -1.5749,0.8071 L 1.5749,0.8071 C 2.1272,0.8071 2.5749,0.3594 2.5749,-0.1929 z" />
<path stroke="None" fill="#90ee90" d="M 2.5749,2.2213 L 2.5749,2.6071 C 2.5749,2.0548 2.1272,1.6071 1.5749,1.6071 L -1.5749,1.6071 C -2.1272,1.6071 -2.5749,2.0548 -2.5749,2.6071 L -2.5749,2.2213 C -2.5749,2.7736 -2.1272,3.2213 -1.5749,3.2213 L 1.5749,3.2213 C 2.1272,3.2213 2.5749,2.7736 2.5749,2.2213 z" />
<path id="host_pcbmq2.fifo3mixed.i3" transform="translate(0.0000 2.4142) " stroke="None" fill="None" stroke-width="0.0000" d="M 2.4749,0.7071 L 2.4749,-0.7071 L -2.4749,-0.7071 L -2.4749,0.7071 L 2.4749,0.7071 z" />
<path stroke="#808080" stroke-width="0.2000" fill="None" d="M 2.5749,2.2213 L 2.5749,2.6071 C 2.5749,2.0548 2.1272,1.6071 1.5749,1.6071 L -1.5749,1.6071 C -2.1272,1.6071 -2.5749,2.0548 -2.5749,2.6071 L -2.5749,2.2213 C -2.5749,2.7736 -2.1272,3.2213 -1.5749,3.2213 L 1.5749,3.2213 C 2.1272,3.2213 2.5749,2.7736 2.5749,2.2213 z" />
</g>
<path stroke="#000000" stroke-width="0.4000" fill="None" d="M 3.7749,4.8213 L 3.7749,-4.8213 L -3.7749,-4.8213 L -3.7749,4.8213 L 3.7749,4.8213 z" />
</g>
</g>
<g id="pi10io_0.fifo3p.fifo3p" transform="translate(1.8556 18.4815) ">
<g id="pi10io_0.fifo3p." transform="translate(0.0000 1.0000) ">
<path stroke="None" fill="#ffc0cb" d="M 2.5749,-2.6071 L 2.5749,-2.2213 C 2.5749,-2.7736 2.1272,-3.2213 1.5749,-3.2213 L -1.5749,-3.2213 C -2.1272,-3.2213 -2.5749,-2.7736 -2.5749,-2.2213 L -2.5749,-2.6071 C -2.5749,-2.0548 -2.1272,-1.6071 -1.5749,-1.6071 L 1.5749,-1.6071 C 2.1272,-1.6071 2.5749,-2.0548 2.5749,-2.6071 z" />
<path id="pi10io_0.fifo3p.i0" transform="translate(0.0000 -2.4142) " stroke="None" fill="None" stroke-width="0.0000" d="M 2.4749,0.7071 L 2.4749,-0.7071 L -2.4749,-0.7071 L -2.4749,0.7071 L 2.4749,0.7071 z" />
<path stroke="#808080" stroke-width="0.2000" fill="None" d="M 2.5749,-2.6071 L 2.5749,-2.2213 C 2.5749,-2.7736 2.1272,-3.2213 1.5749,-3.2213 L -1.5749,-3.2213 C -2.1272,-3.2213 -2.5749,-2.7736 -2.5749,-2.2213 L -2.5749,-2.6071 C -2.5749,-2.0548 -2.1272,-1.6071 -1.5749,-1.6071 L 1.5749,-1.6071 C 2.1272,-1.6071 2.5749,-2.0548 2.5749,-2.6071 z" />
<path stroke="None" fill="#ffc0cb" d="M 2.5749,-0.1929 L 2.5749,0.1929 C 2.5749,-0.3594 2.1272,-0.8071 1.5749,-0.8071 L -1.5749,-0.8071 C -2.1272,-0.8071 -2.5749,-0.3594 -2.5749,0.1929 L -2.5749,-0.1929 C -2.5749,0.3594 -2.1272,0.8071 -1.5749,0.8071 L 1.5749,0.8071 C 2.1272,0.8071 2.5749,0.3594 2.5749,-0.1929 z" />
<path id="pi10io_0.fifo3p.i2" transform="translate(0.0000 0.0000) " stroke="None" fill="None" stroke-width="0.0000" d="M 2.4749,0.7071 L 2.4749,-0.7071 L -2.4749,-0.7071 L -2.4749,0.7071 L 2.4749,0.7071 z" />
<path stroke="#808080" stroke-width="0.2000" fill="None" d="M 2.5749,-0.1929 L 2.5749,0.1929 C 2.5749,-0.3594 2.1272,-0.8071 1.5749,-0.8071 L -1.5749,-0.8071 C -2.1272,-0.8071 -2.5749,-0.3594 -2.5749,0.1929 L -2.5749,-0.1929 C -2.5749,0.3594 -2.1272,0.8071 -1.5749,0.8071 L 1.5749,0.8071 C 2.1272,0.8071 2.5749,0.3594 2.5749,-0.1929 z" />
<path stroke="None" fill="#ffc0cb" d="M 2.5749,2.2213 L 2.5749,2.6071 C 2.5749,2.0548 2.1272,1.6071 1.5749,1.6071 L -1.5749,1.6071 C -2.1272,1.6071 -2.5749,2.0548 -2.5749,2.6071 L -2.5749,2.2213 C -2.5749,2.7736 -2.1272,3.2213 -1.5749,3.2213 L 1.5749,3.2213 C 2.1272,3.2213 2.5749,2.7736 2.5749,2.2213 z" />
<path id="pi10io_0.fifo3p.i3" transform="translate(0.0000 2.4142) " stroke="None" fill="None" stroke-width="0.0000" d="M 2.4749,0.7071 L 2.4749,-0.7071 L -2.4749,-0.7071 L -2.4749,0.7071 L 2.4749,0.7071 z" />
<path stroke="#808080" stroke-width="0.2000" fill="None" d="M 2.5749,2.2213 L 2.5749,2.6071 C 2.5749,2.0548 2.1272,1.6071 1.5749,1.6071 L -1.5749,1.6071 C -2.1272,1.6071 -2.5749,2.0548 -2.5749,2.6071 L -2.5749,2.2213 C -2.5749,2.7736 -2.1272,3.2213 -1.5749,3.2213 L 1.5749,3.2213 C 2.1272,3.2213 2.5749,2.7736 2.5749,2.2213 z" />
</g>
<path stroke="#000000" stroke-width="0.4000" fill="None" d="M 3.7749,4.8213 L 3.7749,-4.8213 L -3.7749,-4.8213 L -3.7749,4.8213 L 3.7749,4.8213 z" />
</g>
<g id="pi10txp_0.fifo3p.fifo3p" transform="translate(1.8556 35.9112) ">
<g id="pi10txp_0.fifo3p." transform="translate(0.0000 1.0000) ">
<path stroke="None" fill="#ffc0cb" d="M 2.5749,-2.6071 L 2.5749,-2.2213 C 2.5749,-2.7736 2.1272,-3.2213 1.5749,-3.2213 L -1.5749,-3.2213 C -2.1272,-3.2213 -2.5749,-2.7736 -2.5749,-2.2213 L -2.5749,-2.6071 C -2.5749,-2.0548 -2.1272,-1.6071 -1.5749,-1.6071 L 1.5749,-1.6071 C 2.1272,-1.6071 2.5749,-2.0548 2.5749,-2.6071 z" />
<path id="pi10txp_0.fifo3p.i0" transform="translate(0.0000 -2.4142) " stroke="None" fill="None" stroke-width="0.0000" d="M 2.4749,0.7071 L 2.4749,-0.7071 L -2.4749,-0.7071 L -2.4749,0.7071 L 2.4749,0.7071 z" />
<path stroke="#808080" stroke-width="0.2000" fill="None" d="M 2.5749,-2.6071 L 2.5749,-2.2213 C 2.5749,-2.7736 2.1272,-3.2213 1.5749,-3.2213 L -1.5749,-3.2213 C -2.1272,-3.2213 -2.5749,-2.7736 -2.5749,-2.2213 L -2.5749,-2.6071 C -2.5749,-2.0548 -2.1272,-1.6071 -1.5749,-1.6071 L 1.5749,-1.6071 C 2.1272,-1.6071 2.5749,-2.0548 2.5749,-2.6071 z" />
<path stroke="None" fill="#ffc0cb" d="M 2.5749,-0.1929 L 2.5749,0.1929 C 2.5749,-0.3594 2.1272,-0.8071 1.5749,-0.8071 L -1.5749,-0.8071 C -2.1272,-0.8071 -2.5749,-0.3594 -2.5749,0.1929 L -2.5749,-0.1929 C -2.5749,0.3594 -2.1272,0.8071 -1.5749,0.8071 L 1.5749,0.8071 C 2.1272,0.8071 2.5749,0.3594 2.5749,-0.1929 z" />
<path id="pi10txp_0.fifo3p.i2" transform="translate(0.0000 0.0000) " stroke="None" fill="None" stroke-width="0.0000" d="M 2.4749,0.7071 L 2.4749,-0.7071 L -2.4749,-0.7071 L -2.4749,0.7071 L 2.4749,0.7071 z" />
<path stroke="#808080" stroke-width="0.2000" fill="None" d="M 2.5749,-0.1929 L 2.5749,0.1929 C 2.5749,-0.3594 2.1272,-0.8071 1.5749,-0.8071 L -1.5749,-0.8071 C -2.1272,-0.8071 -2.5749,-0.3594 -2.5749,0.1929 L -2.5749,-0.1929 C -2.5749,0.3594 -2.1272,0.8071 -1.5749,0.8071 L 1.5749,0.8071 C 2.1272,0.8071 2.5749,0.3594 2.5749,-0.1929 z" />
<path stroke="None" fill="#ffc0cb" d="M 2.5749,2.2213 L 2.5749,2.6071 C 2.5749,2.0548 2.1272,1.6071 1.5749,1.6071 L -1.5749,1.6071 C -2.1272,1.6071 -2.5749,2.0548 -2.5749,2.6071 L -2.5749,2.2213 C -2.5749,2.7736 -2.1272,3.2213 -1.5749,3.2213 L 1.5749,3.2213 C 2.1272,3.2213 2.5749,2.7736 2.5749,2.2213 z" />
<path id="pi10txp_0.fifo3p.i3" transform="translate(0.0000 2.4142) " stroke="None" fill="None" stroke-width="0.0000" d="M 2.4749,0.7071 L 2.4749,-0.7071 L -2.4749,-0.7071 L -2.4749,0.7071 L 2.4749,0.7071 z" />
<path stroke="#808080" stroke-width="0.2000" fill="None" d="M 2.5749,2.2213 L 2.5749,2.6071 C 2.5749,2.0548 2.1272,1.6071 1.5749,1.6071 L -1.5749,1.6071 C -2.1272,1.6071 -2.5749,2.0548 -2.5749,2.6071 L -2.5749,2.2213 C -2.5749,2.7736 -2.1272,3.2213 -1.5749,3.2213 L 1.5749,3.2213 C 2.1272,3.2213 2.5749,2.7736 2.5749,2.2213 z" />
</g>
<path stroke="#000000" stroke-width="0.4000" fill="None" d="M 3.7749,4.8213 L 3.7749,-4.8213 L -3.7749,-4.8213 L -3.7749,4.8213 L 3.7749,4.8213 z" />
</g>
<g id="pi10io_1.fifo3p.fifo3p" transform="translate(13.8556 18.4815) ">
<g id="pi10io_1.fifo3p." transform="translate(0.0000 1.0000) ">
<path stroke="None" fill="#ffc0cb" d="M 2.5749,-2.6071 L 2.5749,-2.2213 C 2.5749,-2.7736 2.1272,-3.2213 1.5749,-3.2213 L -1.5749,-3.2213 C -2.1272,-3.2213 -2.5749,-2.7736 -2.5749,-2.2213 L -2.5749,-2.6071 C -2.5749,-2.0548 -2.1272,-1.6071 -1.5749,-1.6071 L 1.5749,-1.6071 C 2.1272,-1.6071 2.5749,-2.0548 2.5749,-2.6071 z" />
<path id="pi10io_1.fifo3p.i0" transform="translate(0.0000 -2.4142) " stroke="None" fill="None" stroke-width="0.0000" d="M 2.4749,0.7071 L 2.4749,-0.7071 L -2.4749,-0.7071 L -2.4749,0.7071 L 2.4749,0.7071 z" />
<path stroke="#808080" stroke-width="0.2000" fill="None" d="M 2.5749,-2.6071 L 2.5749,-2.2213 C 2.5749,-2.7736 2.1272,-3.2213 1.5749,-3.2213 L -1.5749,-3.2213 C -2.1272,-3.2213 -2.5749,-2.7736 -2.5749,-2.2213 L -2.5749,-2.6071 C -2.5749,-2.0548 -2.1272,-1.6071 -1.5749,-1.6071 L 1.5749,-1.6071 C 2.1272,-1.6071 2.5749,-2.0548 2.5749,-2.6071 z" />
<path stroke="None" fill="#ffc0cb" d="M 2.5749,-0.1929 L 2.5749,0.1929 C 2.5749,-0.3594 2.1272,-0.8071 1.5749,-0.8071 L -1.5749,-0.8071 C -2.1272,-0.8071 -2.5749,-0.3594 -2.5749,0.1929 L -2.5749,-0.1929 C -2.5749,0.3594 -2.1272,0.8071 -1.5749,0.8071 L 1.5749,0.8071 C 2.1272,0.8071 2.5749,0.3594 2.5749,-0.1929 z" />
<path id="pi10io_1.fifo3p.i2" transform="translate(0.0000 0.0000) " stroke="None" fill="None" stroke-width="0.0000" d="M 2.4749,0.7071 L 2.4749,-0.7071 L -2.4749,-0.7071 L -2.4749,0.7071 L 2.4749,0.7071 z" />
<path stroke="#808080" stroke-width="0.2000" fill="None" d="M 2.5749,-0.1929 L 2.5749,0.1929 C 2.5749,-0.3594 2.1272,-0.8071 1.5749,-0.8071 L -1.5749,-0.8071 C -2.1272,-0.8071 -2.5749,-0.3594 -2.5749,0.1929 L -2.5749,-0.1929 C -2.5749,0.3594 -2.1272,0.8071 -1.5749,0.8071 L 1.5749,0.8071 C 2.1272,0.8071 2.5749,0.3594 2.5749,-0.1929 z" />
<path stroke="None" fill="#ffc0cb" d="M 2.5749,2.2213 L 2.5749,2.6071 C 2.5749,2.0548 2.1272,1.6071 1.5749,1.6071 L -1.5749,1.6071 C -2.1272,1.6071 -2.5749,2.0548 -2.5749,2.6071 L -2.5749,2.2213 C -2.5749,2.7736 -2.1272,3.2213 -1.5749,3.2213 L 1.5749,3.2213 C 2.1272,3.2213 2.5749,2.7736 2.5749,2.2213 z" />
<path id="pi10io_1.fifo3p.i3" transform="translate(0.0000 2.4142) " stroke="None" fill="None" stroke-width="0.0000" d="M 2.4749,0.7071 L 2.4749,-0.7071 L -2.4749,-0.7071 L -2.4749,0.7071 L 2.4749,0.7071 z" />
<path stroke="#808080" stroke-width="0.2000" fill="None" d="M 2.5749,2.2213 L 2.5749,2.6071 C 2.5749,2.0548 2.1272,1.6071 1.5749,1.6071 L -1.5749,1.6071 C -2.1272,1.6071 -2.5749,2.0548 -2.5749,2.6071 L -2.5749,2.2213 C -2.5749,2.7736 -2.1272,3.2213 -1.5749,3.2213 L 1.5749,3.2213 C 2.1272,3.2213 2.5749,2.7736 2.5749,2.2213 z" />
</g>
<path stroke="#000000" stroke-width="0.4000" fill="None" d="M 3.7749,4.8213 L 3.7749,-4.8213 L -3.7749,-4.8213 L -3.7749,4.8213 L 3.7749,4.8213 z" />
</g>
<g id="pi10txp_1.fifo3p.fifo3p" transform="translate(13.8556 35.9112) ">
<g id="pi10txp_1.fifo3p." transform="translate(0.0000 1.0000) ">
<path stroke="None" fill="#ffc0cb" d="M 2.5749,-2.6071 L 2.5749,-2.2213 C 2.5749,-2.7736 2.1272,-3.2213 1.5749,-3.2213 L -1.5749,-3.2213 C -2.1272,-3.2213 -2.5749,-2.7736 -2.5749,-2.2213 L -2.5749,-2.6071 C -2.5749,-2.0548 -2.1272,-1.6071 -1.5749,-1.6071 L 1.5749,-1.6071 C 2.1272,-1.6071 2.5749,-2.0548 2.5749,-2.6071 z" />
<path id="pi10txp_1.fifo3p.i0" transform="translate(0.0000 -2.4142) " stroke="None" fill="None" stroke-width="0.0000" d="M 2.4749,0.7071 L 2.4749,-0.7071 L -2.4749,-0.7071 L -2.4749,0.7071 L 2.4749,0.7071 z" />
<path stroke="#808080" stroke-width="0.2000" fill="None" d="M 2.5749,-2.6071 L 2.5749,-2.2213 C 2.5749,-2.7736 2.1272,-3.2213 1.5749,-3.2213 L -1.5749,-3.2213 C -2.1272,-3.2213 -2.5749,-2.7736 -2.5749,-2.2213 L -2.5749,-2.6071 C -2.5749,-2.0548 -2.1272,-1.6071 -1.5749,-1.6071 L 1.5749,-1.6071 C 2.1272,-1.6071 2.5749,-2.0548 2.5749,-2.6071 z" />
<path stroke="None" fill="#ffc0cb" d="M 2.5749,-0.1929 L 2.5749,0.1929 C 2.5749,-0.3594 2.1272,-0.8071 1.5749,-0.8071 L -1.5749,-0.8071 C -2.1272,-0.8071 -2.5749,-0.3594 -2.5749,0.1929 L -2.5749,-0.1929 C -2.5749,0.3594 -2.1272,0.8071 -1.5749,0.8071 L 1.5749,0.8071 C 2.1272,0.8071 2.5749,0.3594 2.5749,-0.1929 z" />
<path id="pi10txp_1.fifo3p.i2" transform="translate(0.0000 0.0000) " stroke="None" fill="None" stroke-width="0.0000" d="M 2.4749,0.7071 L 2.4749,-0.7071 L -2.4749,-0.7071 L -2.4749,0.7071 L 2.4749,0.7071 z" />
<path stroke="#808080" stroke-width="0.2000" fill="None" d="M 2.5749,-0.1929 L 2.5749,0.1929 C 2.5749,-0.3594 2.1272,-0.8071 1.5749,-0.8071 L -1.5749,-0.8071 C -2.1272,-0.8071 -2.5749,-0.3594 -2.5749,0.1929 L -2.5749,-0.1929 C -2.5749,0.3594 -2.1272,0.8071 -1.5749,0.8071 L 1.5749,0.8071 C 2.1272,0.8071 2.5749,0.3594 2.5749,-0.1929 z" />
<path stroke="None" fill="#ffc0cb" d="M 2.5749,2.2213 L 2.5749,2.6071 C 2.5749,2.0548 2.1272,1.6071 1.5749,1.6071 L -1.5749,1.6071 C -2.1272,1.6071 -2.5749,2.0548 -2.5749,2.6071 L -2.5749,2.2213 C -2.5749,2.7736 -2.1272,3.2213 -1.5749,3.2213 L 1.5749,3.2213 C 2.1272,3.2213 2.5749,2.7736 2.5749,2.2213 z" />
<path id="pi10txp_1.fifo3p.i3" transform="translate(0.0000 2.4142) " stroke="None" fill="None" stroke-width="0.0000" d="M 2.4749,0.7071 L 2.4749,-0.7071 L -2.4749,-0.7071 L -2.4749,0.7071 L 2.4749,0.7071 z" />
<path stroke="#808080" stroke-width="0.2000" fill="None" d="M 2.5749,2.2213 L 2.5749,2.6071 C 2.5749,2.0548 2.1272,1.6071 1.5749,1.6071 L -1.5749,1.6071 C -2.1272,1.6071 -2.5749,2.0548 -2.5749,2.6071 L -2.5749,2.2213 C -2.5749,2.7736 -2.1272,3.2213 -1.5749,3.2213 L 1.5749,3.2213 C 2.1272,3.2213 2.5749,2.7736 2.5749,2.2213 z" />
</g>
<path stroke="#000000" stroke-width="0.4000" fill="None" d="M 3.7749,4.8213 L 3.7749,-4.8213 L -3.7749,-4.8213 L -3.7749,4.8213 L 3.7749,4.8213 z" />
</g>
<g id="pi10io_2.fifo3g.fifo3g" transform="translate(25.8556 18.4815) ">
<g id="pi10io_2.fifo3g." transform="translate(0.0000 1.0000) ">
<path stroke="None" fill="#90ee90" d="M 2.5749,-2.6071 L 2.5749,-2.2213 C 2.5749,-2.7736 2.1272,-3.2213 1.5749,-3.2213 L -1.5749,-3.2213 C -2.1272,-3.2213 -2.5749,-2.7736 -2.5749,-2.2213 L -2.5749,-2.6071 C -2.5749,-2.0548 -2.1272,-1.6071 -1.5749,-1.6071 L 1.5749,-1.6071 C 2.1272,-1.6071 2.5749,-2.0548 2.5749,-2.6071 z" />
<path id="pi10io_2.fifo3g.i0" transform="translate(0.0000 -2.4142) " stroke="None" fill="None" stroke-width="0.0000" d="M 2.4749,0.7071 L 2.4749,-0.7071 L -2.4749,-0.7071 L -2.4749,0.7071 L 2.4749,0.7071 z" />
<path stroke="#808080" stroke-width="0.2000" fill="None" d="M 2.5749,-2.6071 L 2.5749,-2.2213 C 2.5749,-2.7736 2.1272,-3.2213 1.5749,-3.2213 L -1.5749,-3.2213 C -2.1272,-3.2213 -2.5749,-2.7736 -2.5749,-2.2213 L -2.5749,-2.6071 C -2.5749,-2.0548 -2.1272,-1.6071 -1.5749,-1.6071 L 1.5749,-1.6071 C 2.1272,-1.6071 2.5749,-2.0548 2.5749,-2.6071 z" />
<path stroke="None" fill="#90ee90" d="M 2.5749,-0.1929 L 2.5749,0.1929 C 2.5749,-0.3594 2.1272,-0.8071 1.5749,-0.8071 L -1.5749,-0.8071 C -2.1272,-0.8071 -2.5749,-0.3594 -2.5749,0.1929 L -2.5749,-0.1929 C -2.5749,0.3594 -2.1272,0.8071 -1.5749,0.8071 L 1.5749,0.8071 C 2.1272,0.8071 2.5749,0.3594 2.5749,-0.1929 z" />
<path id="pi10io_2.fifo3g.i2" transform="translate(0.0000 0.0000) " stroke="None" fill="None" stroke-width="0.0000" d="M 2.4749,0.7071 L 2.4749,-0.7071 L -2.4749,-0.7071 L -2.4749,0.7071 L 2.4749,0.7071 z" />
<path stroke="#808080" stroke-width="0.2000" fill="None" d="M 2.5749,-0.1929 L 2.5749,0.1929 C 2.5749,-0.3594 2.1272,-0.8071 1.5749,-0.8071 L -1.5749,-0.8071 C -2.1272,-0.8071 -2.5749,-0.3594 -2.5749,0.1929 L -2.5749,-0.1929 C -2.5749,0.3594 -2.1272,0.8071 -1.5749,0.8071 L 1.5749,0.8071 C 2.1272,0.8071 2.5749,0.3594 2.5749,-0.1929 z" />
<path stroke="None" fill="#90ee90" d="M 2.5749,2.2213 L 2.5749,2.6071 C 2.5749,2.0548 2.1272,1.6071 1.5749,1.6071 L -1.5749,1.6071 C -2.1272,1.6071 -2.5749,2.0548 -2.5749,2.6071 L -2.5749,2.2213 C -2.5749,2.7736 -2.1272,3.2213 -1.5749,3.2213 L 1.5749,3.2213 C 2.1272,3.2213 2.5749,2.7736 2.5749,2.2213 z" />
<path id="pi10io_2.fifo3g.i3" transform="translate(0.0000 2.4142) " stroke="None" fill="None" stroke-width="0.0000" d="M 2.4749,0.7071 L 2.4749,-0.7071 L -2.4749,-0.7071 L -2.4749,0.7071 L 2.4749,0.7071 z" />
<path stroke="#808080" stroke-width="0.2000" fill="None" d="M 2.5749,2.2213 L 2.5749,2.6071 C 2.5749,2.0548 2.1272,1.6071 1.5749,1.6071 L -1.5749,1.6071 C -2.1272,1.6071 -2.5749,2.0548 -2.5749,2.6071 L -2.5749,2.2213 C -2.5749,2.7736 -2.1272,3.2213 -1.5749,3.2213 L 1.5749,3.2213 C 2.1272,3.2213 2.5749,2.7736 2.5749,2.2213 z" />
</g>
<path stroke="#000000" stroke-width="0.4000" fill="None" d="M 3.7749,4.8213 L 3.7749,-4.8213 L -3.7749,-4.8213 L -3.7749,4.8213 L 3.7749,4.8213 z" />
</g>
<g id="pi10txp_2.fifo3g.fifo3g" transform="translate(25.8556 35.9112) ">
<g id="pi10txp_2.fifo3g." transform="translate(0.0000 1.0000) ">
<path stroke="None" fill="#90ee90" d="M 2.5749,-2.6071 L 2.5749,-2.2213 C 2.5749,-2.7736 2.1272,-3.2213 1.5749,-3.2213 L -1.5749,-3.2213 C -2.1272,-3.2213 -2.5749,-2.7736 -2.5749,-2.2213 L -2.5749,-2.6071 C -2.5749,-2.0548 -2.1272,-1.6071 -1.5749,-1.6071 L 1.5749,-1.6071 C 2.1272,-1.6071 2.5749,-2.0548 2.5749,-2.6071 z" />
<path id="pi10txp_2.fifo3g.i0" transform="translate(0.0000 -2.4142) " stroke="None" fill="None" stroke-width="0.0000" d="M 2.4749,0.7071 L 2.4749,-0.7071 L -2.4749,-0.7071 L -2.4749,0.7071 L 2.4749,0.7071 z" />
<path stroke="#808080" stroke-width="0.2000" fill="None" d="M 2.5749,-2.6071 L 2.5749,-2.2213 C 2.5749,-2.7736 2.1272,-3.2213 1.5749,-3.2213 L -1.5749,-3.2213 C -2.1272,-3.2213 -2.5749,-2.7736 -2.5749,-2.2213 L -2.5749,-2.6071 C -2.5749,-2.0548 -2.1272,-1.6071 -1.5749,-1.6071 L 1.5749,-1.6071 C 2.1272,-1.6071 2.5749,-2.0548 2.5749,-2.6071 z" />
<path stroke="None" fill="#90ee90" d="M 2.5749,-0.1929 L 2.5749,0.1929 C 2.5749,-0.3594 2.1272,-0.8071 1.5749,-0.8071 L -1.5749,-0.8071 C -2.1272,-0.8071 -2.5749,-0.3594 -2.5749,0.1929 L -2.5749,-0.1929 C -2.5749,0.3594 -2.1272,0.8071 -1.5749,0.8071 L 1.5749,0.8071 C 2.1272,0.8071 2.5749,0.3594 2.5749,-0.1929 z" />
<path id="pi10txp_2.fifo3g.i2" transform="translate(0.0000 0.0000) " stroke="None" fill="None" stroke-width="0.0000" d="M 2.4749,0.7071 L 2.4749,-0.7071 L -2.4749,-0.7071 L -2.4749,0.7071 L 2.4749,0.7071 z" />
<path stroke="#808080" stroke-width="0.2000" fill="None" d="M 2.5749,-0.1929 L 2.5749,0.1929 C 2.5749,-0.3594 2.1272,-0.8071 1.5749,-0.8071 L -1.5749,-0.8071 C -2.1272,-0.8071 -2.5749,-0.3594 -2.5749,0.1929 L -2.5749,-0.1929 C -2.5749,0.3594 -2.1272,0.8071 -1.5749,0.8071 L 1.5749,0.8071 C 2.1272,0.8071 2.5749,0.3594 2.5749,-0.1929 z" />
<path stroke="None" fill="#90ee90" d="M 2.5749,2.2213 L 2.5749,2.6071 C 2.5749,2.0548 2.1272,1.6071 1.5749,1.6071 L -1.5749,1.6071 C -2.1272,1.6071 -2.5749,2.0548 -2.5749,2.6071 L -2.5749,2.2213 C -2.5749,2.7736 -2.1272,3.2213 -1.5749,3.2213 L 1.5749,3.2213 C 2.1272,3.2213 2.5749,2.7736 2.5749,2.2213 z" />
<path id="pi10txp_2.fifo3g.i3" transform="translate(0.0000 2.4142) " stroke="None" fill="None" stroke-width="0.0000" d="M 2.4749,0.7071 L 2.4749,-0.7071 L -2.4749,-0.7071 L -2.4749,0.7071 L 2.4749,0.7071 z" />
<path stroke="#808080" stroke-width="0.2000" fill="None" d="M 2.5749,2.2213 L 2.5749,2.6071 C 2.5749,2.0548 2.1272,1.6071 1.5749,1.6071 L -1.5749,1.6071 C -2.1272,1.6071 -2.5749,2.0548 -2.5749,2.6071 L -2.5749,2.2213 C -2.5749,2.7736 -2.1272,3.2213 -1.5749,3.2213 L 1.5749,3.2213 C 2.1272,3.2213 2.5749,2.7736 2.5749,2.2213 z" />
</g>
<path stroke="#000000" stroke-width="0.4000" fill="None" d="M 3.7749,4.8213 L 3.7749,-4.8213 L -3.7749,-4.8213 L -3.7749,4.8213 L 3.7749,4.8213 z" />
</g>
<g id="target2" transform="translate(71.9971 -4.1213) ">
<g id="x.bio_lightgreen.bio_lightgreen" transform="translate(0.0000 -13.8121) ">
<g id="x.bio_lightgreen.">
<path stroke="None" fill="#90ee90" d="M 4.7958,2.6194 L 4.7958,-2.6194 C 4.7958,-3.1717 4.3481,-3.6194 3.7958,-3.6194 L -3.7958,-3.6194 C -4.3481,-3.6194 -4.7958,-3.1717 -4.7958,-2.6194 L -4.7958,2.6194 C -4.7958,3.1717 -4.3481,3.6194 -3.7958,3.6194 L 3.7958,3.6194 C 4.3481,3.6194 4.7958,3.1717 4.7958,2.6194 z" />
<text id="x.bio_lightgreen." transform="translate(-2.6458 -2.4694) " fill="#000000" x="0.0000" y="3.8806" font-size="3.5278" stroke="None">bio</text>
<path stroke="#808080" stroke-width="0.3000" fill="None" d="M 4.7958,2.6194 L 4.7958,-2.6194 C 4.7958,-3.1717 4.3481,-3.6194 3.7958,-3.6194 L -3.7958,-3.6194 C -4.3481,-3.6194 -4.7958,-3.1717 -4.7958,-2.6194 L -4.7958,2.6194 C -4.7958,3.1717 -4.3481,3.6194 -3.7958,3.6194 L 3.7958,3.6194 C 4.3481,3.6194 4.7958,3.1717 4.7958,2.6194 z" />
</g>
</g>
<g id="y.req_lightgreen.req_lightgreen" transform="translate(0.0000 -6.2732) ">
<g id="y.req_lightgreen.">
<path stroke="None" fill="#90ee90" d="M 4.7958,2.6194 L 4.7958,-2.6194 C 4.7958,-3.1717 4.3481,-3.6194 3.7958,-3.6194 L -3.7958,-3.6194 C -4.3481,-3.6194 -4.7958,-3.1717 -4.7958,-2.6194 L -4.7958,2.6194 C -4.7958,3.1717 -4.3481,3.6194 -3.7958,3.6194 L 3.7958,3.6194 C 4.3481,3.6194 4.7958,3.1717 4.7958,2.6194 z" />
<text id="y.req_lightgreen." transform="translate(-2.6458 -2.4694) " fill="#000000" x="0.0000" y="3.8806" font-size="3.5278" stroke="None">req</text>
<path stroke="#808080" stroke-width="0.3000" fill="None" d="M 4.7958,2.6194 L 4.7958,-2.6194 C 4.7958,-3.1717 4.3481,-3.6194 3.7958,-3.6194 L -3.7958,-3.6194 C -4.3481,-3.6194 -4.7958,-3.1717 -4.7958,-2.6194 L -4.7958,2.6194 C -4.7958,3.1717 -4.3481,3.6194 -3.7958,3.6194 L 3.7958,3.6194 C 4.3481,3.6194 4.7958,3.1717 4.7958,2.6194 z" />
</g>
</g>
<g id="pcbmq.fifo3g.fifo3g" transform="translate(0.0000 2.5176) ">
<g id="pcbmq.fifo3g." transform="translate(0.0000 1.0000) ">
<path stroke="None" fill="#90ee90" d="M 2.5749,-2.6071 L 2.5749,-2.2213 C 2.5749,-2.7736 2.1272,-3.2213 1.5749,-3.2213 L -1.5749,-3.2213 C -2.1272,-3.2213 -2.5749,-2.7736 -2.5749,-2.2213 L -2.5749,-2.6071 C -2.5749,-2.0548 -2.1272,-1.6071 -1.5749,-1.6071 L 1.5749,-1.6071 C 2.1272,-1.6071 2.5749,-2.0548 2.5749,-2.6071 z" />
<path id="pcbmq.fifo3g.i0" transform="translate(0.0000 -2.4142) " stroke="None" fill="None" stroke-width="0.0000" d="M 2.4749,0.7071 L 2.4749,-0.7071 L -2.4749,-0.7071 L -2.4749,0.7071 L 2.4749,0.7071 z" />
<path stroke="#808080" stroke-width="0.2000" fill="None" d="M 2.5749,-2.6071 L 2.5749,-2.2213 C 2.5749,-2.7736 2.1272,-3.2213 1.5749,-3.2213 L -1.5749,-3.2213 C -2.1272,-3.2213 -2.5749,-2.7736 -2.5749,-2.2213 L -2.5749,-2.6071 C -2.5749,-2.0548 -2.1272,-1.6071 -1.5749,-1.6071 L 1.5749,-1.6071 C 2.1272,-1.6071 2.5749,-2.0548 2.5749,-2.6071 z" />
<path stroke="None" fill="#90ee90" d="M 2.5749,-0.1929 L 2.5749,0.1929 C 2.5749,-0.3594 2.1272,-0.8071 1.5749,-0.8071 L -1.5749,-0.8071 C -2.1272,-0.8071 -2.5749,-0.3594 -2.5749,0.1929 L -2.5749,-0.1929 C -2.5749,0.3594 -2.1272,0.8071 -1.5749,0.8071 L 1.5749,0.8071 C 2.1272,0.8071 2.5749,0.3594 2.5749,-0.1929 z" />
<path id="pcbmq.fifo3g.i2" transform="translate(0.0000 0.0000) " stroke="None" fill="None" stroke-width="0.0000" d="M 2.4749,0.7071 L 2.4749,-0.7071 L -2.4749,-0.7071 L -2.4749,0.7071 L 2.4749,0.7071 z" />
<path stroke="#808080" stroke-width="0.2000" fill="None" d="M 2.5749,-0.1929 L 2.5749,0.1929 C 2.5749,-0.3594 2.1272,-0.8071 1.5749,-0.8071 L -1.5749,-0.8071 C -2.1272,-0.8071 -2.5749,-0.3594 -2.5749,0.1929 L -2.5749,-0.1929 C -2.5749,0.3594 -2.1272,0.8071 -1.5749,0.8071 L 1.5749,0.8071 C 2.1272,0.8071 2.5749,0.3594 2.5749,-0.1929 z" />
<path stroke="None" fill="#90ee90" d="M 2.5749,2.2213 L 2.5749,2.6071 C 2.5749,2.0548 2.1272,1.6071 1.5749,1.6071 L -1.5749,1.6071 C -2.1272,1.6071 -2.5749,2.0548 -2.5749,2.6071 L -2.5749,2.2213 C -2.5749,2.7736 -2.1272,3.2213 -1.5749,3.2213 L 1.5749,3.2213 C 2.1272,3.2213 2.5749,2.7736 2.5749,2.2213 z" />
<path id="pcbmq.fifo3g.i3" transform="translate(0.0000 2.4142) " stroke="None" fill="None" stroke-width="0.0000" d="M 2.4749,0.7071 L 2.4749,-0.7071 L -2.4749,-0.7071 L -2.4749,0.7071 L 2.4749,0.7071 z" />
<path stroke="#808080" stroke-width="0.2000" fill="None" d="M 2.5749,2.2213 L 2.5749,2.6071 C 2.5749,2.0548 2.1272,1.6071 1.5749,1.6071 L -1.5749,1.6071 C -2.1272,1.6071 -2.5749,2.0548 -2.5749,2.6071 L -2.5749,2.2213 C -2.5749,2.7736 -2.1272,3.2213 -1.5749,3.2213 L 1.5749,3.2213 C 2.1272,3.2213 2.5749,2.7736 2.5749,2.2213 z" />
</g>
<path stroke="#000000" stroke-width="0.4000" fill="None" d="M 3.7749,4.8213 L 3.7749,-4.8213 L -3.7749,-4.8213 L -3.7749,4.8213 L 3.7749,4.8213 z" />
</g>
<g id="pcnvmq.fifo3g.fifo3g" transform="translate(0.0000 12.5602) ">
<g id="pcnvmq.fifo3g." transform="translate(0.0000 1.0000) ">
<path stroke="None" fill="#90ee90" d="M 2.5749,-2.6071 L 2.5749,-2.2213 C 2.5749,-2.7736 2.1272,-3.2213 1.5749,-3.2213 L -1.5749,-3.2213 C -2.1272,-3.2213 -2.5749,-2.7736 -2.5749,-2.2213 L -2.5749,-2.6071 C -2.5749,-2.0548 -2.1272,-1.6071 -1.5749,-1.6071 L 1.5749,-1.6071 C 2.1272,-1.6071 2.5749,-2.0548 2.5749,-2.6071 z" />
<path id="pcnvmq.fifo3g.i0" transform="translate(0.0000 -2.4142) " stroke="None" fill="None" stroke-width="0.0000" d="M 2.4749,0.7071 L 2.4749,-0.7071 L -2.4749,-0.7071 L -2.4749,0.7071 L 2.4749,0.7071 z" />
<path stroke="#808080" stroke-width="0.2000" fill="None" d="M 2.5749,-2.6071 L 2.5749,-2.2213 C 2.5749,-2.7736 2.1272,-3.2213 1.5749,-3.2213 L -1.5749,-3.2213 C -2.1272,-3.2213 -2.5749,-2.7736 -2.5749,-2.2213 L -2.5749,-2.6071 C -2.5749,-2.0548 -2.1272,-1.6071 -1.5749,-1.6071 L 1.5749,-1.6071 C 2.1272,-1.6071 2.5749,-2.0548 2.5749,-2.6071 z" />
<path stroke="None" fill="#90ee90" d="M 2.5749,-0.1929 L 2.5749,0.1929 C 2.5749,-0.3594 2.1272,-0.8071 1.5749,-0.8071 L -1.5749,-0.8071 C -2.1272,-0.8071 -2.5749,-0.3594 -2.5749,0.1929 L -2.5749,-0.1929 C -2.5749,0.3594 -2.1272,0.8071 -1.5749,0.8071 L 1.5749,0.8071 C 2.1272,0.8071 2.5749,0.3594 2.5749,-0.1929 z" />
<path id="pcnvmq.fifo3g.i2" transform="translate(0.0000 0.0000) " stroke="None" fill="None" stroke-width="0.0000" d="M 2.4749,0.7071 L 2.4749,-0.7071 L -2.4749,-0.7071 L -2.4749,0.7071 L 2.4749,0.7071 z" />
<path stroke="#808080" stroke-width="0.2000" fill="None" d="M 2.5749,-0.1929 L 2.5749,0.1929 C 2.5749,-0.3594 2.1272,-0.8071 1.5749,-0.8071 L -1.5749,-0.8071 C -2.1272,-0.8071 -2.5749,-0.3594 -2.5749,0.1929 L -2.5749,-0.1929 C -2.5749,0.3594 -2.1272,0.8071 -1.5749,0.8071 L 1.5749,0.8071 C 2.1272,0.8071 2.5749,0.3594 2.5749,-0.1929 z" />
<path stroke="None" fill="#90ee90" d="M 2.5749,2.2213 L 2.5749,2.6071 C 2.5749,2.0548 2.1272,1.6071 1.5749,1.6071 L -1.5749,1.6071 C -2.1272,1.6071 -2.5749,2.0548 -2.5749,2.6071 L -2.5749,2.2213 C -2.5749,2.7736 -2.1272,3.2213 -1.5749,3.2213 L 1.5749,3.2213 C 2.1272,3.2213 2.5749,2.7736 2.5749,2.2213 z" />
<path id="pcnvmq.fifo3g.i3" transform="translate(0.0000 2.4142) " stroke="None" fill="None" stroke-width="0.0000" d="M 2.4749,0.7071 L 2.4749,-0.7071 L -2.4749,-0.7071 L -2.4749,0.7071 L 2.4749,0.7071 z" />
<path stroke="#808080" stroke-width="0.2000" fill="None" d="M 2.5749,2.2213 L 2.5749,2.6071 C 2.5749,2.0548 2.1272,1.6071 1.5749,1.6071 L -1.5749,1.6071 C -2.1272,1.6071 -2.5749,2.0548 -2.5749,2.6071 L -2.5749,2.2213 C -2.5749,2.7736 -2.1272,3.2213 -1.5749,3.2213 L 1.5749,3.2213 C 2.1272,3.2213 2.5749,2.7736 2.5749,2.2213 z" />
</g>
<path stroke="#000000" stroke-width="0.4000" fill="None" d="M 3.7749,4.8213 L 3.7749,-4.8213 L -3.7749,-4.8213 L -3.7749,4.8213 L 3.7749,4.8213 z" />
</g>
</g>
<g id="pi10io_t2.fifo3g.fifo3g" transform="translate(56.9971 18.4815) ">
<g id="pi10io_t2.fifo3g." transform="translate(0.0000 1.0000) ">
<path stroke="None" fill="#90ee90" d="M 2.5749,-2.6071 L 2.5749,-2.2213 C 2.5749,-2.7736 2.1272,-3.2213 1.5749,-3.2213 L -1.5749,-3.2213 C -2.1272,-3.2213 -2.5749,-2.7736 -2.5749,-2.2213 L -2.5749,-2.6071 C -2.5749,-2.0548 -2.1272,-1.6071 -1.5749,-1.6071 L 1.5749,-1.6071 C 2.1272,-1.6071 2.5749,-2.0548 2.5749,-2.6071 z" />
<path id="pi10io_t2.fifo3g.i0" transform="translate(0.0000 -2.4142) " stroke="None" fill="None" stroke-width="0.0000" d="M 2.4749,0.7071 L 2.4749,-0.7071 L -2.4749,-0.7071 L -2.4749,0.7071 L 2.4749,0.7071 z" />
<path stroke="#808080" stroke-width="0.2000" fill="None" d="M 2.5749,-2.6071 L 2.5749,-2.2213 C 2.5749,-2.7736 2.1272,-3.2213 1.5749,-3.2213 L -1.5749,-3.2213 C -2.1272,-3.2213 -2.5749,-2.7736 -2.5749,-2.2213 L -2.5749,-2.6071 C -2.5749,-2.0548 -2.1272,-1.6071 -1.5749,-1.6071 L 1.5749,-1.6071 C 2.1272,-1.6071 2.5749,-2.0548 2.5749,-2.6071 z" />
<path stroke="None" fill="#90ee90" d="M 2.5749,-0.1929 L 2.5749,0.1929 C 2.5749,-0.3594 2.1272,-0.8071 1.5749,-0.8071 L -1.5749,-0.8071 C -2.1272,-0.8071 -2.5749,-0.3594 -2.5749,0.1929 L -2.5749,-0.1929 C -2.5749,0.3594 -2.1272,0.8071 -1.5749,0.8071 L 1.5749,0.8071 C 2.1272,0.8071 2.5749,0.3594 2.5749,-0.1929 z" />
<path id="pi10io_t2.fifo3g.i2" transform="translate(0.0000 0.0000) " stroke="None" fill="None" stroke-width="0.0000" d="M 2.4749,0.7071 L 2.4749,-0.7071 L -2.4749,-0.7071 L -2.4749,0.7071 L 2.4749,0.7071 z" />
<path stroke="#808080" stroke-width="0.2000" fill="None" d="M 2.5749,-0.1929 L 2.5749,0.1929 C 2.5749,-0.3594 2.1272,-0.8071 1.5749,-0.8071 L -1.5749,-0.8071 C -2.1272,-0.8071 -2.5749,-0.3594 -2.5749,0.1929 L -2.5749,-0.1929 C -2.5749,0.3594 -2.1272,0.8071 -1.5749,0.8071 L 1.5749,0.8071 C 2.1272,0.8071 2.5749,0.3594 2.5749,-0.1929 z" />
<path stroke="None" fill="#90ee90" d="M 2.5749,2.2213 L 2.5749,2.6071 C 2.5749,2.0548 2.1272,1.6071 1.5749,1.6071 L -1.5749,1.6071 C -2.1272,1.6071 -2.5749,2.0548 -2.5749,2.6071 L -2.5749,2.2213 C -2.5749,2.7736 -2.1272,3.2213 -1.5749,3.2213 L 1.5749,3.2213 C 2.1272,3.2213 2.5749,2.7736 2.5749,2.2213 z" />
<path id="pi10io_t2.fifo3g.i3" transform="translate(0.0000 2.4142) " stroke="None" fill="None" stroke-width="0.0000" d="M 2.4749,0.7071 L 2.4749,-0.7071 L -2.4749,-0.7071 L -2.4749,0.7071 L 2.4749,0.7071 z" />
<path stroke="#808080" stroke-width="0.2000" fill="None" d="M 2.5749,2.2213 L 2.5749,2.6071 C 2.5749,2.0548 2.1272,1.6071 1.5749,1.6071 L -1.5749,1.6071 C -2.1272,1.6071 -2.5749,2.0548 -2.5749,2.6071 L -2.5749,2.2213 C -2.5749,2.7736 -2.1272,3.2213 -1.5749,3.2213 L 1.5749,3.2213 C 2.1272,3.2213 2.5749,2.7736 2.5749,2.2213 z" />
</g>
<path stroke="#000000" stroke-width="0.4000" fill="None" d="M 3.7749,4.8213 L 3.7749,-4.8213 L -3.7749,-4.8213 L -3.7749,4.8213 L 3.7749,4.8213 z" />
</g>
<g id="pi10txp_t2.fifo3g.fifo3g" transform="translate(56.9971 35.9112) ">
<g id="pi10txp_t2.fifo3g." transform="translate(0.0000 1.0000) ">
<path stroke="None" fill="#90ee90" d="M 2.5749,-2.6071 L 2.5749,-2.2213 C 2.5749,-2.7736 2.1272,-3.2213 1.5749,-3.2213 L -1.5749,-3.2213 C -2.1272,-3.2213 -2.5749,-2.7736 -2.5749,-2.2213 L -2.5749,-2.6071 C -2.5749,-2.0548 -2.1272,-1.6071 -1.5749,-1.6071 L 1.5749,-1.6071 C 2.1272,-1.6071 2.5749,-2.0548 2.5749,-2.6071 z" />
<path id="pi10txp_t2.fifo3g.i0" transform="translate(0.0000 -2.4142) " stroke="None" fill="None" stroke-width="0.0000" d="M 2.4749,0.7071 L 2.4749,-0.7071 L -2.4749,-0.7071 L -2.4749,0.7071 L 2.4749,0.7071 z" />
<path stroke="#808080" stroke-width="0.2000" fill="None" d="M 2.5749,-2.6071 L 2.5749,-2.2213 C 2.5749,-2.7736 2.1272,-3.2213 1.5749,-3.2213 L -1.5749,-3.2213 C -2.1272,-3.2213 -2.5749,-2.7736 -2.5749,-2.2213 L -2.5749,-2.6071 C -2.5749,-2.0548 -2.1272,-1.6071 -1.5749,-1.6071 L 1.5749,-1.6071 C 2.1272,-1.6071 2.5749,-2.0548 2.5749,-2.6071 z" />
<path stroke="None" fill="#90ee90" d="M 2.5749,-0.1929 L 2.5749,0.1929 C 2.5749,-0.3594 2.1272,-0.8071 1.5749,-0.8071 L -1.5749,-0.8071 C -2.1272,-0.8071 -2.5749,-0.3594 -2.5749,0.1929 L -2.5749,-0.1929 C -2.5749,0.3594 -2.1272,0.8071 -1.5749,0.8071 L 1.5749,0.8071 C 2.1272,0.8071 2.5749,0.3594 2.5749,-0.1929 z" />
<path id="pi10txp_t2.fifo3g.i2" transform="translate(0.0000 0.0000) " stroke="None" fill="None" stroke-width="0.0000" d="M 2.4749,0.7071 L 2.4749,-0.7071 L -2.4749,-0.7071 L -2.4749,0.7071 L 2.4749,0.7071 z" />
<path stroke="#808080" stroke-width="0.2000" fill="None" d="M 2.5749,-0.1929 L 2.5749,0.1929 C 2.5749,-0.3594 2.1272,-0.8071 1.5749,-0.8071 L -1.5749,-0.8071 C -2.1272,-0.8071 -2.5749,-0.3594 -2.5749,0.1929 L -2.5749,-0.1929 C -2.5749,0.3594 -2.1272,0.8071 -1.5749,0.8071 L 1.5749,0.8071 C 2.1272,0.8071 2.5749,0.3594 2.5749,-0.1929 z" />
<path stroke="None" fill="#90ee90" d="M 2.5749,2.2213 L 2.5749,2.6071 C 2.5749,2.0548 2.1272,1.6071 1.5749,1.6071 L -1.5749,1.6071 C -2.1272,1.6071 -2.5749,2.0548 -2.5749,2.6071 L -2.5749,2.2213 C -2.5749,2.7736 -2.1272,3.2213 -1.5749,3.2213 L 1.5749,3.2213 C 2.1272,3.2213 2.5749,2.7736 2.5749,2.2213 z" />
<path id="pi10txp_t2.fifo3g.i3" transform="translate(0.0000 2.4142) " stroke="None" fill="None" stroke-width="0.0000" d="M 2.4749,0.7071 L 2.4749,-0.7071 L -2.4749,-0.7071 L -2.4749,0.7071 L 2.4749,0.7071 z" />
<path stroke="#808080" stroke-width="0.2000" fill="None" d="M 2.5749,2.2213 L 2.5749,2.6071 C 2.5749,2.0548 2.1272,1.6071 1.5749,1.6071 L -1.5749,1.6071 C -2.1272,1.6071 -2.5749,2.0548 -2.5749,2.6071 L -2.5749,2.2213 C -2.5749,2.7736 -2.1272,3.2213 -1.5749,3.2213 L 1.5749,3.2213 C 2.1272,3.2213 2.5749,2.7736 2.5749,2.2213 z" />
</g>
<path stroke="#000000" stroke-width="0.4000" fill="None" d="M 3.7749,4.8213 L 3.7749,-4.8213 L -3.7749,-4.8213 L -3.7749,4.8213 L 3.7749,4.8213 z" />
</g>
</g>
</g>
</svg>