<?xml version="1.0" encoding="UTF-8"?>
<svg xmlns:svg="http://www.w3.org/2000/svg" xmlns="http://www.w3.org/2000/svg" version="2.0" width="84.03875471609678mm" height="85.9942329745459mm" viewBox="-42.01937735804839 -42.99711648727295 84.03875471609678 85.9942329745459">
<defs />
<g>
<path id="big.big.big.blob.blob" transform="translate(-1.9806 0.0000) " stroke="#800080" fill="#ff0000" stroke-width="0.0000" d="M 22.5242,10.8471 L 40.0000,0.0000 L 22.5242,-10.8471 L 24.9396,-31.2733 L 5.5630,-24.3732 L -8.9008,-38.9971 L -15.5872,-19.5458 L -36.0388,-17.3553 L -25.0000,-0.0000 L -36.0388,17.3553 L -15.5872,19.5458 L -8.9008,38.9971 L 5.5630,24.3732 L 24.9396,31.2733 L 22.5242,10.8471 z" />
<path stroke="#008000" stroke-width="4.0000" fill="None" d="M 40.0194,40.9971 L 40.0194,-40.9971 L -40.0194,-40.9971 L -40.0194,40.9971 L 40.0194,40.9971 z" />
<path id="medium0.medium.medium.blob.blob" transform="translate(-28.0194 -29.2478) " stroke="#800080" fill="#ffff00" stroke-width="0.0000" d="M 9.0097,4.3388 L 5.0000,0.0000 L 9.0097,-4.3388 L 3.1174,-3.9092 L 2.2252,-9.7493 L -1.1126,-4.8746 L -6.2349,-7.8183 L -4.5048,-2.1694 L -10.0000,-0.0000 L -4.5048,2.1694 L -6.2349,7.8183 L -1.1126,4.8746 L 2.2252,9.7493 L 3.1174,3.9092 L 9.0097,4.3388 z" />
<path stroke="#008000" stroke-width="4.0000" fill="None" d="M 40.0194,40.9971 L 40.0194,-40.9971 L -40.0194,-40.9971 L -40.0194,40.9971 L 40.0194,40.9971 z" />
<path id="medium1.medium.medium.blob.blob" transform="translate(0.4952 -29.2478) " stroke="#800080" fill="#ffff00" stroke-width="0.0000" d="M 9.0097,4.3388 L 5.0000,0.0000 L 9.0097,-4.3388 L 3.1174,-3.9092 L 2.2252,-9.7493 L -1.1126,-4.8746 L -6.2349,-7.8183 L -4.5048,-2.1694 L -10.0000,-0.0000 L -4.5048,2.1694 L -6.2349,7.8183 L -1.1126,4.8746 L 2.2252,9.7493 L 3.1174,3.9092 L 9.0097,4.3388 z" />
<path stroke="#008000" stroke-width="4.0000" fill="None" d="M 40.0194,40.9971 L 40.0194,-40.9971 L -40.0194,-40.9971 L -40.0194,40.9971 L 40.0194,40.9971 z" />
<path id="medium2.medium.medium.blob.blob" transform="translate(29.0097 -29.2478) " stroke="#800080" fill="#ffff00" stroke-width="0.0000" d="M 9.0097,4.3388 L 5.0000,0.0000 L 9.0097,-4.3388 L 3.1174,-3.9092 L 2.2252,-9.7493 L -1.1126,-4.8746 L -6.2349,-7.8183 L -4.5048,-2.1694 L -10.0000,-0.0000 L -4.5048,2.1694 L -6.2349,7.8183 L -1.1126,4.8746 L 2.2252,9.7493 L 3.1174,3.9092 L 9.0097,4.3388 z" />
<path stroke="#008000" stroke-width="4.0000" fill="None" d="M 40.0194,40.9971 L 40.0194,-40.9971 L -40.0194,-40.9971 L -40.0194,40.9971 L 40.0194,40.9971 z" />
<path id="medium3.medium.medium.blob.blob" transform="translate(-28.0194 0.0000) " stroke="#800080" fill="#ffff00" stroke-width="0.0000" d="M 9.0097,4.3388 L 5.0000,0.0000 L 9.0097,-4.3388 L 3.1174,-3.9092 L 2.2252,-9.7493 L -1.1126,-4.8746 L -6.2349,-7.8183 L -4.5048,-2.1694 L -10.0000,-0.0000 L -4.5048,2.1694 L -6.2349,7.8183 L -1.1126,4.8746 L 2.2252,9.7493 L 3.1174,3.9092 L 9.0097,4.3388 z" />
<path stroke="#008000" stroke-width="4.0000" fill="None" d="M 40.0194,40.9971 L 40.0194,-40.9971 L -40.0194,-40.9971 L -40.0194,40.9971 L 40.0194,40.9971 z" />
<path id="medium4.medium.medium.blob.blob" transform="translate(0.4952 0.0000) " stroke="#800080" fill="#ffff00" stroke-width="0.0000" d="M 9.0097,4.3388 L 5.0000,0.0000 L 9.0097,-4.3388 L 3.1174,-3.9092 L 2.2252,-9.7493 L -1.1126,-4.8746 L -6.2349,-7.8183 L -4.5048,-2.1694 L -10.0000,-0.0000 L -4.5048,2.1694 L -6.2349,7.8183 L -1.1126,4.8746 L 2.2252,9.7493 L 3.1174,3.9092 L 9.0097,4.3388 z" />
<path stroke="#008000" stroke-width="4.0000" fill="None" d="M 40.0194,40.9971 L 40.0194,-40.9971 L -40.0194,-40.9971 L -40.0194,40.9971 L 40.0194,40.9971 z" />
<path id="medium5.medium.medium.blob.blob" transform="translate(29.0097 0.0000) " stroke="#800080" fill="#ffff00" stroke-width="0.0000" d="M 9.0097,4.3388 L 5.0000,0.0000 L 9.0097,-4.3388 L 3.1174,-3.9092 L 2.2252,-9.7493 L -1.1126,-4.8746 L -6.2349,-7.8183 L -4.5048,-2.1694 L -10.0000,-0.0000 L -4.5048,2.1694 L -6.2349,7.8183 L -1.1126,4.8746 L 2.2252,9.7493 L 3.1174,3.9092 L 9.0097,4.3388 z" />
<path stroke="#008000" stroke-width="4.0000" fill="None" d="M 40.0194,40.9971 L 40.0194,-40.9971 L -40.0194,-40.9971 L -40.0194,40.9971 L 40.0194,40.9971 z" />
<path id="medium6.medium.medium.blob.blob" transform="translate(-28.0194 29.2478) " stroke="#800080" fill="#ffff00" stroke-width="0.0000" d="M 9.0097,4.3388 L 5.0000,0.0000 L 9.0097,-4.3388 L 3.1174,-3.9092 L 2.2252,-9.7493 L -1.1126,-4.8746 L -6.2349,-7.8183 L -4.5048,-2.1694 L -10.0000,-0.0000 L -4.5048,2.1694 L -6.2349,7.8183 L -1.1126,4.8746 L 2.2252,9.7493 L 3.1174,3.9092 L 9.0097,4.3388 z" />
<path stroke="#008000" stroke-width="4.0000" fill="None" d="M 40.0194,40.9971 L 40.0194,-40.9971 L -40.0194,-40.9971 L -40.0194,40.9971 L 40.0194,40.9971 z" />
<path id="medium7.medium.medium.blob.blob" transform="translate(0.4952 29.2478) " stroke="#800080" fill="#ffff00" stroke-width="0.0000" d="M 9.0097,4.3388 L 5.0000,0.0000 L 9.0097,-4.3388 L 3.1174,-3.9092 L 2.2252,-9.7493 L -1.1126,-4.8746 L -6.2349,-7.8183 L -4.5048,-2.1694 L -10.0000,-0.0000 L -4.5048,2.1694 L -6.2349,7.8183 L -1.1126,4.8746 L 2.2252,9.7493 L 3.1174,3.9092 L 9.0097,4.3388 z" />
<path stroke="#008000" stroke-width="4.0000" fill="None" d="M 40.0194,40.9971 L 40.0194,-40.9971 L -40.0194,-40.9971 L -40.0194,40.9971 L 40.0194,40.9971 z" />
<path id="medium8.medium.medium.blob.blob" transform="translate(29.0097 29.2478) " stroke="#800080" fill="#ffff00" stroke-width="0.0000" d="M 9.0097,4.3388 L 5.0000,0.0000 L 9.0097,-4.3388 L 3.1174,-3.9092 L 2.2252,-9.7493 L -1.1126,-4.8746 L -6.2349,-7.8183 L -4.5048,-2.1694 L -10.0000,-0.0000 L -4.5048,2.1694 L -6.2349,7.8183 L -1.1126,4.8746 L 2.2252,9.7493 L 3.1174,3.9092 L 9.0097,4.3388 z" />
<path stroke="#008000" stroke-width="4.0000" fill="None" d="M 40.0194,40.9971 L 40.0194,-40.9971 L -40.0194,-40.9971 L -40.0194,40.9971 L 40.0194,40.9971 z" />
<path id="small0.small.small.blob.blob" transform="translate(-33.0194 -34.1225) " stroke="#800080" fill="#ffa500" stroke-width="0.0000" d="M 4.5048,2.1694 L 5.0000,0.0000 L 4.5048,-2.1694 L 3.1174,-3.9092 L 1.1126,-4.8746 L -1.1126,-4.8746 L -3.1174,-3.9092 L -4.5048,-2.1694 L -5.0000,-0.0000 L -4.5048,2.1694 L -3.1174,3.9092 L -1.1126,4.8746 L 1.1126,4.8746 L 3.1174,3.9092 L 4.5048,2.1694 z" />
<path stroke="#008000" stroke-width="4.0000" fill="None" d="M 40.0194,40.9971 L 40.0194,-40.9971 L -40.0194,-40.9971 L -40.0194,40.9971 L 40.0194,40.9971 z" />
<path id="small1.small.small.blob.blob" transform="translate(0.0000 -34.1225) " stroke="#800080" fill="#ffa500" stroke-width="0.0000" d="M 4.5048,2.1694 L 5.0000,0.0000 L 4.5048,-2.1694 L 3.1174,-3.9092 L 1.1126,-4.8746 L -1.1126,-4.8746 L -3.1174,-3.9092 L -4.5048,-2.1694 L -5.0000,-0.0000 L -4.5048,2.1694 L -3.1174,3.9092 L -1.1126,4.8746 L 1.1126,4.8746 L 3.1174,3.9092 L 4.5048,2.1694 z" />
<path stroke="#008000" stroke-width="4.0000" fill="None" d="M 40.0194,40.9971 L 40.0194,-40.9971 L -40.0194,-40.9971 L -40.0194,40.9971 L 40.0194,40.9971 z" />
<path id="small2.small.small.blob.blob" transform="translate(33.0194 -34.1225) " stroke="#800080" fill="#ffa500" stroke-width="0.0000" d="M 4.5048,2.1694 L 5.0000,0.0000 L 4.5048,-2.1694 L 3.1174,-3.9092 L 1.1126,-4.8746 L -1.1126,-4.8746 L -3.1174,-3.9092 L -4.5048,-2.1694 L -5.0000,-0.0000 L -4.5048,2.1694 L -3.1174,3.9092 L -1.1126,4.8746 L 1.1126,4.8746 L 3.1174,3.9092 L 4.5048,2.1694 z" />
<path stroke="#008000" stroke-width="4.0000" fill="None" d="M 40.0194,40.9971 L 40.0194,-40.9971 L -40.0194,-40.9971 L -40.0194,40.9971 L 40.0194,40.9971 z" />
<path id="small3.small.small.blob.blob" transform="translate(-33.0194 0.0000) " stroke="#800080" fill="#ffa500" stroke-width="0.0000" d="M 4.5048,2.1694 L 5.0000,0.0000 L 4.5048,-2.1694 L 3.1174,-3.9092 L 1.1126,-4.8746 L -1.1126,-4.8746 L -3.1174,-3.9092 L -4.5048,-2.1694 L -5.0000,-0.0000 L -4.5048,2.1694 L -3.1174,3.9092 L -1.1126,4.8746 L 1.1126,4.8746 L 3.1174,3.9092 L 4.5048,2.1694 z" />
<path stroke="#008000" stroke-width="4.0000" fill="None" d="M 40.0194,40.9971 L 40.0194,-40.9971 L -40.0194,-40.9971 L -40.0194,40.9971 L 40.0194,40.9971 z" />
<path id="small4.small.small.blob.blob" stroke="#800080" fill="#ffa500" stroke-width="0.0000" d="M 4.5048,2.1694 L 5.0000,0.0000 L 4.5048,-2.1694 L 3.1174,-3.9092 L 1.1126,-4.8746 L -1.1126,-4.8746 L -3.1174,-3.9092 L -4.5048,-2.1694 L -5.0000,-0.0000 L -4.5048,2.1694 L -3.1174,3.9092 L -1.1126,4.8746 L 1.1126,4.8746 L 3.1174,3.9092 L 4.5048,2.1694 z" />
<path stroke="#008000" stroke-width="4.0000" fill="None" d="M 40.0194,40.9971 L 40.0194,-40.9971 L -40.0194,-40.9971 L -40.0194,40.9971 L 40.0194,40.9971 z" />
<path id="small5.small.small.blob.blob" transform="translate(33.0194 0.0000) " stroke="#800080" fill="#ffa500" stroke-width="0.0000" d="M 4.5048,2.1694 L 5.0000,0.0000 L 4.5048,-2.1694 L 3.1174,-3.9092 L 1.1126,-4.8746 L -1.1126,-4.8746 L -3.1174,-3.9092 L -4.5048,-2.1694 L -5.0000,-0.0000 L -4.5048,2.1694 L -3.1174,3.9092 L -1.1126,4.8746 L 1.1126,4.8746 L 3.1174,3.9092 L 4.5048,2.1694 z" />
<path stroke="#008000" stroke-width="4.0000" fill="None" d="M 40.0194,40.9971 L 40.0194,-40.9971 L -40.0194,-40.9971 L -40.0194,40.9971 L 40.0194,40.9971 z" />
<path id="small6.small.small.blob.blob" transform="translate(-33.0194 34.1225) " stroke="#800080" fill="#ffa500" stroke-width="0.0000" d="M 4.5048,2.1694 L 5.0000,0.0000 L 4.5048,-2.1694 L 3.1174,-3.9092 L 1.1126,-4.8746 L -1.1126,-4.8746 L -3.1174,-3.9092 L -4.5048,-2.1694 L -5.0000,-0.0000 L -4.5048,2.1694 L -3.1174,3.9092 L -1.1126,4.8746 L 1.1126,4.8746 L 3.1174,3.9092 L 4.5048,2.1694 z" />
<path stroke="#008000" stroke-width="4.0000" fill="None" d="M 40.0194,40.9971 L 40.0194,-40.9971 L -40.0194,-40.9971 L -40.0194,40.9971 L 40.0194,40.9971 z" />
<path id="small7.small.small.blob.blob" transform="translate(0.0000 34.1225) " stroke="#800080" fill="#ffa500" stroke-width="0.0000" d="M 4.5048,2.1694 L 5.0000,0.0000 L 4.5048,-2.1694 L 3.1174,-3.9092 L 1.1126,-4.8746 L -1.1126,-4.8746 L -3.1174,-3.9092 L -4.5048,-2.1694 L -5.0000,-0.0000 L -4.5048,2.1694 L -3.1174,3.9092 L -1.1126,4.8746 L 1.1126,4.8746 L 3.1174,3.9092 L 4.5048,2.1694 z" />
<path stroke="#008000" stroke-width="4.0000" fill="None" d="M 40.0194,40.9971 L 40.0194,-40.9971 L -40.0194,-40.9971 L -40.0194,40.9971 L 40.0194,40.9971 z" />
<path id="small8.small.small.blob.blob" transform="translate(33.0194 34.1225) " stroke="#800080" fill="#ffa500" stroke-width="0.0000" d="M 4.5048,2.1694 L 5.0000,0.0000 L 4.5048,-2.1694 L 3.1174,-3.9092 L 1.1126,-4.8746 L -1.1126,-4.8746 L -3.1174,-3.9092 L -4.5048,-2.1694 L -5.0000,-0.0000 L -4.5048,2.1694 L -3.1174,3.9092 L -1.1126,4.8746 L 1.1126,4.8746 L 3.1174,3.9092 L 4.5048,2.1694 z" />
<path stroke="#008000" stroke-width="4.0000" fill="None" d="M 40.0194,40.9971 L 40.0194,-40.9971 L -40.0194,-40.9971 L -40.0194,40.9971 L 40.0194,40.9971 z" />
</g>
</svg>