<?xml version="1.0" encoding="UTF-8"?>
<svg xmlns:svg="http://www.w3.org/2000/svg" xmlns="http://www.w3.org/2000/svg" version="2.0" width="60mm" height="59.99999999999999mm" viewBox="-30 -29.999999999999996 60 59.99999999999999">
<defs />
<g>
<path id="c" transform="translate(0.0000 -0.0000) " stroke="None" fill="#ff0000" stroke-width="0.0000" d="M 15.0000,0.0000 C 15.0000,8.3572 8.3572,15.0000 0.0000,15.0000 C -8.3572,15.0000 -15.0000,8.3572 -15.0000,0.0000 C -15.0000,-8.3572 -8.3572,-15.0000 -0.0000,-15.0000 C 8.3572,-15.0000 15.0000,-8.3572 15.0000,-0.0000 z" />
<path id="r0" transform="translate(0.0000 -22.5000) " stroke="None" fill="#ff0000" stroke-width="0.0000" d="M 15.0000,7.5000 L 15.0000,-7.5000 L -15.0000,-7.5000 L -15.0000,7.5000 L 15.0000,7.5000 z" />
<path id="r10" transform="translate(-22.5000 -0.0000) " stroke="None" fill="#ff0000" stroke-width="0.0000" d="M 7.5000,15.0000 L 7.5000,-15.0000 L -7.5000,-15.0000 L -7.5000,15.0000 L 7.5000,15.0000 z" />
<path id="r12" transform="translate(22.5000 -0.0000) " stroke="None" fill="#ff0000" stroke-width="0.0000" d="M 7.5000,15.0000 L 7.5000,-15.0000 L -7.5000,-15.0000 L -7.5000,15.0000 L 7.5000,15.0000 z" />
<path id="r2" transform="translate(0.0000 22.5000) " stroke="None" fill="#ff0000" stroke-width="0.0000" d="M 15.0000,7.5000 L 15.0000,-7.5000 L -15.0000,-7.5000 L -15.0000,7.5000 L 15.0000,7.5000 z" />
<path id="cr" transform="translate(0.0000 -0.0000) rotate(90.0000) " stroke="None" fill="#0000ff" stroke-width="0.0000" d="M 13.5000,0.0000 C 13.5000,7.5215 7.5215,13.5000 0.0000,13.5000 C -7.5215,13.5000 -13.5000,7.5215 -13.5000,0.0000 C -13.5000,-7.5215 -7.5215,-13.5000 -0.0000,-13.5000 C 7.5215,-13.5000 13.5000,-7.5215 13.5000,-0.0000 z" />
<g transform="translate(0.0000 -0.0000) ">
<text id="t" transform="translate(-1.7639 -2.4694) " fill="#ff0000" x="0.0000" y="3.8806" font-size="3.5278" stroke="None">**</text>
<path stroke="#00ff00" stroke-width="0.5000" fill="None" d="M 2.0139,2.7194 L 2.0139,-2.7194 L -2.0139,-2.7194 L -2.0139,2.7194 L 2.0139,2.7194 z" />
</g>
<path stroke="#00ff00" stroke-width="0.5000" fill="None" d="M 14.7500,14.7500 L 14.7500,-14.7500 L -14.7500,-14.7500 L -14.7500,14.7500 L 14.7500,14.7500 z" />
<g transform="translate(0.0000 -0.0000) ">
<text id="tr" transform="translate(-1.7639 -2.4694) rotate(45.0000) " fill="#ffff00" x="0.0000" y="3.8806" font-size="3.5278" stroke="None">**</text>
<path stroke="#00ff00" stroke-width="0.5000" fill="None" d="M 3.2434,3.2434 L 3.2434,-3.2434 L -3.2434,-3.2434 L -3.2434,3.2434 L 3.2434,3.2434 z" />
</g>
<path stroke="#00ff00" stroke-width="0.5000" fill="None" d="M 14.7500,14.7500 L 14.7500,-14.7500 L -14.7500,-14.7500 L -14.7500,14.7500 L 14.7500,14.7500 z" />
</g>
</svg>