<?xml version="1.0" encoding="UTF-8"?>
<svg xmlns:svg="http://www.w3.org/2000/svg" xmlns="http://www.w3.org/2000/svg" version="2.0" width="21.555555555555557mm" height="11.783333333333331mm" viewBox="-10.777777777777779 -5.891666666666666 21.555555555555557 11.783333333333331">
<defs>
<marker id="arrow" viewBox="0 0 10 10" refX="5" refY="5" markerWidth="6" markerHeight="6" markerUnits="strokeWidth" orient="auto">
<path fill="context-stroke" d="M 0 0 L 10 5 L 0 10 z" />
</marker>
<marker id="dot" viewBox="0 0 10 10" refX="5" refY="5" markerWidth="5" markerHeight="5" markerUnits="strokeWidth">
<circle cx="5" cy="5" r="5" fill="context-stroke" />
</marker>
</defs>
<g>
<g>
<g transform="translate(-7.7083 0.0000) rotate(90.0000) ">
<text transform="translate(-5.2917 -2.4694) " fill="#000000" x="0.0000" y="3.8806" font-size="3.5278" stroke="None">Text 1</text>
<path stroke="#ffa500" stroke-width="0.1000" fill="None" d="M 5.3417,2.5194 L 5.3417,-2.5194 L -5.3417,-2.5194 L -5.3417,2.5194 L 5.3417,2.5194 z" />
</g>
<path stroke="#ff0000" stroke-width="0.2000" fill="None" d="M -5.0389,5.4917 L -5.0389,-5.4917 L -10.3778,-5.4917 L -10.3778,5.4917 L -5.0389,5.4917 z" />
<text transform="translate(0.1000 -5.2917) rotate(90.0000) " fill="#000000" x="0.0000" y="3.8806" font-size="3.5278" stroke="None">Text 2</text>
<path stroke="#ffff00" stroke-width="0.1000" fill="None" d="M 0.1500,5.5417 L 0.1500,-5.5417 L -4.8889,-5.5417 L -4.8889,5.5417 L 0.1500,5.5417 z" />
<text transform="translate(5.2389 -5.2917) rotate(90.0000) " fill="#000000" x="0.0000" y="3.8806" font-size="3.5278" stroke="None">Text 3</text>
<path stroke="#ffff00" stroke-width="0.1000" fill="None" d="M 5.2889,5.5417 L 5.2889,-5.5417 L 0.2500,-5.5417 L 0.2500,5.5417 L 5.2889,5.5417 z" />
<text transform="translate(10.3778 -5.2917) rotate(90.0000) " fill="#000000" x="0.0000" y="3.8806" font-size="3.5278" stroke="None">Text 4</text>
<path stroke="#ffff00" stroke-width="0.1000" fill="None" d="M 10.4278,5.5417 L 10.4278,-5.5417 L 5.3889,-5.5417 L 5.3889,5.5417 L 10.4278,5.5417 z" />
</g>
<path stroke="#800080" stroke-width="0.3000" fill="None" d="M 10.6278,5.7417 L 10.6278,-5.7417 L -10.6278,-5.7417 L -10.6278,5.7417 L 10.6278,5.7417 z" />
</g>
</svg>