<?xml version="1.0" encoding="UTF-8"?>
<svg xmlns:svg="http://www.w3.org/2000/svg" xmlns="http://www.w3.org/2000/svg" version="2.0" width="45.19584353997511mm" height="51.91319171814689mm" viewBox="-22.597921769987554 -25.956595859073445 45.19584353997511 51.91319171814689">
<defs />
<g>
<text transform="translate(-12.3472 -25.8566) " fill="#000000" x="0.0000" y="3.8806" font-size="3.5278" stroke="None">Outermost text</text>
<path stroke="#ffff00" stroke-width="0.1000" fill="None" d="M 22.5479,-20.8677 L 22.5479,-25.9066 L -22.5479,-25.9066 L -22.5479,-20.8677 L 22.5479,-20.8677 z" />
<g transform="translate(0.0000 2.5694) rotate(30.0000) ">
<text transform="translate(-10.5833 -17.5902) " fill="#ff0000" x="0.0000" y="3.8806" font-size="3.5278" stroke="None">First layout</text>
<path stroke="#ffff00" stroke-width="0.1000" fill="None" d="M 15.4840,-12.6013 L 15.4840,-17.6402 L -15.4840,-17.6402 L -15.4840,-12.6013 L 15.4840,-12.6013 z" />
<g transform="translate(0.0000 2.5694) rotate(30.0000) ">
<text transform="translate(-11.4653 -10.3363) " fill="#008000" x="0.0000" y="3.8806" font-size="3.5278" stroke="None">Second layout</text>
<path stroke="#ffff00" stroke-width="0.1000" fill="None" d="M 11.5153,-5.3474 L 11.5153,-10.3863 L -11.5153,-10.3863 L -11.5153,-5.3474 L 11.5153,-5.3474 z" />
<g transform="translate(0.0000 2.5694) rotate(30.0000) ">
<text transform="translate(-10.5833 -2.4694) " fill="#0000ff" x="0.0000" y="3.8806" font-size="3.5278" stroke="None">Third layout</text>
<path stroke="#ffff00" stroke-width="0.1000" fill="None" d="M 10.6333,2.5194 L 10.6333,-2.5194 L -10.6333,-2.5194 L -10.6333,2.5194 L 10.6333,2.5194 z" />
</g>
<path stroke="#800080" stroke-width="0.3000" fill="None" d="M 11.4153,10.2863 L 11.4153,-5.1474 L -11.4153,-5.1474 L -11.4153,10.2863 L 11.4153,10.2863 z" />
</g>
<path stroke="#800080" stroke-width="0.3000" fill="None" d="M 15.3840,17.5402 L 15.3840,-12.4013 L -15.3840,-12.4013 L -15.3840,17.5402 L 15.3840,17.5402 z" />
</g>
<path stroke="#800080" stroke-width="0.3000" fill="None" d="M 22.4479,25.8066 L 22.4479,-20.6677 L -22.4479,-20.6677 L -22.4479,25.8066 L 22.4479,25.8066 z" />
</g>
</svg>