<?xml version="1.0" encoding="UTF-8"?>
<svg xmlns:svg="http://www.w3.org/2000/svg" xmlns="http://www.w3.org/2000/svg" version="2.0" width="60mm" height="59.99999999999999mm" viewBox="-30 -29.999999999999996 60 59.99999999999999">
<defs>
<marker id="arrow" viewBox="0 0 10 10" refX="5" refY="5" markerWidth="6" markerHeight="6" markerUnits="strokeWidth" orient="auto">
<path fill="context-stroke" d="M 0 0 L 10 5 L 0 10 z" />
</marker>
<marker id="dot" viewBox="0 0 10 10" refX="5" refY="5" markerWidth="5" markerHeight="5" markerUnits="strokeWidth">
<circle cx="5" cy="5" r="5" fill="context-stroke" />
</marker>
</defs>
<g>
<path id="c" transform="translate(0.0000 -0.0000) " stroke="None" fill="#ff0000" stroke-width="0.0000" d="M 15.0000,0.0000 C 15.0000,8.2843 8.2843,15.0000 0.0000,15.0000 C -8.2843,15.0000 -15.0000,8.2843 -15.0000,0.0000 C -15.0000,-8.2843 -8.2843,-15.0000 -0.0000,-15.0000 C 8.2843,-15.0000 15.0000,-8.2843 15.0000,-0.0000 z" />
<path id="r0" transform="translate(0.0000 -22.5000) " stroke="None" fill="#ff0000" stroke-width="0.0000" d="M 15.0000,7.5000 L 15.0000,-7.5000 L -15.0000,-7.5000 L -15.0000,7.5000 L 15.0000,7.5000 z" />
<path id="r10" transform="translate(-22.5000 -0.0000) " stroke="None" fill="#ff0000" stroke-width="0.0000" d="M 7.5000,15.0000 L 7.5000,-15.0000 L -7.5000,-15.0000 L -7.5000,15.0000 L 7.5000,15.0000 z" />
<path id="r12" transform="translate(22.5000 -0.0000) " stroke="None" fill="#ff0000" stroke-width="0.0000" d="M 7.5000,15.0000 L 7.5000,-15.0000 L -7.5000,-15.0000 L -7.5000,15.0000 L 7.5000,15.0000 z" />
<path id="r2" transform="translate(0.0000 22.5000) " stroke="None" fill="#ff0000" stroke-width="0.0000" d="M 15.0000,7.5000 L 15.0000,-7.5000 L -15.0000,-7.5000 L -15.0000,7.5000 L 15.0000,7.5000 z" />
<path id="cr" transform="translate(0.0000 -0.0000) rotate(90.0000) " stroke="None" fill="#0000ff" stroke-width="0.0000" d="M 13.5000,0.0000 C 13.5000,7.4558 7.4558,13.5000 0.0000,13.5000 C -7.4558,13.5000 -13.5000,7.4558 -13.5000,0.0000 C -13.5000,-7.4558 -7.4558,-13.5000 -0.0000,-13.5000 C 7.4558,-13.5000 13.5000,-7.4558 13.5000,-0.0000 z" />
<g transform="translate(0.0000 -0.0000) ">
<text id="t" transform="translate(-1.7639 -2.4694) " fill="#ff0000" x="0.0000" y="3.8806" font-size="3.5278" stroke="None">**</text>
<path stroke="#00ff00" stroke-width="0.5000" fill="None" d="M 2.0139,2.7194 L 2.0139,-2.7194 L -2.0139,-2.7194 L -2.0139,2.7194 L 2.0139,2.7194 z" />
</g>
<path stroke="#00ff00" stroke-width="0.5000" fill="None" d="M 14.7500,14.7500 L 14.7500,-14.7500 L -14.7500,-14.7500 L -14.7500,14.7500 L 14.7500,14.7500 z" />
<g transform="translate(0.0000 -0.0000) ">
<text id="tr" transform="translate(0.4989 -2.9934) rotate(45.0000) " fill="#ffff00" x="0.0000" y="3.8806" font-size="3.5278" stroke="None">**</text>
<path stroke="#00ff00" stroke-width="0.5000" fill="None" d="M 3.2434,3.2434 L 3.2434,-3.2434 L -3.2434,-3.2434 L -3.2434,3.2434 L 3.2434,3.2434 z" />
</g>
<path stroke="#00ff00" stroke-width="0.5000" fill="None" d="M 14.7500,14.7500 L 14.7500,-14.7500 L -14.7500,-14.7500 L -14.7500,14.7500 L 14.7500,14.7500 z" />
</g>
</svg>