<?xml version="1.0" encoding="UTF-8"?>
<svg xmlns:svg="http://www.w3.org/2000/svg" xmlns="http://www.w3.org/2000/svg" version="2.0" width="115.0625023221934mm" height="112mm" viewBox="-57.5312511610967 -56 115.0625023221934 112">
<defs />
<g>
<path stroke="None" fill="#ffff00" d="M 17.5313,16.0000 L 17.5313,-16.0000 L -17.5313,-16.0000 L -17.5313,16.0000 L 17.5313,16.0000 z" />
<path transform="translate(0.0000 0.0000) " stroke="None" fill="None" stroke-width="0.0000" d="M 0.3536,0.3536 L 0.3536,-0.3536 L -0.3536,-0.3536 L -0.3536,0.3536 L 0.3536,0.3536 z" />
<path stroke="None" fill="#ff0000" d="M -43.0313,-28.0000 L -43.0313,-56.0000 L -57.5313,-56.0000 L -57.5313,-28.0000 L -43.0313,-28.0000 z" />
<path id="a" transform="translate(-48.0313 -42.0000) " stroke="#ffff00" fill="#0000ff" stroke-width="1.0000" d="M 4.5000,8.6603 L 4.5000,-8.6603 L -9.0000,-0.0000 L 4.5000,8.6603 z" />
<path stroke="#000000" stroke-width="0.0000" fill="None" d="M -43.0313,-28.0000 L -43.0313,-56.0000 L -57.5313,-56.0000 L -57.5313,-28.0000 L -43.0313,-28.0000 z" />
<path transform="translate(-31.9602 -42.0000) " stroke="None" fill="#ffc0cb" stroke-width="0.0000" d="M 7.0711,7.0711 L 7.0711,-7.0711 L -7.0711,-7.0711 L -7.0711,7.0711 L 7.0711,7.0711 z" />
<path stroke="#008000" stroke-width="4.0000" fill="None" d="M -22.8891,-30.0000 L -22.8891,-54.0000 L -41.0313,-54.0000 L -41.0313,-30.0000 L -22.8891,-30.0000 z" />
<path transform="translate(-6.8891 -42.0000) " stroke="None" fill="#ffc0cb" stroke-width="0.0000" d="M 8.0902,5.8779 L 8.0902,-5.8779 L -3.0902,-9.5106 L -10.0000,-0.0000 L -3.0902,9.5106 L 8.0902,5.8779 z" />
<path stroke="#008000" stroke-width="4.0000" fill="None" d="M 3.2011,-30.0000 L 3.2011,-54.0000 L -18.8891,-54.0000 L -18.8891,-30.0000 L 3.2011,-30.0000 z" />
<path transform="translate(17.8613 -42.0000) " stroke="None" fill="#ffc0cb" stroke-width="0.0000" d="M 8.6603,5.0000 L 8.6603,-5.0000 L 0.0000,-10.0000 L -8.6603,-5.0000 L -8.6603,5.0000 L -0.0000,10.0000 L 8.6603,5.0000 z" />
<path stroke="#008000" stroke-width="4.0000" fill="None" d="M 28.5216,-30.0000 L 28.5216,-54.0000 L 7.2011,-54.0000 L 7.2011,-30.0000 L 28.5216,-30.0000 z" />
<path transform="translate(44.5216 -42.0000) " stroke="None" fill="#ffc0cb" stroke-width="0.0000" d="M 9.0097,4.3388 L 9.0097,-4.3388 L 2.2252,-9.7493 L -6.2349,-7.8183 L -10.0000,-0.0000 L -6.2349,7.8183 L 2.2252,9.7493 L 9.0097,4.3388 z" />
<path stroke="#008000" stroke-width="4.0000" fill="None" d="M 55.5313,-30.0000 L 55.5313,-54.0000 L 32.5216,-54.0000 L 32.5216,-30.0000 L 55.5313,-30.0000 z" />
<path stroke="None" fill="#ff0000" d="M -43.0313,-0.0000 L -43.0313,-28.0000 L -57.5313,-28.0000 L -57.5313,-0.0000 L -43.0313,-0.0000 z" />
<path transform="translate(-48.0313 -14.0000) " stroke="#ffff00" fill="#0000ff" stroke-width="1.0000" d="M 4.5000,-0.4876 L 4.5000,0.4876 C 4.5000,-3.4383 0.1047,-5.8407 -3.1997,-3.7209 L -2.4396,-4.2085 C -5.5312,-2.2252 -5.5312,2.2252 -2.4396,4.2085 L -3.1997,3.7209 C 0.1047,5.8407 4.5000,3.4383 4.5000,-0.4876 z" />
<path stroke="#000000" stroke-width="0.0000" fill="None" d="M -43.0313,-0.0000 L -43.0313,-28.0000 L -57.5313,-28.0000 L -57.5313,-0.0000 L -43.0313,-0.0000 z" />
<path transform="translate(-31.9602 -14.0000) " stroke="None" fill="#ffc0cb" stroke-width="0.0000" d="M 7.0711,2.0711 L 7.0711,-2.0711 C 7.0711,-4.8568 4.8568,-7.0711 2.0711,-7.0711 L -2.0711,-7.0711 C -4.8568,-7.0711 -7.0711,-4.8568 -7.0711,-2.0711 L -7.0711,2.0711 C -7.0711,4.8568 -4.8568,7.0711 -2.0711,7.0711 L 2.0711,7.0711 C 4.8568,7.0711 7.0711,4.8568 7.0711,2.0711 z" />
<path stroke="#008000" stroke-width="4.0000" fill="None" d="M -22.8891,-2.0000 L -22.8891,-26.0000 L -41.0313,-26.0000 L -41.0313,-2.0000 L -22.8891,-2.0000 z" />
<path transform="translate(-6.8891 -14.0000) " stroke="None" fill="#ffc0cb" stroke-width="0.0000" d="M 8.0902,2.2451 L 8.0902,-2.2451 C 8.0902,-4.3499 6.6370,-6.3500 4.6353,-7.0004 L 0.3647,-8.3880 C -1.6370,-9.0384 -3.9883,-8.2744 -5.2254,-6.5716 L -7.8647,-2.9389 C -9.1019,-1.2362 -9.1019,1.2362 -7.8647,2.9389 L -5.2254,6.5716 C -3.9883,8.2744 -1.6370,9.0384 0.3647,8.3880 L 4.6353,7.0004 C 6.6370,6.3500 8.0902,4.3499 8.0902,2.2451 z" />
<path stroke="#008000" stroke-width="4.0000" fill="None" d="M 3.2011,-2.0000 L 3.2011,-26.0000 L -18.8891,-26.0000 L -18.8891,-2.0000 L 3.2011,-2.0000 z" />
<path transform="translate(17.8613 -14.0000) " stroke="None" fill="#ffc0cb" stroke-width="0.0000" d="M 8.6603,2.1132 L 8.6603,-2.1132 C 8.6603,-3.8650 7.6773,-5.5675 6.1603,-6.4434 L 2.5000,-8.5566 C 0.9830,-9.4325 -0.9830,-9.4325 -2.5000,-8.5566 L -6.1603,-6.4434 C -7.6773,-5.5675 -8.6603,-3.8650 -8.6603,-2.1132 L -8.6603,2.1132 C -8.6603,3.8650 -7.6773,5.5675 -6.1603,6.4434 L -2.5000,8.5566 C -0.9830,9.4325 0.9830,9.4325 2.5000,8.5566 L 6.1603,6.4434 C 7.6773,5.5675 8.6603,3.8650 8.6603,2.1132 z" />
<path stroke="#008000" stroke-width="4.0000" fill="None" d="M 28.5216,-2.0000 L 28.5216,-26.0000 L 7.2011,-26.0000 L 7.2011,-2.0000 L 28.5216,-2.0000 z" />
<path transform="translate(44.5216 -14.0000) " stroke="None" fill="#ffc0cb" stroke-width="0.0000" d="M 9.0097,1.9310 L 9.0097,-1.9310 C 9.0097,-3.4611 8.3234,-4.8861 7.1271,-5.8401 L 4.1078,-8.2480 C 2.9115,-9.2020 1.3694,-9.5540 -0.1223,-9.2135 L -3.8874,-8.3541 C -5.3791,-8.0136 -6.6158,-7.0275 -7.2796,-5.6489 L -8.9553,-2.1694 C -9.6191,-0.7909 -9.6191,0.7909 -8.9553,2.1694 L -7.2796,5.6489 C -6.6158,7.0275 -5.3791,8.0136 -3.8874,8.3541 L -0.1223,9.2135 C 1.3694,9.5540 2.9115,9.2020 4.1078,8.2480 L 7.1271,5.8401 C 8.3234,4.8861 9.0097,3.4611 9.0097,1.9310 z" />
<path stroke="#008000" stroke-width="4.0000" fill="None" d="M 55.5313,-2.0000 L 55.5313,-26.0000 L 32.5216,-26.0000 L 32.5216,-2.0000 L 55.5313,-2.0000 z" />
<path stroke="None" fill="#ff0000" d="M -43.0313,28.0000 L -43.0313,0.0000 L -57.5313,-0.0000 L -57.5313,28.0000 L -43.0313,28.0000 z" />
<path transform="translate(-48.0313 14.0000) " stroke="#ffff00" fill="#0000ff" stroke-width="1.0000" d="M 4.5000,8.6603 L 4.5000,0.0000 L 4.5000,-8.6603 L -2.2500,-4.3301 L -9.0000,-0.0000 L -2.2500,4.3301 L 4.5000,8.6603 z" />
<path stroke="#000000" stroke-width="0.0000" fill="None" d="M -43.0313,28.0000 L -43.0313,0.0000 L -57.5313,-0.0000 L -57.5313,28.0000 L -43.0313,28.0000 z" />
<path transform="translate(-31.9602 14.0000) " stroke="None" fill="#ffc0cb" stroke-width="0.0000" d="M 7.0711,7.0711 L 5.0000,0.0000 L 7.0711,-7.0711 L 0.0000,-5.0000 L -7.0711,-7.0711 L -5.0000,-0.0000 L -7.0711,7.0711 L -0.0000,5.0000 L 7.0711,7.0711 z" />
<path stroke="#008000" stroke-width="4.0000" fill="None" d="M -22.8891,26.0000 L -22.8891,2.0000 L -41.0313,2.0000 L -41.0313,26.0000 L -22.8891,26.0000 z" />
<path transform="translate(-6.8891 14.0000) " stroke="None" fill="#ffc0cb" stroke-width="0.0000" d="M 8.0902,5.8779 L 5.0000,0.0000 L 8.0902,-5.8779 L 1.5451,-4.7553 L -3.0902,-9.5106 L -4.0451,-2.9389 L -10.0000,-0.0000 L -4.0451,2.9389 L -3.0902,9.5106 L 1.5451,4.7553 L 8.0902,5.8779 z" />
<path stroke="#008000" stroke-width="4.0000" fill="None" d="M 3.2011,26.0000 L 3.2011,2.0000 L -18.8891,2.0000 L -18.8891,26.0000 L 3.2011,26.0000 z" />
<path transform="translate(17.8613 14.0000) " stroke="None" fill="#ffc0cb" stroke-width="0.0000" d="M 8.6603,5.0000 L 5.0000,0.0000 L 8.6603,-5.0000 L 2.5000,-4.3301 L 0.0000,-10.0000 L -2.5000,-4.3301 L -8.6603,-5.0000 L -5.0000,-0.0000 L -8.6603,5.0000 L -2.5000,4.3301 L -0.0000,10.0000 L 2.5000,4.3301 L 8.6603,5.0000 z" />
<path stroke="#008000" stroke-width="4.0000" fill="None" d="M 28.5216,26.0000 L 28.5216,2.0000 L 7.2011,2.0000 L 7.2011,26.0000 L 28.5216,26.0000 z" />
<path transform="translate(44.5216 14.0000) " stroke="None" fill="#ffc0cb" stroke-width="0.0000" d="M 9.0097,4.3388 L 5.0000,0.0000 L 9.0097,-4.3388 L 3.1174,-3.9092 L 2.2252,-9.7493 L -1.1126,-4.8746 L -6.2349,-7.8183 L -4.5048,-2.1694 L -10.0000,-0.0000 L -4.5048,2.1694 L -6.2349,7.8183 L -1.1126,4.8746 L 2.2252,9.7493 L 3.1174,3.9092 L 9.0097,4.3388 z" />
<path stroke="#008000" stroke-width="4.0000" fill="None" d="M 55.5313,26.0000 L 55.5313,2.0000 L 32.5216,2.0000 L 32.5216,26.0000 L 55.5313,26.0000 z" />
<path stroke="None" fill="#ff0000" d="M -43.0313,56.0000 L -43.0313,28.0000 L -57.5313,28.0000 L -57.5313,56.0000 L -43.0313,56.0000 z" />
<path transform="translate(-48.0313 42.0000) " stroke="#ffff00" fill="#0000ff" stroke-width="1.0000" d="M 4.5000,5.0011 L 4.5000,2.0000 Q 4.5000,0.0000 4.5000,-2.0000 L 4.5000,-5.0011 C 4.5000,-6.5715 2.7419,-7.5324 1.4201,-6.6845 L -0.5666,-5.4100 Q -2.2500,-4.3301 -3.9334,-3.2502 L -6.3758,-1.6834 C -7.6125,-0.8901 -7.6125,0.8901 -6.3758,1.6834 L -3.9334,3.2502 Q -2.2500,4.3301 -0.5666,5.4100 L 1.4201,6.6845 C 2.7419,7.5324 4.5000,6.5715 4.5000,5.0011 z" />
<path stroke="#000000" stroke-width="0.0000" fill="None" d="M -43.0313,56.0000 L -43.0313,28.0000 L -57.5313,28.0000 L -57.5313,56.0000 L -43.0313,56.0000 z" />
<path transform="translate(-31.9602 42.0000) " stroke="None" fill="#ffc0cb" stroke-width="0.0000" d="M 6.0432,3.5616 L 5.1647,0.5622 C 5.0557,0.1902 5.0557,-0.1902 5.1647,-0.5622 L 6.0432,-3.5616 C 6.4845,-5.0683 5.0683,-6.4845 3.5616,-6.0432 L 0.5622,-5.1647 C 0.1902,-5.0557 -0.1902,-5.0557 -0.5622,-5.1647 L -3.5616,-6.0432 C -5.0683,-6.4845 -6.4845,-5.0683 -6.0432,-3.5616 L -5.1647,-0.5622 C -5.0557,-0.1902 -5.0557,0.1902 -5.1647,0.5622 L -6.0432,3.5616 C -6.4845,5.0683 -5.0683,6.4845 -3.5616,6.0432 L -0.5622,5.1647 C -0.1902,5.0557 0.1902,5.0557 0.5622,5.1647 L 3.5616,6.0432 C 5.0683,6.4845 6.4845,5.0683 6.0432,3.5616 z" />
<path stroke="#008000" stroke-width="4.0000" fill="None" d="M -22.8891,54.0000 L -22.8891,30.0000 L -41.0313,30.0000 L -41.0313,54.0000 L -22.8891,54.0000 z" />
<path transform="translate(-6.8891 42.0000) " stroke="None" fill="#ffc0cb" stroke-width="0.0000" d="M 6.2044,2.2909 L 5.4893,0.9307 C 5.1852,0.3522 5.1852,-0.3522 5.4893,-0.9307 L 6.2044,-2.2909 C 6.9653,-3.7382 5.7076,-5.4692 4.0960,-5.1928 L 2.5814,-4.9330 C 1.9373,-4.8225 1.2674,-5.0402 0.8112,-5.5082 L -0.2615,-6.6087 C -1.4028,-7.7795 -3.4378,-7.1183 -3.6729,-5.5002 L -3.8939,-3.9795 C -3.9879,-3.3327 -4.4019,-2.7628 -4.9880,-2.4736 L -6.3660,-1.7935 C -7.8323,-1.0698 -7.8323,1.0698 -6.3660,1.7935 L -4.9880,2.4736 C -4.4019,2.7628 -3.9879,3.3327 -3.8939,3.9795 L -3.6729,5.5002 C -3.4378,7.1183 -1.4028,7.7795 -0.2615,6.6087 L 0.8112,5.5082 C 1.2674,5.0402 1.9373,4.8225 2.5814,4.9330 L 4.0960,5.1928 C 5.7076,5.4692 6.9653,3.7382 6.2044,2.2909 z" />
<path stroke="#008000" stroke-width="4.0000" fill="None" d="M 3.2011,54.0000 L 3.2011,30.0000 L -18.8891,30.0000 L -18.8891,54.0000 L 3.2011,54.0000 z" />
<path transform="translate(17.8613 42.0000) " stroke="None" fill="#ffc0cb" stroke-width="0.0000" d="M 5.9809,1.3400 L 5.8648,1.1814 C 5.3643,0.4976 5.3643,-0.4976 5.8648,-1.1814 L 5.9809,-1.3400 C 6.9907,-2.7194 5.8504,-4.6945 4.1509,-4.5097 L 3.9555,-4.4884 C 3.1131,-4.3968 2.2512,-4.8944 1.9093,-5.6698 L 1.8300,-5.8496 C 1.1403,-7.4139 -1.1403,-7.4139 -1.8300,-5.8496 L -1.9093,-5.6698 C -2.2512,-4.8944 -3.1131,-4.3968 -3.9555,-4.4884 L -4.1509,-4.5097 C -5.8504,-4.6945 -6.9907,-2.7194 -5.9809,-1.3400 L -5.8648,-1.1814 C -5.3643,-0.4976 -5.3643,0.4976 -5.8648,1.1814 L -5.9809,1.3400 C -6.9907,2.7194 -5.8504,4.6945 -4.1509,4.5097 L -3.9555,4.4884 C -3.1131,4.3968 -2.2512,4.8944 -1.9093,5.6698 L -1.8300,5.8496 C -1.1403,7.4139 1.1403,7.4139 1.8300,5.8496 L 1.9093,5.6698 C 2.2512,4.8944 3.1131,4.3968 3.9555,4.4884 L 4.1509,4.5097 C 5.8504,4.6945 6.9907,2.7194 5.9809,1.3400 z" />
<path stroke="#008000" stroke-width="4.0000" fill="None" d="M 28.5216,54.0000 L 28.5216,30.0000 L 7.2011,30.0000 L 7.2011,54.0000 L 28.5216,54.0000 z" />
<path transform="translate(44.5216 42.0000) " stroke="None" fill="#ffc0cb" stroke-width="0.0000" d="M 5.5714,0.6183 L 6.2544,1.3574 C 5.5474,0.5924 5.5474,-0.5924 6.2544,-1.3574 L 5.5714,-0.6183 C 6.7834,-1.9298 5.7382,-4.1003 3.9571,-3.9704 L 4.9608,-4.0436 C 3.9219,-3.9678 2.9956,-4.7065 2.8383,-5.7362 L 2.9903,-4.7414 C 2.7206,-6.5067 0.3720,-7.0428 -0.6370,-5.5693 L -0.0684,-6.3997 C -0.6569,-5.5402 -1.8119,-5.2765 -2.7151,-5.7956 L -1.8425,-5.2941 C -3.3909,-6.1839 -5.2743,-4.6819 -4.7514,-2.9744 L -5.0461,-3.9367 C -4.7410,-2.9407 -5.2551,-1.8732 -6.2240,-1.4907 L -5.2879,-1.8603 C -6.9490,-1.2045 -6.9490,1.2045 -5.2879,1.8603 L -6.2240,1.4907 C -5.2551,1.8732 -4.7410,2.9407 -5.0461,3.9367 L -4.7514,2.9744 C -5.2743,4.6819 -3.3909,6.1839 -1.8425,5.2941 L -2.7151,5.7956 C -1.8119,5.2765 -0.6569,5.5402 -0.0684,6.3997 L -0.6370,5.5693 C 0.3720,7.0428 2.7206,6.5067 2.9903,4.7414 L 2.8383,5.7362 C 2.9956,4.7065 3.9219,3.9678 4.9608,4.0436 L 3.9571,3.9704 C 5.7382,4.1003 6.7834,1.9298 5.5714,0.6183 z" />
<path stroke="#008000" stroke-width="4.0000" fill="None" d="M 55.5313,54.0000 L 55.5313,30.0000 L 32.5216,30.0000 L 32.5216,54.0000 L 55.5313,54.0000 z" />
</g>
</svg>