<?xml version="1.0" encoding="UTF-8"?>
<svg xmlns:svg="http://www.w3.org/2000/svg" xmlns="http://www.w3.org/2000/svg" version="2.0" width="115.06250232219338mm" height="112mm" viewBox="-57.53125116109669 -56 115.06250232219338 112">
<defs />
<g>
<path stroke="None" fill="#ffff00" d="M 17.5313,16.0000 L 17.5313,-16.0000 L -17.5313,-16.0000 L -17.5313,16.0000 L 17.5313,16.0000 z" />
<path transform="translate(-0.0000 0.0000) " stroke="None" fill="None" stroke-width="0.0000" d="M 0.3536,0.3536 L 0.3536,-0.3536 L -0.3536,-0.3536 L -0.3536,0.3536 L 0.3536,0.3536 z" />
<path stroke="None" fill="#ff0000" d="M -43.0313,-28.0000 L -43.0313,-56.0000 L -57.5313,-56.0000 L -57.5313,-28.0000 L -43.0313,-28.0000 z" />
<path id="a" transform="translate(-48.0313 -42.0000) " stroke="#ffff00" fill="#0000ff" stroke-width="1.0000" d="M 4.5000,8.6603 L 4.5000,-8.6603 L -9.0000,-0.0000 L 4.5000,8.6603 z" />
<path stroke="#000000" stroke-width="0.0000" fill="None" d="M -43.0313,-28.0000 L -43.0313,-56.0000 L -57.5313,-56.0000 L -57.5313,-28.0000 L -43.0313,-28.0000 z" />
<path transform="translate(-31.9602 -42.0000) " stroke="None" fill="#ffc0cb" stroke-width="0.0000" d="M 7.0711,7.0711 L 7.0711,-7.0711 L -7.0711,-7.0711 L -7.0711,7.0711 L 7.0711,7.0711 z" />
<path stroke="#008000" stroke-width="4.0000" fill="None" d="M -22.8891,-30.0000 L -22.8891,-54.0000 L -41.0313,-54.0000 L -41.0313,-30.0000 L -22.8891,-30.0000 z" />
<path transform="translate(-6.8891 -42.0000) " stroke="None" fill="#ffc0cb" stroke-width="0.0000" d="M 8.0902,5.8779 L 8.0902,-5.8779 L -3.0902,-9.5106 L -10.0000,-0.0000 L -3.0902,9.5106 L 8.0902,5.8779 z" />
<path stroke="#008000" stroke-width="4.0000" fill="None" d="M 3.2011,-30.0000 L 3.2011,-54.0000 L -18.8891,-54.0000 L -18.8891,-30.0000 L 3.2011,-30.0000 z" />
<path transform="translate(17.8613 -42.0000) " stroke="None" fill="#ffc0cb" stroke-width="0.0000" d="M 8.6603,5.0000 L 8.6603,-5.0000 L 0.0000,-10.0000 L -8.6603,-5.0000 L -8.6603,5.0000 L -0.0000,10.0000 L 8.6603,5.0000 z" />
<path stroke="#008000" stroke-width="4.0000" fill="None" d="M 28.5216,-30.0000 L 28.5216,-54.0000 L 7.2011,-54.0000 L 7.2011,-30.0000 L 28.5216,-30.0000 z" />
<path transform="translate(44.5216 -42.0000) " stroke="None" fill="#ffc0cb" stroke-width="0.0000" d="M 9.0097,4.3388 L 9.0097,-4.3388 L 2.2252,-9.7493 L -6.2349,-7.8183 L -10.0000,-0.0000 L -6.2349,7.8183 L 2.2252,9.7493 L 9.0097,4.3388 z" />
<path stroke="#008000" stroke-width="4.0000" fill="None" d="M 55.5313,-30.0000 L 55.5313,-54.0000 L 32.5216,-54.0000 L 32.5216,-30.0000 L 55.5313,-30.0000 z" />
<path stroke="None" fill="#ff0000" d="M -43.0313,-0.0000 L -43.0313,-28.0000 L -57.5313,-28.0000 L -57.5313,-0.0000 L -43.0313,-0.0000 z" />
<path transform="translate(-48.0313 -14.0000) " stroke="#ffff00" fill="#0000ff" stroke-width="1.0000" d="M 4.5000,-0.4876 L 4.5000,0.4876 C 4.5000,-3.4660 0.1280,-5.8556 -3.1997,-3.7209 L -2.4396,-4.2085 C -5.5066,-2.2410 -5.5066,2.2410 -2.4396,4.2085 L -3.1997,3.7209 C 0.1280,5.8556 4.5000,3.4660 4.5000,-0.4876 z" />
<path stroke="#000000" stroke-width="0.0000" fill="None" d="M -43.0313,-0.0000 L -43.0313,-28.0000 L -57.5313,-28.0000 L -57.5313,-0.0000 L -43.0313,-0.0000 z" />
<path transform="translate(-31.9602 -14.0000) " stroke="None" fill="#ffc0cb" stroke-width="0.0000" d="M 7.0711,2.0711 L 7.0711,-2.0711 C 7.0711,-4.8325 4.8325,-7.0711 2.0711,-7.0711 L -2.0711,-7.0711 C -4.8325,-7.0711 -7.0711,-4.8325 -7.0711,-2.0711 L -7.0711,2.0711 C -7.0711,4.8325 -4.8325,7.0711 -2.0711,7.0711 L 2.0711,7.0711 C 4.8325,7.0711 7.0711,4.8325 7.0711,2.0711 z" />
<path stroke="#008000" stroke-width="4.0000" fill="None" d="M -22.8891,-2.0000 L -22.8891,-26.0000 L -41.0313,-26.0000 L -41.0313,-2.0000 L -22.8891,-2.0000 z" />
<path transform="translate(-6.8891 -14.0000) " stroke="None" fill="#ffc0cb" stroke-width="0.0000" d="M 8.0902,2.2451 L 8.0902,-2.2451 C 8.0902,-4.4113 6.6954,-6.3311 4.6353,-7.0004 L 0.3647,-8.3880 C -1.6954,-9.0574 -3.9522,-8.3241 -5.2254,-6.5716 L -7.8647,-2.9389 C -9.1380,-1.1865 -9.1380,1.1865 -7.8647,2.9389 L -5.2254,6.5716 C -3.9522,8.3241 -1.6954,9.0574 0.3647,8.3880 L 4.6353,7.0004 C 6.6954,6.3311 8.0902,4.4113 8.0902,2.2451 z" />
<path stroke="#008000" stroke-width="4.0000" fill="None" d="M 3.2011,-2.0000 L 3.2011,-26.0000 L -18.8891,-26.0000 L -18.8891,-2.0000 L 3.2011,-2.0000 z" />
<path transform="translate(17.8613 -14.0000) " stroke="None" fill="#ffc0cb" stroke-width="0.0000" d="M 8.6603,2.1132 L 8.6603,-2.1132 C 8.6603,-3.8996 7.7073,-5.5502 6.1603,-6.4434 L 2.5000,-8.5566 C 0.9530,-9.4498 -0.9530,-9.4498 -2.5000,-8.5566 L -6.1603,-6.4434 C -7.7073,-5.5502 -8.6603,-3.8996 -8.6603,-2.1132 L -8.6603,2.1132 C -8.6603,3.8996 -7.7073,5.5502 -6.1603,6.4434 L -2.5000,8.5566 C -0.9530,9.4498 0.9530,9.4498 2.5000,8.5566 L 6.1603,6.4434 C 7.7073,5.5502 8.6603,3.8996 8.6603,2.1132 z" />
<path stroke="#008000" stroke-width="4.0000" fill="None" d="M 28.5216,-2.0000 L 28.5216,-26.0000 L 7.2011,-26.0000 L 7.2011,-2.0000 L 28.5216,-2.0000 z" />
<path transform="translate(44.5216 -14.0000) " stroke="None" fill="#ffc0cb" stroke-width="0.0000" d="M 9.0097,1.9310 L 9.0097,-1.9310 C 9.0097,-3.4526 8.3168,-4.8914 7.1271,-5.8401 L 4.1078,-8.2480 C 2.9181,-9.1967 1.3612,-9.5521 -0.1223,-9.2135 L -3.8874,-8.3541 C -5.3709,-8.0155 -6.6194,-7.0198 -7.2796,-5.6489 L -8.9553,-2.1694 C -9.6155,-0.7985 -9.6155,0.7985 -8.9553,2.1694 L -7.2796,5.6489 C -6.6194,7.0198 -5.3709,8.0155 -3.8874,8.3541 L -0.1223,9.2135 C 1.3612,9.5521 2.9181,9.1967 4.1078,8.2480 L 7.1271,5.8401 C 8.3168,4.8914 9.0097,3.4526 9.0097,1.9310 z" />
<path stroke="#008000" stroke-width="4.0000" fill="None" d="M 55.5313,-2.0000 L 55.5313,-26.0000 L 32.5216,-26.0000 L 32.5216,-2.0000 L 55.5313,-2.0000 z" />
<path stroke="None" fill="#ff0000" d="M -43.0313,28.0000 L -43.0313,0.0000 L -57.5313,-0.0000 L -57.5313,28.0000 L -43.0313,28.0000 z" />
<path transform="translate(-48.0313 14.0000) " stroke="#ffff00" fill="#0000ff" stroke-width="1.0000" d="M 4.5000,8.6603 L 4.5000,0.0000 L 4.5000,-8.6603 L -2.2500,-4.3301 L -9.0000,-0.0000 L -2.2500,4.3301 L 4.5000,8.6603 z" />
<path stroke="#000000" stroke-width="0.0000" fill="None" d="M -43.0313,28.0000 L -43.0313,0.0000 L -57.5313,-0.0000 L -57.5313,28.0000 L -43.0313,28.0000 z" />
<path transform="translate(-31.9602 14.0000) " stroke="None" fill="#ffc0cb" stroke-width="0.0000" d="M 7.0711,7.0711 L 5.0000,0.0000 L 7.0711,-7.0711 L 0.0000,-5.0000 L -7.0711,-7.0711 L -5.0000,-0.0000 L -7.0711,7.0711 L -0.0000,5.0000 L 7.0711,7.0711 z" />
<path stroke="#008000" stroke-width="4.0000" fill="None" d="M -22.8891,26.0000 L -22.8891,2.0000 L -41.0313,2.0000 L -41.0313,26.0000 L -22.8891,26.0000 z" />
<path transform="translate(-6.8891 14.0000) " stroke="None" fill="#ffc0cb" stroke-width="0.0000" d="M 8.0902,5.8779 L 5.0000,0.0000 L 8.0902,-5.8779 L 1.5451,-4.7553 L -3.0902,-9.5106 L -4.0451,-2.9389 L -10.0000,-0.0000 L -4.0451,2.9389 L -3.0902,9.5106 L 1.5451,4.7553 L 8.0902,5.8779 z" />
<path stroke="#008000" stroke-width="4.0000" fill="None" d="M 3.2011,26.0000 L 3.2011,2.0000 L -18.8891,2.0000 L -18.8891,26.0000 L 3.2011,26.0000 z" />
<path transform="translate(17.8613 14.0000) " stroke="None" fill="#ffc0cb" stroke-width="0.0000" d="M 8.6603,5.0000 L 5.0000,0.0000 L 8.6603,-5.0000 L 2.5000,-4.3301 L 0.0000,-10.0000 L -2.5000,-4.3301 L -8.6603,-5.0000 L -5.0000,-0.0000 L -8.6603,5.0000 L -2.5000,4.3301 L -0.0000,10.0000 L 2.5000,4.3301 L 8.6603,5.0000 z" />
<path stroke="#008000" stroke-width="4.0000" fill="None" d="M 28.5216,26.0000 L 28.5216,2.0000 L 7.2011,2.0000 L 7.2011,26.0000 L 28.5216,26.0000 z" />
<path transform="translate(44.5216 14.0000) " stroke="None" fill="#ffc0cb" stroke-width="0.0000" d="M 9.0097,4.3388 L 5.0000,0.0000 L 9.0097,-4.3388 L 3.1174,-3.9092 L 2.2252,-9.7493 L -1.1126,-4.8746 L -6.2349,-7.8183 L -4.5048,-2.1694 L -10.0000,-0.0000 L -4.5048,2.1694 L -6.2349,7.8183 L -1.1126,4.8746 L 2.2252,9.7493 L 3.1174,3.9092 L 9.0097,4.3388 z" />
<path stroke="#008000" stroke-width="4.0000" fill="None" d="M 55.5313,26.0000 L 55.5313,2.0000 L 32.5216,2.0000 L 32.5216,26.0000 L 55.5313,26.0000 z" />
<path stroke="None" fill="#ff0000" d="M -43.0313,56.0000 L -43.0313,28.0000 L -57.5313,28.0000 L -57.5313,56.0000 L -43.0313,56.0000 z" />
<path transform="translate(-48.0313 42.0000) " stroke="#ffff00" fill="#0000ff" stroke-width="1.0000" d="M 4.5000,5.0011 L 4.5000,1.2724 C 4.5000,-4029507976894680.5000 3.7968,4029507976894683.0000 4.5000,1.2724 L 4.5000,-5.0895 C 4.5000,-6.6523 2.7878,-7.6113 1.4552,-6.7949 L -1.9966,-4.6802 C -658398522192163.0000,422362848912990.5625 658398522192158.8750,-422362848913000.0000 -1.9966,-4.6802 L -6.4004,-1.6677 C -7.6210,-0.8847 -7.6286,0.8964 -6.4147,1.6898 L -1.3299,5.0135 C 2543058930681300.0000,1631373064659928.7500 -2543058930681304.0000,-1631373064659918.5000 -1.3299,5.0135 L 1.4201,6.6845 C 2.7512,7.5384 4.5000,6.5826 4.5000,5.0011 z" />
<path stroke="#000000" stroke-width="0.0000" fill="None" d="M -43.0313,56.0000 L -43.0313,28.0000 L -57.5313,28.0000 L -57.5313,56.0000 L -43.0313,56.0000 z" />
<path transform="translate(-31.9602 42.0000) " stroke="None" fill="#ffc0cb" stroke-width="0.0000" d="M 6.0432,3.5616 L 5.1647,0.5622 C 5.0571,0.1951 5.0571,-0.1951 5.1647,-0.5622 L 6.0432,-3.5616 C 6.4876,-5.0789 5.0789,-6.4876 3.5616,-6.0432 L 0.5622,-5.1647 C 0.1951,-5.0571 -0.1951,-5.0571 -0.5622,-5.1647 L -3.5616,-6.0432 C -5.0789,-6.4876 -6.4876,-5.0789 -6.0432,-3.5616 L -5.1647,-0.5622 C -5.0571,-0.1951 -5.0571,0.1951 -5.1647,0.5622 L -6.0432,3.5616 C -6.4876,5.0789 -5.0789,6.4876 -3.5616,6.0432 L -0.5622,5.1647 C -0.1951,5.0571 0.1951,5.0571 0.5622,5.1647 L 3.5616,6.0432 C 5.0789,6.4876 6.4876,5.0789 6.0432,3.5616 z" />
<path stroke="#008000" stroke-width="4.0000" fill="None" d="M -22.8891,54.0000 L -22.8891,30.0000 L -41.0313,30.0000 L -41.0313,54.0000 L -22.8891,54.0000 z" />
<path transform="translate(-6.8891 42.0000) " stroke="None" fill="#ffc0cb" stroke-width="0.0000" d="M 6.2044,2.2909 L 5.4893,0.9307 C 5.1830,0.3480 5.1830,-0.3480 5.4893,-0.9307 L 6.2044,-2.2909 C 6.9758,-3.7582 5.7299,-5.4730 4.0960,-5.1928 L 2.5814,-4.9330 C 1.9326,-4.8218 1.2706,-5.0368 0.8112,-5.5082 L -0.2615,-6.6087 C -1.4186,-7.7957 -3.4345,-7.1407 -3.6729,-5.5002 L -3.8939,-3.9795 C -3.9885,-3.3280 -4.3977,-2.7649 -4.9880,-2.4736 L -6.3660,-1.7935 C -7.8525,-1.0598 -7.8525,1.0598 -6.3660,1.7935 L -4.9880,2.4736 C -4.3977,2.7649 -3.9885,3.3280 -3.8939,3.9795 L -3.6729,5.5002 C -3.4345,7.1407 -1.4186,7.7957 -0.2615,6.6087 L 0.8112,5.5082 C 1.2706,5.0368 1.9326,4.8218 2.5814,4.9330 L 4.0960,5.1928 C 5.7299,5.4730 6.9758,3.7582 6.2044,2.2909 z" />
<path stroke="#008000" stroke-width="4.0000" fill="None" d="M 3.2011,54.0000 L 3.2011,30.0000 L -18.8891,30.0000 L -18.8891,54.0000 L 3.2011,54.0000 z" />
<path transform="translate(17.8613 42.0000) " stroke="None" fill="#ffc0cb" stroke-width="0.0000" d="M 5.9809,1.3400 L 5.8648,1.1814 C 5.3499,0.4780 5.3499,-0.4780 5.8648,-1.1814 L 5.9809,-1.3400 C 7.0079,-2.7428 5.8793,-4.6976 4.1509,-4.5097 L 3.9555,-4.4884 C 3.0889,-4.3942 2.2610,-4.8721 1.9093,-5.6698 L 1.8300,-5.8496 C 1.1286,-7.4404 -1.1286,-7.4404 -1.8300,-5.8496 L -1.9093,-5.6698 C -2.2610,-4.8721 -3.0889,-4.3942 -3.9555,-4.4884 L -4.1509,-4.5097 C -5.8793,-4.6976 -7.0079,-2.7428 -5.9809,-1.3400 L -5.8648,-1.1814 C -5.3499,-0.4780 -5.3499,0.4780 -5.8648,1.1814 L -5.9809,1.3400 C -7.0079,2.7428 -5.8793,4.6976 -4.1509,4.5097 L -3.9555,4.4884 C -3.0889,4.3942 -2.2610,4.8721 -1.9093,5.6698 L -1.8300,5.8496 C -1.1286,7.4404 1.1286,7.4404 1.8300,5.8496 L 1.9093,5.6698 C 2.2610,4.8721 3.0889,4.3942 3.9555,4.4884 L 4.1509,4.5097 C 5.8793,4.6976 7.0079,2.7428 5.9809,1.3400 z" />
<path stroke="#008000" stroke-width="4.0000" fill="None" d="M 28.5216,54.0000 L 28.5216,30.0000 L 7.2011,30.0000 L 7.2011,54.0000 L 28.5216,54.0000 z" />
<path transform="translate(44.5216 42.0000) " stroke="None" fill="#ffc0cb" stroke-width="0.0000" d="M 5.5714,0.6183 L 6.2544,1.3574 C 5.5462,0.5910 5.5462,-0.5910 6.2544,-1.3574 L 5.5714,-0.6183 C 6.8027,-1.9506 5.7665,-4.1023 3.9571,-3.9704 L 4.9608,-4.0436 C 3.9201,-3.9677 2.9959,-4.7047 2.8383,-5.7362 L 2.9903,-4.7414 C 2.7163,-6.5347 0.3880,-7.0662 -0.6370,-5.5693 L -0.0684,-6.3997 C -0.6579,-5.5387 -1.8104,-5.2756 -2.7151,-5.7956 L -1.8425,-5.2941 C -3.4155,-6.1981 -5.2826,-4.7090 -4.7514,-2.9744 L -5.0461,-3.9367 C -4.7405,-2.9389 -5.2534,-1.8739 -6.2240,-1.4907 L -5.2879,-1.8603 C -6.9753,-1.1941 -6.9753,1.1941 -5.2879,1.8603 L -6.2240,1.4907 C -5.2534,1.8739 -4.7405,2.9389 -5.0461,3.9367 L -4.7514,2.9744 C -5.2826,4.7090 -3.4155,6.1981 -1.8425,5.2941 L -2.7151,5.7956 C -1.8104,5.2756 -0.6579,5.5387 -0.0684,6.3997 L -0.6370,5.5693 C 0.3880,7.0662 2.7163,6.5347 2.9903,4.7414 L 2.8383,5.7362 C 2.9959,4.7047 3.9201,3.9677 4.9608,4.0436 L 3.9571,3.9704 C 5.7665,4.1023 6.8027,1.9506 5.5714,0.6183 z" />
<path stroke="#008000" stroke-width="4.0000" fill="None" d="M 55.5313,54.0000 L 55.5313,30.0000 L 32.5216,30.0000 L 32.5216,54.0000 L 55.5313,54.0000 z" />
</g>
</svg>