<?xml version="1.0" encoding="UTF-8"?>
<svg xmlns:svg="http://www.w3.org/2000/svg" xmlns="http://www.w3.org/2000/svg" version="2.0" width="41mm" height="29mm" viewBox="-20.5 -14.5 41 29">
<defs />
<g>
<path stroke="None" fill="#008000" d="M 19.0000,13.0000 L 19.0000,-13.0000 L -19.0000,-13.0000 L -19.0000,13.0000 L 19.0000,13.0000 z" />
<g id="l">
<path stroke="None" fill="#ffff00" d="M -6.0000,11.0000 L -6.0000,0.0000 L -17.0000,0.0000 L -17.0000,11.0000 L -6.0000,11.0000 z" />
<path id="a" transform="translate(-11.5000 5.5000) " stroke="None" fill="#0088ff" stroke-width="0.0000" d="M 5.0000,0.0000 C 5.0000,2.7857 2.7857,5.0000 0.0000,5.0000 C -2.7857,5.0000 -5.0000,2.7857 -5.0000,0.0000 C -5.0000,-2.7857 -2.7857,-5.0000 -0.0000,-5.0000 C 2.7857,-5.0000 5.0000,-2.7857 5.0000,-0.0000 z" />
<path stroke="#0000ff" stroke-width="1.0000" fill="None" d="M -6.0000,11.0000 L -6.0000,0.0000 L -17.0000,0.0000 L -17.0000,11.0000 L -6.0000,11.0000 z" />
<path stroke="None" fill="#ffff00" d="M -5.6000,-0.6000 L -5.6000,-11.4000 L -17.4000,-11.4000 L -17.4000,-0.6000 L -5.6000,-0.6000 z" />
<path id="b" transform="translate(-11.5000 -6.0000) " stroke="None" fill="#8800ff" stroke-width="0.0000" d="M 5.0000,0.0000 C 5.0000,2.7857 2.7857,5.0000 0.0000,5.0000 C -2.7857,5.0000 -5.0000,2.7857 -5.0000,0.0000 C -5.0000,-2.7857 -2.7857,-5.0000 -0.0000,-5.0000 C 2.7857,-5.0000 5.0000,-2.7857 5.0000,-0.0000 z" />
<path stroke="#0000ff" stroke-width="0.2000" fill="None" d="M -5.6000,-0.6000 L -5.6000,-11.4000 L -17.4000,-11.4000 L -17.4000,-0.6000 L -5.6000,-0.6000 z" />
<path stroke="None" fill="#ffff00" d="M 17.2500,-0.7500 L 17.2500,-11.2500 L -5.2500,-11.2500 L -5.2500,-0.7500 L 17.2500,-0.7500 z" />
<path id="c" transform="translate(6.0000 -6.0000) " stroke="None" fill="#ff8800" stroke-width="0.0000" d="M 5.0000,0.0000 C 5.0000,2.7857 2.7857,5.0000 0.0000,5.0000 C -2.7857,5.0000 -5.0000,2.7857 -5.0000,0.0000 C -5.0000,-2.7857 -2.7857,-5.0000 -0.0000,-5.0000 C 2.7857,-5.0000 5.0000,-2.7857 5.0000,-0.0000 z" />
<path stroke="#0000ff" stroke-width="0.5000" fill="None" d="M 17.2500,-0.7500 L 17.2500,-11.2500 L -5.2500,-11.2500 L -5.2500,-0.7500 L 17.2500,-0.7500 z" />
<path stroke="None" fill="#ffff00" d="M 17.2500,11.2500 L 17.2500,-0.2500 L -5.2500,-0.2500 L -5.2500,11.2500 L 17.2500,11.2500 z" />
<path id="p" transform="translate(6.0000 5.5000) " stroke="#00ff00" fill="None" marker-end="url(#arrow)" stroke-width="0.1000" d="M 0.0000,0.5500 L 10.6700,0.5500" />
<path stroke="#0000ff" stroke-width="0.5000" fill="None" d="M 17.2500,11.2500 L 17.2500,-0.2500 L -5.2500,-0.2500 L -5.2500,11.2500 L 17.2500,11.2500 z" />
<path id=".x_marks_the_spot.x_marks_the_spot" transform="translate(0.0000 -6.0000) " stroke="None" fill="None" stroke-width="0.0000" d="M 0.5000,0.0000 C 0.5000,0.2786 0.2786,0.5000 0.0000,0.5000 C -0.2786,0.5000 -0.5000,0.2786 -0.5000,0.0000 C -0.5000,-0.2786 -0.2786,-0.5000 -0.0000,-0.5000 C 0.2786,-0.5000 0.5000,-0.2786 0.5000,-0.0000 z" />
</g>
<path stroke="#ff0000" stroke-width="3.0000" fill="None" d="M 19.0000,13.0000 L 19.0000,-13.0000 L -19.0000,-13.0000 L -19.0000,13.0000 L 19.0000,13.0000 z" />
</g>
</svg>