<?xml version="1.0" encoding="UTF-8"?>
<svg xmlns:svg="http://www.w3.org/2000/svg" xmlns="http://www.w3.org/2000/svg" version="2.0" width="84.5685424949238mm" height="64.2842712474619mm" viewBox="-42.2842712474619 -32.14213562373095 84.5685424949238 64.2842712474619">
<defs />
<g>
<g transform="translate(-29.2132 -16.0711) ">
<path id="box0" transform="translate(0.0000 0.0000) " stroke="None" fill="#ff0000" stroke-width="0.0000" d="M 7.0711,7.0711 L 7.0711,-7.0711 L -7.0711,-7.0711 L -7.0711,7.0711 L 7.0711,7.0711 z" />
<path stroke="#000000" stroke-width="2.0000" fill="None" d="M 8.5711,6.5711 L 8.5711,-6.5711 C 8.5711,-7.6854 7.6854,-8.5711 6.5711,-8.5711 L -6.5711,-8.5711 C -7.6854,-8.5711 -8.5711,-7.6854 -8.5711,-6.5711 L -8.5711,6.5711 C -8.5711,7.6854 -7.6854,8.5711 -6.5711,8.5711 L 6.5711,8.5711 C 7.6854,8.5711 8.5711,7.6854 8.5711,6.5711 z" />
</g>
<path stroke="#000000" stroke-width="2.0000" fill="None" d="M -17.1421,-3.0000 L -17.1421,-29.1421 C -17.1421,-30.2564 -18.0278,-31.1421 -19.1421,-31.1421 L -39.2843,-31.1421 C -40.3986,-31.1421 -41.2843,-30.2564 -41.2843,-29.1421 L -41.2843,-3.0000 C -41.2843,-1.8857 -40.3986,-1.0000 -39.2843,-1.0000 L -19.1421,-1.0000 C -18.0278,-1.0000 -17.1421,-1.8857 -17.1421,-3.0000 z" />
<g id="a.fifo4.fifo4" transform="translate(-6.0711 -16.0711) ">
<path id="a.fifo4.i0" transform="translate(0.0000 -11.3033) " stroke="None" fill="None" stroke-width="0.0000" d="M 7.0711,1.7678 L 7.0711,-1.7678 L -7.0711,-1.7678 L -7.0711,1.7678 L 7.0711,1.7678 z" />
<path stroke="#ff0000" stroke-width="1.0000" fill="None" d="M 7.5711,-11.0355 L 7.5711,-11.5711 C 7.5711,-12.6854 6.6854,-13.5711 5.5711,-13.5711 L -5.5711,-13.5711 C -6.6854,-13.5711 -7.5711,-12.6854 -7.5711,-11.5711 L -7.5711,-11.0355 C -7.5711,-9.9212 -6.6854,-9.0355 -5.5711,-9.0355 L 5.5711,-9.0355 C 6.6854,-9.0355 7.5711,-9.9212 7.5711,-11.0355 z" />
<path stroke="None" fill="#ffc0cb" d="M 7.5711,-3.5000 L 7.5711,-4.0355 C 7.5711,-5.1498 6.6854,-6.0355 5.5711,-6.0355 L -5.5711,-6.0355 C -6.6854,-6.0355 -7.5711,-5.1498 -7.5711,-4.0355 L -7.5711,-3.5000 C -7.5711,-2.3857 -6.6854,-1.5000 -5.5711,-1.5000 L 5.5711,-1.5000 C 6.6854,-1.5000 7.5711,-2.3857 7.5711,-3.5000 z" />
<path id="a.fifo4.i1" transform="translate(0.0000 -3.7678) " stroke="None" fill="None" stroke-width="0.0000" d="M 7.0711,1.7678 L 7.0711,-1.7678 L -7.0711,-1.7678 L -7.0711,1.7678 L 7.0711,1.7678 z" />
<path stroke="#ff0000" stroke-width="1.0000" fill="None" d="M 7.5711,-3.5000 L 7.5711,-4.0355 C 7.5711,-5.1498 6.6854,-6.0355 5.5711,-6.0355 L -5.5711,-6.0355 C -6.6854,-6.0355 -7.5711,-5.1498 -7.5711,-4.0355 L -7.5711,-3.5000 C -7.5711,-2.3857 -6.6854,-1.5000 -5.5711,-1.5000 L 5.5711,-1.5000 C 6.6854,-1.5000 7.5711,-2.3857 7.5711,-3.5000 z" />
<path stroke="None" fill="#ffc0cb" d="M 7.5711,4.0355 L 7.5711,3.5000 C 7.5711,2.3857 6.6854,1.5000 5.5711,1.5000 L -5.5711,1.5000 C -6.6854,1.5000 -7.5711,2.3857 -7.5711,3.5000 L -7.5711,4.0355 C -7.5711,5.1498 -6.6854,6.0355 -5.5711,6.0355 L 5.5711,6.0355 C 6.6854,6.0355 7.5711,5.1498 7.5711,4.0355 z" />
<path id="a.fifo4.i2" transform="translate(0.0000 3.7678) " stroke="None" fill="None" stroke-width="0.0000" d="M 7.0711,1.7678 L 7.0711,-1.7678 L -7.0711,-1.7678 L -7.0711,1.7678 L 7.0711,1.7678 z" />
<path stroke="#ff0000" stroke-width="1.0000" fill="None" d="M 7.5711,4.0355 L 7.5711,3.5000 C 7.5711,2.3857 6.6854,1.5000 5.5711,1.5000 L -5.5711,1.5000 C -6.6854,1.5000 -7.5711,2.3857 -7.5711,3.5000 L -7.5711,4.0355 C -7.5711,5.1498 -6.6854,6.0355 -5.5711,6.0355 L 5.5711,6.0355 C 6.6854,6.0355 7.5711,5.1498 7.5711,4.0355 z" />
<path stroke="None" fill="#ffc0cb" d="M 7.5711,11.5711 L 7.5711,11.0355 C 7.5711,9.9212 6.6854,9.0355 5.5711,9.0355 L -5.5711,9.0355 C -6.6854,9.0355 -7.5711,9.9212 -7.5711,11.0355 L -7.5711,11.5711 C -7.5711,12.6854 -6.6854,13.5711 -5.5711,13.5711 L 5.5711,13.5711 C 6.6854,13.5711 7.5711,12.6854 7.5711,11.5711 z" />
<path id="a.fifo4.i3" transform="translate(0.0000 11.3033) " stroke="None" fill="None" stroke-width="0.0000" d="M 7.0711,1.7678 L 7.0711,-1.7678 L -7.0711,-1.7678 L -7.0711,1.7678 L 7.0711,1.7678 z" />
<path stroke="#ff0000" stroke-width="1.0000" fill="None" d="M 7.5711,11.5711 L 7.5711,11.0355 C 7.5711,9.9212 6.6854,9.0355 5.5711,9.0355 L -5.5711,9.0355 C -6.6854,9.0355 -7.5711,9.9212 -7.5711,11.0355 L -7.5711,11.5711 C -7.5711,12.6854 -6.6854,13.5711 -5.5711,13.5711 L 5.5711,13.5711 C 6.6854,13.5711 7.5711,12.6854 7.5711,11.5711 z" />
</g>
<path stroke="#000000" stroke-width="1.0000" fill="None" d="M 3.5000,-2.5000 L 3.5000,-29.6421 C 3.5000,-30.7564 2.6143,-31.6421 1.5000,-31.6421 L -13.6421,-31.6421 C -14.7564,-31.6421 -15.6421,-30.7564 -15.6421,-29.6421 L -15.6421,-2.5000 C -15.6421,-1.3857 -14.7564,-0.5000 -13.6421,-0.5000 L 1.5000,-0.5000 C 2.6143,-0.5000 3.5000,-1.3857 3.5000,-2.5000 z" />
<g id="b.fifo4.fifo4" transform="translate(14.0711 -16.0711) ">
<path id="b.fifo4.i0" transform="translate(0.0000 -11.3033) " stroke="None" fill="None" stroke-width="0.0000" d="M 7.0711,1.7678 L 7.0711,-1.7678 L -7.0711,-1.7678 L -7.0711,1.7678 L 7.0711,1.7678 z" />
<path stroke="#ff0000" stroke-width="1.0000" fill="None" d="M 7.5711,-11.0355 L 7.5711,-11.5711 C 7.5711,-12.6854 6.6854,-13.5711 5.5711,-13.5711 L -5.5711,-13.5711 C -6.6854,-13.5711 -7.5711,-12.6854 -7.5711,-11.5711 L -7.5711,-11.0355 C -7.5711,-9.9212 -6.6854,-9.0355 -5.5711,-9.0355 L 5.5711,-9.0355 C 6.6854,-9.0355 7.5711,-9.9212 7.5711,-11.0355 z" />
<path stroke="None" fill="#ffc0cb" d="M 7.5711,-3.5000 L 7.5711,-4.0355 C 7.5711,-5.1498 6.6854,-6.0355 5.5711,-6.0355 L -5.5711,-6.0355 C -6.6854,-6.0355 -7.5711,-5.1498 -7.5711,-4.0355 L -7.5711,-3.5000 C -7.5711,-2.3857 -6.6854,-1.5000 -5.5711,-1.5000 L 5.5711,-1.5000 C 6.6854,-1.5000 7.5711,-2.3857 7.5711,-3.5000 z" />
<path id="b.fifo4.i1" transform="translate(0.0000 -3.7678) " stroke="None" fill="None" stroke-width="0.0000" d="M 7.0711,1.7678 L 7.0711,-1.7678 L -7.0711,-1.7678 L -7.0711,1.7678 L 7.0711,1.7678 z" />
<path stroke="#ff0000" stroke-width="1.0000" fill="None" d="M 7.5711,-3.5000 L 7.5711,-4.0355 C 7.5711,-5.1498 6.6854,-6.0355 5.5711,-6.0355 L -5.5711,-6.0355 C -6.6854,-6.0355 -7.5711,-5.1498 -7.5711,-4.0355 L -7.5711,-3.5000 C -7.5711,-2.3857 -6.6854,-1.5000 -5.5711,-1.5000 L 5.5711,-1.5000 C 6.6854,-1.5000 7.5711,-2.3857 7.5711,-3.5000 z" />
<path stroke="None" fill="#ffc0cb" d="M 7.5711,4.0355 L 7.5711,3.5000 C 7.5711,2.3857 6.6854,1.5000 5.5711,1.5000 L -5.5711,1.5000 C -6.6854,1.5000 -7.5711,2.3857 -7.5711,3.5000 L -7.5711,4.0355 C -7.5711,5.1498 -6.6854,6.0355 -5.5711,6.0355 L 5.5711,6.0355 C 6.6854,6.0355 7.5711,5.1498 7.5711,4.0355 z" />
<path id="b.fifo4.i2" transform="translate(0.0000 3.7678) " stroke="None" fill="None" stroke-width="0.0000" d="M 7.0711,1.7678 L 7.0711,-1.7678 L -7.0711,-1.7678 L -7.0711,1.7678 L 7.0711,1.7678 z" />
<path stroke="#ff0000" stroke-width="1.0000" fill="None" d="M 7.5711,4.0355 L 7.5711,3.5000 C 7.5711,2.3857 6.6854,1.5000 5.5711,1.5000 L -5.5711,1.5000 C -6.6854,1.5000 -7.5711,2.3857 -7.5711,3.5000 L -7.5711,4.0355 C -7.5711,5.1498 -6.6854,6.0355 -5.5711,6.0355 L 5.5711,6.0355 C 6.6854,6.0355 7.5711,5.1498 7.5711,4.0355 z" />
<path stroke="None" fill="#ffc0cb" d="M 7.5711,11.5711 L 7.5711,11.0355 C 7.5711,9.9212 6.6854,9.0355 5.5711,9.0355 L -5.5711,9.0355 C -6.6854,9.0355 -7.5711,9.9212 -7.5711,11.0355 L -7.5711,11.5711 C -7.5711,12.6854 -6.6854,13.5711 -5.5711,13.5711 L 5.5711,13.5711 C 6.6854,13.5711 7.5711,12.6854 7.5711,11.5711 z" />
<path id="b.fifo4.i3" transform="translate(0.0000 11.3033) " stroke="None" fill="None" stroke-width="0.0000" d="M 7.0711,1.7678 L 7.0711,-1.7678 L -7.0711,-1.7678 L -7.0711,1.7678 L 7.0711,1.7678 z" />
<path stroke="#ff0000" stroke-width="1.0000" fill="None" d="M 7.5711,11.5711 L 7.5711,11.0355 C 7.5711,9.9212 6.6854,9.0355 5.5711,9.0355 L -5.5711,9.0355 C -6.6854,9.0355 -7.5711,9.9212 -7.5711,11.0355 L -7.5711,11.5711 C -7.5711,12.6854 -6.6854,13.5711 -5.5711,13.5711 L 5.5711,13.5711 C 6.6854,13.5711 7.5711,12.6854 7.5711,11.5711 z" />
</g>
<path stroke="#000000" stroke-width="1.0000" fill="None" d="M 23.6421,-2.5000 L 23.6421,-29.6421 C 23.6421,-30.7564 22.7564,-31.6421 21.6421,-31.6421 L 6.5000,-31.6421 C 5.3857,-31.6421 4.5000,-30.7564 4.5000,-29.6421 L 4.5000,-2.5000 C 4.5000,-1.3857 5.3857,-0.5000 6.5000,-0.5000 L 21.6421,-0.5000 C 22.7564,-0.5000 23.6421,-1.3857 23.6421,-2.5000 z" />
<path id="box2" transform="translate(33.2132 -16.0711) " stroke="None" fill="#ff0000" stroke-width="0.0000" d="M 7.0711,7.0711 L 7.0711,-7.0711 L -7.0711,-7.0711 L -7.0711,7.0711 L 7.0711,7.0711 z" />
<path stroke="#000000" stroke-width="2.0000" fill="None" d="M 41.2843,-3.0000 L 41.2843,-29.1421 C 41.2843,-30.2564 40.3986,-31.1421 39.2843,-31.1421 L 27.1421,-31.1421 C 26.0278,-31.1421 25.1421,-30.2564 25.1421,-29.1421 L 25.1421,-3.0000 C 25.1421,-1.8857 26.0278,-1.0000 27.1421,-1.0000 L 39.2843,-1.0000 C 40.3986,-1.0000 41.2843,-1.8857 41.2843,-3.0000 z" />
<g id="c.2fifos.2fifos" transform="translate(-9.0711 16.0711) ">
<g id="c.2fifos.f0.fifo4.fifo4" transform="translate(-10.0711 0.0000) ">
<path id="c.2fifos.f0.fifo4.i0" transform="translate(0.0000 -11.3033) " stroke="None" fill="None" stroke-width="0.0000" d="M 7.0711,1.7678 L 7.0711,-1.7678 L -7.0711,-1.7678 L -7.0711,1.7678 L 7.0711,1.7678 z" />
<path stroke="#ff0000" stroke-width="1.0000" fill="None" d="M 7.5711,-11.0355 L 7.5711,-11.5711 C 7.5711,-12.6854 6.6854,-13.5711 5.5711,-13.5711 L -5.5711,-13.5711 C -6.6854,-13.5711 -7.5711,-12.6854 -7.5711,-11.5711 L -7.5711,-11.0355 C -7.5711,-9.9212 -6.6854,-9.0355 -5.5711,-9.0355 L 5.5711,-9.0355 C 6.6854,-9.0355 7.5711,-9.9212 7.5711,-11.0355 z" />
<path stroke="None" fill="#ffc0cb" d="M 7.5711,-3.5000 L 7.5711,-4.0355 C 7.5711,-5.1498 6.6854,-6.0355 5.5711,-6.0355 L -5.5711,-6.0355 C -6.6854,-6.0355 -7.5711,-5.1498 -7.5711,-4.0355 L -7.5711,-3.5000 C -7.5711,-2.3857 -6.6854,-1.5000 -5.5711,-1.5000 L 5.5711,-1.5000 C 6.6854,-1.5000 7.5711,-2.3857 7.5711,-3.5000 z" />
<path id="c.2fifos.f0.fifo4.i1" transform="translate(0.0000 -3.7678) " stroke="None" fill="None" stroke-width="0.0000" d="M 7.0711,1.7678 L 7.0711,-1.7678 L -7.0711,-1.7678 L -7.0711,1.7678 L 7.0711,1.7678 z" />
<path stroke="#ff0000" stroke-width="1.0000" fill="None" d="M 7.5711,-3.5000 L 7.5711,-4.0355 C 7.5711,-5.1498 6.6854,-6.0355 5.5711,-6.0355 L -5.5711,-6.0355 C -6.6854,-6.0355 -7.5711,-5.1498 -7.5711,-4.0355 L -7.5711,-3.5000 C -7.5711,-2.3857 -6.6854,-1.5000 -5.5711,-1.5000 L 5.5711,-1.5000 C 6.6854,-1.5000 7.5711,-2.3857 7.5711,-3.5000 z" />
<path stroke="None" fill="#ffc0cb" d="M 7.5711,4.0355 L 7.5711,3.5000 C 7.5711,2.3857 6.6854,1.5000 5.5711,1.5000 L -5.5711,1.5000 C -6.6854,1.5000 -7.5711,2.3857 -7.5711,3.5000 L -7.5711,4.0355 C -7.5711,5.1498 -6.6854,6.0355 -5.5711,6.0355 L 5.5711,6.0355 C 6.6854,6.0355 7.5711,5.1498 7.5711,4.0355 z" />
<path id="c.2fifos.f0.fifo4.i2" transform="translate(0.0000 3.7678) " stroke="None" fill="None" stroke-width="0.0000" d="M 7.0711,1.7678 L 7.0711,-1.7678 L -7.0711,-1.7678 L -7.0711,1.7678 L 7.0711,1.7678 z" />
<path stroke="#ff0000" stroke-width="1.0000" fill="None" d="M 7.5711,4.0355 L 7.5711,3.5000 C 7.5711,2.3857 6.6854,1.5000 5.5711,1.5000 L -5.5711,1.5000 C -6.6854,1.5000 -7.5711,2.3857 -7.5711,3.5000 L -7.5711,4.0355 C -7.5711,5.1498 -6.6854,6.0355 -5.5711,6.0355 L 5.5711,6.0355 C 6.6854,6.0355 7.5711,5.1498 7.5711,4.0355 z" />
<path stroke="None" fill="#ffc0cb" d="M 7.5711,11.5711 L 7.5711,11.0355 C 7.5711,9.9212 6.6854,9.0355 5.5711,9.0355 L -5.5711,9.0355 C -6.6854,9.0355 -7.5711,9.9212 -7.5711,11.0355 L -7.5711,11.5711 C -7.5711,12.6854 -6.6854,13.5711 -5.5711,13.5711 L 5.5711,13.5711 C 6.6854,13.5711 7.5711,12.6854 7.5711,11.5711 z" />
<path id="c.2fifos.f0.fifo4.i3" transform="translate(0.0000 11.3033) " stroke="None" fill="None" stroke-width="0.0000" d="M 7.0711,1.7678 L 7.0711,-1.7678 L -7.0711,-1.7678 L -7.0711,1.7678 L 7.0711,1.7678 z" />
<path stroke="#ff0000" stroke-width="1.0000" fill="None" d="M 7.5711,11.5711 L 7.5711,11.0355 C 7.5711,9.9212 6.6854,9.0355 5.5711,9.0355 L -5.5711,9.0355 C -6.6854,9.0355 -7.5711,9.9212 -7.5711,11.0355 L -7.5711,11.5711 C -7.5711,12.6854 -6.6854,13.5711 -5.5711,13.5711 L 5.5711,13.5711 C 6.6854,13.5711 7.5711,12.6854 7.5711,11.5711 z" />
</g>
<path stroke="#000000" stroke-width="1.0000" fill="None" d="M -0.5000,13.5711 L -0.5000,-13.5711 C -0.5000,-14.6854 -1.3857,-15.5711 -2.5000,-15.5711 L -17.6421,-15.5711 C -18.7564,-15.5711 -19.6421,-14.6854 -19.6421,-13.5711 L -19.6421,13.5711 C -19.6421,14.6854 -18.7564,15.5711 -17.6421,15.5711 L -2.5000,15.5711 C -1.3857,15.5711 -0.5000,14.6854 -0.5000,13.5711 z" />
<g id="c.2fifos.f1.fifo4.fifo4" transform="translate(10.0711 0.0000) ">
<path id="c.2fifos.f1.fifo4.i0" transform="translate(0.0000 -11.3033) " stroke="None" fill="None" stroke-width="0.0000" d="M 7.0711,1.7678 L 7.0711,-1.7678 L -7.0711,-1.7678 L -7.0711,1.7678 L 7.0711,1.7678 z" />
<path stroke="#ff0000" stroke-width="1.0000" fill="None" d="M 7.5711,-11.0355 L 7.5711,-11.5711 C 7.5711,-12.6854 6.6854,-13.5711 5.5711,-13.5711 L -5.5711,-13.5711 C -6.6854,-13.5711 -7.5711,-12.6854 -7.5711,-11.5711 L -7.5711,-11.0355 C -7.5711,-9.9212 -6.6854,-9.0355 -5.5711,-9.0355 L 5.5711,-9.0355 C 6.6854,-9.0355 7.5711,-9.9212 7.5711,-11.0355 z" />
<path stroke="None" fill="#ffc0cb" d="M 7.5711,-3.5000 L 7.5711,-4.0355 C 7.5711,-5.1498 6.6854,-6.0355 5.5711,-6.0355 L -5.5711,-6.0355 C -6.6854,-6.0355 -7.5711,-5.1498 -7.5711,-4.0355 L -7.5711,-3.5000 C -7.5711,-2.3857 -6.6854,-1.5000 -5.5711,-1.5000 L 5.5711,-1.5000 C 6.6854,-1.5000 7.5711,-2.3857 7.5711,-3.5000 z" />
<path id="c.2fifos.f1.fifo4.i1" transform="translate(0.0000 -3.7678) " stroke="None" fill="None" stroke-width="0.0000" d="M 7.0711,1.7678 L 7.0711,-1.7678 L -7.0711,-1.7678 L -7.0711,1.7678 L 7.0711,1.7678 z" />
<path stroke="#ff0000" stroke-width="1.0000" fill="None" d="M 7.5711,-3.5000 L 7.5711,-4.0355 C 7.5711,-5.1498 6.6854,-6.0355 5.5711,-6.0355 L -5.5711,-6.0355 C -6.6854,-6.0355 -7.5711,-5.1498 -7.5711,-4.0355 L -7.5711,-3.5000 C -7.5711,-2.3857 -6.6854,-1.5000 -5.5711,-1.5000 L 5.5711,-1.5000 C 6.6854,-1.5000 7.5711,-2.3857 7.5711,-3.5000 z" />
<path stroke="None" fill="#ffc0cb" d="M 7.5711,4.0355 L 7.5711,3.5000 C 7.5711,2.3857 6.6854,1.5000 5.5711,1.5000 L -5.5711,1.5000 C -6.6854,1.5000 -7.5711,2.3857 -7.5711,3.5000 L -7.5711,4.0355 C -7.5711,5.1498 -6.6854,6.0355 -5.5711,6.0355 L 5.5711,6.0355 C 6.6854,6.0355 7.5711,5.1498 7.5711,4.0355 z" />
<path id="c.2fifos.f1.fifo4.i2" transform="translate(0.0000 3.7678) " stroke="None" fill="None" stroke-width="0.0000" d="M 7.0711,1.7678 L 7.0711,-1.7678 L -7.0711,-1.7678 L -7.0711,1.7678 L 7.0711,1.7678 z" />
<path stroke="#ff0000" stroke-width="1.0000" fill="None" d="M 7.5711,4.0355 L 7.5711,3.5000 C 7.5711,2.3857 6.6854,1.5000 5.5711,1.5000 L -5.5711,1.5000 C -6.6854,1.5000 -7.5711,2.3857 -7.5711,3.5000 L -7.5711,4.0355 C -7.5711,5.1498 -6.6854,6.0355 -5.5711,6.0355 L 5.5711,6.0355 C 6.6854,6.0355 7.5711,5.1498 7.5711,4.0355 z" />
<path stroke="None" fill="#ffc0cb" d="M 7.5711,11.5711 L 7.5711,11.0355 C 7.5711,9.9212 6.6854,9.0355 5.5711,9.0355 L -5.5711,9.0355 C -6.6854,9.0355 -7.5711,9.9212 -7.5711,11.0355 L -7.5711,11.5711 C -7.5711,12.6854 -6.6854,13.5711 -5.5711,13.5711 L 5.5711,13.5711 C 6.6854,13.5711 7.5711,12.6854 7.5711,11.5711 z" />
<path id="c.2fifos.f1.fifo4.i3" transform="translate(0.0000 11.3033) " stroke="None" fill="None" stroke-width="0.0000" d="M 7.0711,1.7678 L 7.0711,-1.7678 L -7.0711,-1.7678 L -7.0711,1.7678 L 7.0711,1.7678 z" />
<path stroke="#ff0000" stroke-width="1.0000" fill="None" d="M 7.5711,11.5711 L 7.5711,11.0355 C 7.5711,9.9212 6.6854,9.0355 5.5711,9.0355 L -5.5711,9.0355 C -6.6854,9.0355 -7.5711,9.9212 -7.5711,11.0355 L -7.5711,11.5711 C -7.5711,12.6854 -6.6854,13.5711 -5.5711,13.5711 L 5.5711,13.5711 C 6.6854,13.5711 7.5711,12.6854 7.5711,11.5711 z" />
</g>
<path stroke="#000000" stroke-width="1.0000" fill="None" d="M 19.6421,13.5711 L 19.6421,-13.5711 C 19.6421,-14.6854 18.7564,-15.5711 17.6421,-15.5711 L 2.5000,-15.5711 C 1.3857,-15.5711 0.5000,-14.6854 0.5000,-13.5711 L 0.5000,13.5711 C 0.5000,14.6854 1.3857,15.5711 2.5000,15.5711 L 17.6421,15.5711 C 18.7564,15.5711 19.6421,14.6854 19.6421,13.5711 z" />
</g>
</g>
</svg>